<svg xmlns="http://www.w3.org/2000/svg" xmlns:xlink="http://www.w3.org/1999/xlink" zoomAndPan="magnify" preserveAspectRatio="xMidYMid meet" version="1.0" viewBox="0 0.27 219.61 241.7"><defs><clipPath id="a0939efe7c"><path d="M 0 0.273438 L 210.273438 0.273438 L 210.273438 241.976562 L 0 241.976562 Z M 0 0.273438 " clip-rule="nonzero"/></clipPath><clipPath id="c5c9b4fd04"><path d="M 107 191 L 167 191 L 167 235.992188 L 107 235.992188 Z M 107 191 " clip-rule="nonzero"/></clipPath><clipPath id="a0e2aa5e6e"><path d="M 13 178 L 108 178 L 108 235.992188 L 13 235.992188 Z M 13 178 " clip-rule="nonzero"/></clipPath><clipPath id="44f7421b76"><path d="M 12.335938 78 L 14 78 L 14 180 L 12.335938 180 Z M 12.335938 78 " clip-rule="nonzero"/></clipPath><clipPath id="f36a1982b5"><path d="M 12.335938 62 L 14 62 L 14 79 L 12.335938 79 Z M 12.335938 62 " clip-rule="nonzero"/></clipPath><clipPath id="0aa183581d"><path d="M 12.335938 56 L 34 56 L 34 77 L 12.335938 77 Z M 12.335938 56 " clip-rule="nonzero"/></clipPath><clipPath id="78a7a9c3c0"><path d="M 12.335938 72 L 35 72 L 35 101 L 12.335938 101 Z M 12.335938 72 " clip-rule="nonzero"/></clipPath><clipPath id="6e11d8d7e3"><path d="M 12.335938 165 L 34 165 L 34 186 L 12.335938 186 Z M 12.335938 165 " clip-rule="nonzero"/></clipPath><clipPath id="210e78bce7"><path d="M 185 188 L 219.253906 188 L 219.253906 222 L 185 222 Z M 185 188 " clip-rule="nonzero"/></clipPath><clipPath id="de7d4ee3ab"><path d="M 13 6.261719 L 204 6.261719 L 204 70 L 13 70 Z M 13 6.261719 " clip-rule="nonzero"/></clipPath><clipPath id="d5231f16b5"><path d="M 12.335938 62 L 28 62 L 28 95 L 12.335938 95 Z M 12.335938 62 " clip-rule="nonzero"/></clipPath><clipPath id="a7956cf388"><path d="M 12.335938 78 L 28 78 L 28 179 L 12.335938 179 Z M 12.335938 78 " clip-rule="nonzero"/></clipPath><clipPath id="355df5ab70"><path d="M 13 171 L 109 171 L 109 235.992188 L 13 235.992188 Z M 13 171 " clip-rule="nonzero"/></clipPath><clipPath id="8876826bcc"><path d="M 185 188 L 219.253906 188 L 219.253906 222 L 185 222 Z M 185 188 " clip-rule="nonzero"/></clipPath><clipPath id="ee1a8d9b85"><path d="M 107 191 L 167 191 L 167 235.992188 L 107 235.992188 Z M 107 191 " clip-rule="nonzero"/></clipPath></defs><g clip-path="url(#a0939efe7c)"><path fill="#ffffff" d="M 210.363281 179.210938 L 210.363281 63.183594 C 210.363281 61.511719 209.46875 59.964844 208.019531 59.128906 L 107.539062 1.113281 C 106.089844 0.277344 104.304688 0.277344 102.855469 1.113281 L 2.375 59.128906 C 0.925781 59.964844 0.03125 61.511719 0.03125 63.183594 L 0.03125 179.210938 C 0.03125 180.882812 0.925781 182.429688 2.375 183.265625 L 102.855469 241.277344 C 104.304688 242.117188 106.089844 242.117188 107.539062 241.277344 L 208.019531 183.265625 C 209.46875 182.429688 210.363281 180.882812 210.363281 179.210938 " fill-opacity="1" fill-rule="nonzero"/></g><path fill="#6b7fd7" d="M 203.238281 76.929688 L 203.113281 178.785156 C 203.109375 178.914062 203.050781 179.007812 202.933594 179.070312 C 202.820312 179.128906 202.707031 179.121094 202.601562 179.050781 L 188.027344 169.105469 " fill-opacity="1" fill-rule="nonzero"/><path fill="#161b33" d="M 188.027344 169.105469 L 175.667969 160.511719 " fill-opacity="1" fill-rule="nonzero"/><path fill="#6b7fd7" d="M 175.683594 117.980469 L 161.535156 109.054688 " fill-opacity="1" fill-rule="nonzero"/><path fill="#6b7fd7" d="M 54.320312 109.164062 L 40.539062 118.304688 " fill-opacity="1" fill-rule="nonzero"/><path fill="#4d566d" d="M 40.910156 122.945312 L 55.015625 131.539062 " fill-opacity="1" fill-rule="nonzero"/><g clip-path="url(#c5c9b4fd04)"><path fill="#6b7fd7" d="M 157.476562 191.351562 L 166.304688 200.933594 C 166.386719 201.027344 166.421875 201.136719 166.40625 201.261719 C 166.390625 201.382812 166.332031 201.480469 166.230469 201.550781 C 164.363281 202.792969 162.542969 203.9375 160.757812 204.988281 C 145.902344 213.785156 131.042969 222.570312 116.171875 231.34375 C 114.082031 232.582031 112.066406 233.8125 110.128906 235.035156 C 109.527344 235.410156 108.203125 236.339844 107.558594 235.664062 " fill-opacity="1" fill-rule="nonzero"/></g><g clip-path="url(#a0e2aa5e6e)"><path fill="#586aaf" d="M 107.019531 235.664062 L 13.253906 178.988281 " fill-opacity="1" fill-rule="nonzero"/></g><g clip-path="url(#44f7421b76)"><path fill="#6b7fd7" d="M 13.796875 178.988281 C 13.550781 179.085938 13.308594 178.894531 13.070312 178.40625 C 12.949219 178.132812 12.890625 177.847656 12.898438 177.550781 C 12.851562 144.546875 12.851562 111.476562 12.898438 78.34375 " fill-opacity="1" fill-rule="nonzero"/></g><g clip-path="url(#f36a1982b5)"><path fill="#52618e" d="M 12.875 78.308594 C 12.875 73.304688 12.855469 68.230469 12.816406 63.082031 C 12.8125 62.832031 12.914062 62.636719 13.128906 62.503906 " fill-opacity="1" fill-rule="nonzero"/></g><g clip-path="url(#0aa183581d)"><path stroke-linecap="butt" transform="matrix(-0.540679, 0, 0, 0.541294, 385.819894, -149.575029)" fill="none" stroke-linejoin="miter" d="M 689.302225 391.843551 C 688.153495 392.348706 687.300979 393.41675 686.296743 393.979637 C 678.479599 398.360059 670.445714 402.300273 662.202313 405.807497 " stroke="#0f9289" stroke-width="2" stroke-opacity="1" stroke-miterlimit="4"/></g><path stroke-linecap="butt" transform="matrix(-0.540679, 0, 0, 0.541294, 385.819894, -149.575029)" fill="none" stroke-linejoin="miter" d="M 662.231211 405.807497 C 654.782529 400.510579 647.08098 395.603352 639.126567 391.10025 C 597.353255 367.264118 555.89783 343.168191 514.767518 318.798037 C 514.370159 318.567109 513.936676 318.444428 513.467069 318.444428 C 513.004687 318.444428 512.571204 318.567109 512.16662 318.798037 L 365.353151 405.489971 " stroke="#0b7270" stroke-width="2" stroke-opacity="1" stroke-miterlimit="4"/><path stroke-linecap="butt" transform="matrix(-0.540679, 0, 0, 0.541294, 385.819894, -149.575029)" fill="none" stroke-linejoin="miter" d="M 662.231211 405.807497 L 661.898875 450.167383 " stroke="#09595c" stroke-width="2" stroke-opacity="1" stroke-miterlimit="4"/><path stroke-linecap="butt" transform="matrix(-0.540679, 0, 0, 0.541294, 385.819894, -149.575029)" fill="none" stroke-linejoin="miter" d="M 661.898875 450.167383 L 662.057818 592.527474 " stroke="#0b7270" stroke-width="2" stroke-opacity="1" stroke-miterlimit="4"/><path stroke-linecap="butt" transform="matrix(-0.540679, 0, 0, 0.541294, 385.819894, -149.575029)" fill="none" stroke-linejoin="miter" d="M 662.057818 592.527474 C 662.021695 592.917166 661.855526 593.241909 661.573762 593.501703 C 661.284774 593.761497 660.945212 593.891394 660.562302 593.898611 " stroke="#09595c" stroke-width="2" stroke-opacity="1" stroke-miterlimit="4"/><path stroke-linecap="butt" transform="matrix(-0.540679, 0, 0, 0.541294, 385.819894, -149.575029)" fill="none" stroke-linejoin="miter" d="M 660.562302 593.898611 C 659.326875 592.830567 658.098674 591.776957 656.863247 590.766646 C 655.613371 589.756334 654.276798 588.868704 652.860754 588.11097 C 647.767329 585.411995 644.270566 583.413022 642.37769 582.106834 C 641.741915 581.616111 641.301207 580.988275 641.062791 580.223325 C 640.874949 579.494457 640.788252 578.751157 640.809926 578.00064 C 640.788252 577.163524 640.571511 576.391358 640.152477 575.669707 C 639.971859 575.359397 639.747893 575.323314 639.480578 575.568676 C 638.967624 576.052182 638.664185 576.651152 638.577489 577.351154 " stroke="#03323c" stroke-width="2" stroke-opacity="1" stroke-miterlimit="4"/><path stroke-linecap="butt" transform="matrix(-0.540679, 0, 0, 0.541294, 385.819894, -149.575029)" fill="none" stroke-linejoin="miter" d="M 638.541365 577.38002 L 638.541365 545.800573 " stroke="#388785" stroke-width="2" stroke-opacity="1" stroke-miterlimit="4"/><path stroke-linecap="butt" transform="matrix(-0.540679, 0, 0, 0.541294, 385.819894, -149.575029)" fill="none" stroke-linejoin="miter" d="M 638.577489 545.800573 L 638.461893 529.996416 " stroke="#0b7270" stroke-width="2" stroke-opacity="1" stroke-miterlimit="4"/><path stroke-linecap="butt" transform="matrix(-0.540679, 0, 0, 0.541294, 385.819894, -149.575029)" fill="none" stroke-linejoin="miter" d="M 638.461893 529.996416 L 637.92004 503.482959 " stroke="#09595c" stroke-width="2" stroke-opacity="1" stroke-miterlimit="4"/><path stroke-linecap="butt" transform="matrix(-0.540679, 0, 0, 0.541294, 385.819894, -149.575029)" fill="none" stroke-linejoin="miter" d="M 638.606388 494.902528 L 638.519691 440.367363 " stroke="#388785" stroke-width="2" stroke-opacity="1" stroke-miterlimit="4"/><path stroke-linecap="butt" transform="matrix(-0.540679, 0, 0, 0.541294, 385.819894, -149.575029)" fill="none" stroke-linejoin="miter" d="M 638.519691 440.367363 L 638.519691 418.198245 C 638.519691 417.873502 638.432995 417.570408 638.259601 417.288964 L 637.891141 416.697211 " stroke="#046868" stroke-width="2" stroke-opacity="1" stroke-miterlimit="4"/><path stroke-linecap="butt" transform="matrix(-0.540679, 0, 0, 0.541294, 385.819894, -149.575029)" fill="none" stroke-linejoin="miter" d="M 637.876691 416.697211 C 637.623826 416.271437 637.291489 415.917828 636.87968 415.6436 C 628.332841 410.988951 620.067765 405.850796 611.88216 401.297178 C 597.23766 393.200254 582.42699 384.179617 567.5224 375.599187 C 553.87491 367.762057 539.367679 359.224926 524.000706 350.002226 C 520.807381 348.089851 517.440663 346.12696 513.900552 344.099121 C 513.597114 343.925925 513.300901 343.925925 512.997462 344.099121 L 389.606525 416.55288 " stroke="#468e8c" stroke-width="2" stroke-opacity="1" stroke-miterlimit="4"/><path stroke-linecap="butt" transform="matrix(-0.540679, 0, 0, 0.541294, 385.819894, -149.575029)" fill="none" stroke-linejoin="miter" d="M 389.606525 416.55288 L 389.071896 417.058036 C 388.811806 417.288964 388.681761 417.584841 388.688986 417.931234 L 388.631188 434.817867 " stroke="#0b7270" stroke-width="2" stroke-opacity="1" stroke-miterlimit="4"/><path stroke-linecap="butt" transform="matrix(-0.540679, 0, 0, 0.541294, 385.819894, -149.575029)" fill="none" stroke-linejoin="miter" d="M 388.631188 434.817867 L 388.631188 494.289125 " stroke="#388785" stroke-width="2" stroke-opacity="1" stroke-miterlimit="4"/><path stroke-linecap="butt" transform="matrix(-0.540679, 0, 0, 0.541294, 385.819894, -149.575029)" fill="none" stroke-linejoin="miter" d="M 365.822758 588.738806 C 365.649364 587.079009 365.562668 585.469727 365.540994 583.910961 C 365.064162 546.082016 364.897994 508.253072 365.028039 470.409694 C 365.028039 461.555036 365.028039 452.707595 365.028039 443.86737 " stroke="#0b7270" stroke-width="2" stroke-opacity="1" stroke-miterlimit="4"/><path stroke-linecap="butt" transform="matrix(-0.540679, 0, 0, 0.541294, 385.819894, -149.575029)" fill="none" stroke-linejoin="miter" d="M 364.99914 443.86737 L 365.317027 405.489971 " stroke="#09595c" stroke-width="2" stroke-opacity="1" stroke-miterlimit="4"/><g clip-path="url(#78a7a9c3c0)"><path stroke-linecap="butt" transform="matrix(-0.540679, 0, 0, 0.541294, 385.819894, -149.575029)" fill="none" stroke-linejoin="miter" d="M 689.771832 420.99825 C 685.884934 423.379699 682.323149 426.165272 679.079251 429.362185 C 677.82215 430.509611 676.622847 431.714768 675.488567 432.977657 C 675.27905 433.230235 675.011735 433.396214 674.701073 433.482813 C 674.238691 433.59106 673.985826 433.886937 673.942477 434.363227 C 671.579995 437.026119 669.246411 439.696228 666.941727 442.35912 C 664.911581 444.718918 663.220998 447.302429 661.869976 450.102435 " stroke="#0f9289" stroke-width="2" stroke-opacity="1" stroke-miterlimit="4"/></g><path stroke-linecap="butt" transform="matrix(-0.540679, 0, 0, 0.541294, 385.819894, -149.575029)" fill="none" stroke-linejoin="miter" d="M 638.577489 545.800573 C 637.053074 545.418097 635.976591 545.800573 635.34804 546.998513 C 635.189097 547.287174 634.972355 547.532535 634.697816 547.720164 C 633.411816 548.600578 632.082469 549.394394 630.702548 550.108829 C 629.474346 550.722232 628.361739 551.487182 627.357504 552.418112 L 624.359246 555.2975 C 623.658449 555.838738 622.921528 556.32946 622.148483 556.769668 C 621.888393 556.957297 621.59218 557.072761 621.267068 557.108844 L 613.587194 557.996474 " stroke="#3ec0b2" stroke-width="2" stroke-opacity="1" stroke-miterlimit="4"/><g clip-path="url(#6e11d8d7e3)"><path stroke-linecap="butt" transform="matrix(-0.540679, 0, 0, 0.541294, 385.819894, -149.575029)" fill="none" stroke-linejoin="miter" d="M 688.066799 606.996576 C 683.457429 603.994508 678.869734 601.295534 674.296488 598.906869 L 662.057818 592.549124 " stroke="#0f9289" stroke-width="2" stroke-opacity="1" stroke-miterlimit="4"/></g><path stroke-linecap="butt" transform="matrix(-0.540679, 0, 0, 0.541294, 385.819894, -149.575029)" fill="none" stroke-linejoin="miter" d="M 413.881573 452.209656 L 408.36189 448.998309 C 408.080126 448.839546 407.783912 448.760164 407.4588 448.752948 C 407.018093 448.738515 406.627958 448.594184 406.288396 448.31274 C 404.048734 446.587995 401.917442 444.747785 399.880072 442.79211 L 399.793376 442.712729 L 388.631188 434.817867 " stroke="#3ec0b2" stroke-width="2" stroke-opacity="1" stroke-miterlimit="4"/><path stroke-linecap="butt" transform="matrix(-0.540679, 0, 0, 0.541294, 385.819894, -149.575029)" fill="none" stroke-linejoin="miter" d="M 660.562302 593.898611 L 513.69826 683.123539 " stroke="#065254" stroke-width="2" stroke-opacity="1" stroke-miterlimit="4"/><path stroke-linecap="butt" transform="matrix(-0.540679, 0, 0, 0.541294, 385.819894, -149.575029)" fill="none" stroke-linejoin="miter" d="M 513.69826 683.123539 L 422.327267 629.83683 " stroke="#065959" stroke-width="2" stroke-opacity="1" stroke-miterlimit="4"/><path stroke-linecap="butt" transform="matrix(-0.540679, 0, 0, 0.541294, 385.819894, -149.575029)" fill="none" stroke-linejoin="miter" d="M 458.089615 624.828572 C 474.757037 634.715191 491.446132 644.551294 508.149677 654.329665 C 509.963081 655.513172 511.92098 656.343071 514.030597 656.826577 " stroke="#448784" stroke-width="2" stroke-opacity="1" stroke-miterlimit="4"/><path stroke-linecap="butt" transform="matrix(-0.540679, 0, 0, 0.541294, 385.819894, -149.575029)" fill="none" stroke-linejoin="miter" d="M 638.519691 440.367363 C 637.631051 440.453961 636.749636 440.576642 635.86822 440.749838 C 634.986805 440.901385 634.199311 441.269427 633.520187 441.846748 C 632.42203 442.79211 631.222727 443.57871 629.922278 444.206546 C 628.144998 445.072527 626.43274 446.046756 624.792729 447.129233 C 623.578977 447.951915 622.242404 448.283874 620.790236 448.132328 C 619.55481 447.8581 618.355507 447.490058 617.192327 447.006552 C 615.956901 446.544695 614.678126 446.371499 613.363227 446.486963 " stroke="#37b6aa" stroke-width="2" stroke-opacity="1" stroke-miterlimit="4"/><path stroke-linecap="butt" transform="matrix(-0.540679, 0, 0, 0.541294, 385.819894, -149.575029)" fill="none" stroke-linejoin="miter" d="M 638.461893 529.996416 C 638.382422 529.332497 638.107882 528.921156 637.65995 528.776826 C 637.226467 528.711877 636.843557 528.820125 636.518445 529.123218 C 630.991536 533.0057 626.266572 535.48818 622.329101 536.56344 C 619.222473 537.313957 616.216991 538.374784 613.327104 539.753137 " stroke="#0f9289" stroke-width="2" stroke-opacity="1" stroke-miterlimit="4"/><path stroke-linecap="butt" transform="matrix(-0.540679, 0, 0, 0.541294, 385.819894, -149.575029)" fill="none" stroke-linejoin="miter" d="M 613.312654 539.731488 L 611.831587 519.337631 " stroke="#09736f" stroke-width="2" stroke-opacity="1" stroke-miterlimit="4"/><path stroke-linecap="butt" transform="matrix(-0.540679, 0, 0, 0.541294, 385.819894, -149.575029)" fill="none" stroke-linejoin="miter" d="M 638.541365 577.38002 L 638.136781 581.262502 C 638.115107 581.608895 637.948939 581.875905 637.638276 582.049102 L 514.001698 656.826577 " stroke="#36807e" stroke-width="2" stroke-opacity="1" stroke-miterlimit="4"/><path stroke-linecap="butt" transform="matrix(-0.540679, 0, 0, 0.541294, 385.819894, -149.575029)" fill="none" stroke-linejoin="miter" d="M 514.001698 656.826577 L 513.416496 632.636836 C 513.416496 632.362609 513.300901 632.146113 513.062485 632.001783 L 512.708474 631.778071 " stroke="#79dcce" stroke-width="2" stroke-opacity="1" stroke-miterlimit="4"/><path stroke-linecap="butt" transform="matrix(-0.540679, 0, 0, 0.541294, 385.819894, -149.575029)" fill="none" stroke-linejoin="miter" d="M 637.876691 416.697211 C 630.160694 421.265261 622.162932 425.263208 613.883407 428.698267 " stroke="#45bcb0" stroke-width="2" stroke-opacity="1" stroke-miterlimit="4"/><path stroke-linecap="butt" transform="matrix(-0.540679, 0, 0, 0.541294, 385.819894, -149.575029)" fill="none" stroke-linejoin="miter" d="M 413.440866 428.676617 C 410.254766 428.084863 407.299856 426.908572 404.583363 425.140527 C 401.281667 423.083822 396.282163 420.226084 389.577626 416.55288 " stroke="#4cc6b9" stroke-width="2" stroke-opacity="1" stroke-miterlimit="4"/><path stroke-linecap="butt" transform="matrix(-0.540679, 0, 0, 0.541294, 385.819894, -149.575029)" fill="none" stroke-linejoin="miter" d="M 613.312654 539.731488 L 613.608868 557.996474 " stroke="#0c8c84" stroke-width="2" stroke-opacity="1" stroke-miterlimit="4"/><path stroke-linecap="butt" transform="matrix(-0.540679, 0, 0, 0.541294, 385.819894, -149.575029)" fill="none" stroke-linejoin="miter" d="M 613.608868 557.996474 L 613.558295 569.117116 C 613.55107 569.730519 613.399351 570.300624 613.103138 570.827429 C 612.806924 571.361451 612.40234 571.794441 611.889385 572.119184 C 603.963871 577.192391 596.572986 581.818173 589.709505 585.996533 C 566.734906 599.996562 545.133002 613.080094 524.889346 625.239913 C 521.045797 627.549197 517.375641 629.627551 513.893327 631.482194 C 513.524867 631.655391 513.134732 631.756422 512.730148 631.792504 " stroke="#39a199" stroke-width="2" stroke-opacity="1" stroke-miterlimit="4"/><path stroke-linecap="butt" transform="matrix(-0.540679, 0, 0, 0.541294, 385.819894, -149.575029)" fill="none" stroke-linejoin="miter" d="M 512.737373 631.778071 L 471.946622 607.783176 " stroke="#47a89f" stroke-width="2" stroke-opacity="1" stroke-miterlimit="4"/><path stroke-linecap="butt" transform="matrix(-0.540679, 0, 0, 0.541294, 385.819894, -149.575029)" fill="none" stroke-linejoin="miter" d="M 613.897856 428.669401 C 613.175385 434.594155 613.009216 440.540559 613.392126 446.501396 " stroke="#04827b" stroke-width="2" stroke-opacity="1" stroke-miterlimit="4"/><path stroke-linecap="butt" transform="matrix(-0.540679, 0, 0, 0.541294, 385.819894, -149.575029)" fill="none" stroke-linejoin="miter" d="M 413.881573 452.209656 L 413.440866 428.676617 " stroke="#0c8c84" stroke-width="2" stroke-opacity="1" stroke-miterlimit="4"/><path fill="#161b33" d="M 162.253906 183.253906 C 162.160156 183.152344 162.113281 183.03125 162.113281 182.890625 C 162.113281 182.75 162.160156 182.628906 162.253906 182.523438 L 173.609375 169.890625 C 173.699219 169.789062 173.816406 169.730469 173.953125 169.71875 C 174.085938 169.703125 174.210938 169.734375 174.324219 169.816406 L 192.09375 182.953125 C 192.21875 183.046875 192.289062 183.171875 192.308594 183.324219 C 192.324219 183.480469 192.28125 183.617188 192.179688 183.738281 L 178.566406 199.261719 C 178.460938 199.375 178.328125 199.433594 178.171875 199.433594 C 178.015625 199.433594 177.882812 199.375 177.777344 199.261719 L 162.261719 183.234375 " fill-opacity="1" fill-rule="nonzero"/><g clip-path="url(#210e78bce7)"><path fill="#161b33" d="M 211.554688 220.820312 C 210.386719 221.324219 209.171875 221.652344 207.910156 221.804688 C 206.648438 221.957031 205.390625 221.929688 204.136719 221.71875 C 202.882812 221.511719 201.683594 221.128906 200.542969 220.570312 C 199.398438 220.015625 198.355469 219.3125 197.414062 218.457031 C 196.265625 217.414062 195.140625 216.332031 194.042969 215.207031 C 191.179688 212.320312 188.425781 209.550781 185.78125 206.894531 C 185.699219 206.828125 185.632812 206.75 185.585938 206.65625 C 185.539062 206.5625 185.515625 206.464844 185.511719 206.359375 C 185.507812 206.253906 185.527344 206.15625 185.570312 206.058594 C 185.609375 205.964844 185.667969 205.882812 185.746094 205.8125 L 201.347656 188.488281 C 201.421875 188.402344 201.496094 188.402344 201.574219 188.488281 C 204.5625 190.65625 207.804688 193.101562 211.304688 195.824219 C 214.964844 198.671875 217.238281 200.9375 218.128906 202.617188 C 218.335938 203.019531 218.527344 203.433594 218.691406 203.855469 C 218.859375 204.277344 219.003906 204.707031 219.125 205.144531 C 219.25 205.582031 219.347656 206.023438 219.425781 206.472656 C 219.5 206.917969 219.554688 207.367188 219.585938 207.820312 C 219.617188 208.273438 219.621094 208.726562 219.605469 209.183594 C 219.589844 209.636719 219.550781 210.085938 219.488281 210.535156 C 219.421875 210.988281 219.335938 211.429688 219.226562 211.871094 C 219.117188 212.3125 218.988281 212.746094 218.832031 213.175781 C 218.679688 213.601562 218.503906 214.019531 218.308594 214.429688 C 218.109375 214.835938 217.890625 215.234375 217.65625 215.621094 C 217.417969 216.007812 217.160156 216.378906 216.882812 216.738281 C 216.605469 217.101562 216.3125 217.445312 216 217.773438 C 215.6875 218.101562 215.359375 218.414062 215.015625 218.710938 C 214.671875 219.007812 214.3125 219.28125 213.9375 219.542969 C 213.566406 219.800781 213.179688 220.039062 212.78125 220.257812 C 212.386719 220.476562 211.976562 220.671875 211.558594 220.847656 " fill-opacity="1" fill-rule="nonzero"/></g><g clip-path="url(#de7d4ee3ab)"><path fill="#6b7fd7" d="M 13.128906 62.351562 C 13.75 62.628906 14.210938 63.207031 14.753906 63.511719 C 18.980469 65.878906 23.324219 68.015625 27.78125 69.914062 C 31.808594 67.046875 35.972656 64.390625 40.273438 61.953125 C 62.851562 49.039062 85.257812 35.996094 107.496094 22.816406 C 107.710938 22.6875 107.945312 22.625 108.199219 22.625 C 108.449219 22.625 108.683594 22.6875 108.902344 22.816406 L 188.28125 69.742188 C 189.265625 69.515625 190.203125 69.171875 191.101562 68.710938 C 192.640625 67.890625 195.5625 66.210938 199.871094 63.679688 C 200.964844 63.191406 202.109375 62.878906 203.304688 62.742188 C 201.605469 61.464844 199.832031 60.304688 197.984375 59.265625 C 196.28125 58.3125 194.699219 57.394531 193.234375 56.523438 C 164.421875 39.390625 137.003906 23.269531 108.972656 6.582031 C 108.722656 6.429688 108.453125 6.351562 108.160156 6.351562 C 107.867188 6.351562 107.597656 6.429688 107.347656 6.582031 C 100.917969 10.609375 94.421875 14.550781 87.855469 18.40625 C 62.9375 33.050781 38.03125 47.703125 13.128906 62.351562 Z M 13.128906 62.351562 " fill-opacity="1" fill-rule="nonzero"/></g><path fill="#161b33" d="M 27.945312 94.148438 L 27.859375 171.207031 C 27.878906 171.414062 27.96875 171.589844 28.121094 171.730469 C 28.277344 171.871094 28.460938 171.945312 28.667969 171.949219 C 29.335938 171.367188 30 170.800781 30.667969 170.253906 C 31.34375 169.703125 32.066406 169.226562 32.832031 168.8125 C 35.585938 167.351562 37.476562 166.269531 38.5 165.566406 C 38.84375 165.300781 39.082031 164.960938 39.210938 164.542969 C 39.3125 164.148438 39.359375 163.75 39.347656 163.339844 C 39.359375 162.890625 39.476562 162.46875 39.703125 162.082031 C 39.800781 161.914062 39.921875 161.890625 40.066406 162.027344 C 40.34375 162.289062 40.507812 162.609375 40.554688 162.988281 L 40.554688 145.894531 L 40.617188 137.332031 L 40.910156 122.976562 L 38.011719 120.941406 C 37.945312 120.890625 37.910156 120.824219 37.910156 120.738281 C 37.910156 120.65625 37.945312 120.585938 38.011719 120.535156 L 40.554688 118.34375 L 40.601562 88.828125 L 40.601562 76.84375 C 40.601562 76.664062 40.648438 76.5 40.742188 76.351562 L 40.941406 76.03125 C 41.078125 75.796875 41.257812 75.605469 41.484375 75.457031 C 46.105469 72.941406 50.570312 70.15625 55 67.695312 C 62.914062 63.308594 70.921875 58.429688 78.984375 53.785156 C 86.339844 49.539062 94.179688 44.925781 102.503906 39.941406 C 104.230469 38.90625 106.050781 37.84375 107.964844 36.75 C 108.128906 36.65625 108.289062 36.65625 108.453125 36.75 L 175.167969 75.949219 L 175.457031 76.226562 C 175.597656 76.351562 175.667969 76.507812 175.664062 76.695312 L 175.695312 85.839844 L 175.695312 118.03125 C 176.246094 118.914062 176.988281 119.578125 177.921875 120.027344 C 177.996094 120.074219 178.050781 120.136719 178.09375 120.210938 C 178.132812 120.285156 178.15625 120.363281 178.160156 120.449219 C 178.167969 120.535156 178.152344 120.617188 178.117188 120.695312 C 178.082031 120.773438 178.03125 120.839844 177.96875 120.894531 L 174.761719 123.226562 C 174.792969 123.496094 174.886719 123.636719 175.042969 123.644531 C 175.226562 123.652344 175.382812 123.722656 175.511719 123.859375 C 175.636719 123.996094 175.699219 124.15625 175.695312 124.339844 C 175.667969 130.589844 175.667969 136.363281 175.695312 141.664062 L 175.65625 160.542969 L 188.019531 169.136719 C 188.109375 168.238281 188.160156 167.367188 188.167969 166.523438 C 188.425781 146.046875 188.515625 125.566406 188.445312 105.085938 C 188.445312 100.296875 188.445312 95.507812 188.445312 90.722656 L 188.273438 69.945312 L 108.890625 23.023438 C 108.671875 22.894531 108.4375 22.832031 108.1875 22.832031 C 107.933594 22.832031 107.699219 22.894531 107.484375 23.023438 C 85.246094 36.214844 62.835938 49.261719 40.246094 62.15625 C 35.945312 64.597656 31.78125 67.25 27.753906 70.121094 Z M 27.945312 94.148438 " fill-opacity="1" fill-rule="nonzero"/><path fill="#6b7fd7" d="M 41.152344 75.980469 C 45.328125 78.453125 49.652344 80.617188 54.128906 82.476562 C 56.742188 80.671875 59.324219 79.050781 61.871094 77.605469 C 76.652344 69.125 91.359375 60.535156 105.996094 51.828125 C 106.632812 51.445312 107.289062 51.097656 107.964844 50.785156 C 108.460938 50.566406 108.9375 50.59375 109.402344 50.871094 L 162.519531 82.464844 C 164.242188 82.144531 165.839844 81.507812 167.308594 80.550781 C 169.09375 79.4375 171.796875 77.890625 175.421875 75.902344 L 108.734375 36.699219 C 108.570312 36.605469 108.410156 36.605469 108.246094 36.699219 C 106.328125 37.78125 104.507812 38.847656 102.785156 39.894531 C 94.460938 44.882812 86.621094 49.496094 79.265625 53.734375 C 71.203125 58.378906 63.195312 63.261719 55.28125 67.644531 C 50.835938 70.109375 46.371094 72.890625 41.765625 75.410156 C 41.515625 75.550781 41.3125 75.742188 41.152344 75.980469 Z M 41.152344 75.980469 " fill-opacity="1" fill-rule="nonzero"/><path fill="#161b33" d="M 53.84375 82.347656 C 54.234375 85.554688 54.328125 88.773438 54.117188 92 L 54.265625 109.054688 C 55.308594 108.148438 56.019531 107.035156 56.394531 105.703125 C 57.023438 103.695312 57.367188 102.625 57.429688 102.457031 C 59.949219 96.460938 62.578125 90.40625 65.304688 84.285156 C 65.628906 83.691406 66.109375 83.277344 66.742188 83.046875 C 68.226562 82.359375 69.777344 81.671875 71.167969 80.847656 C 83.835938 73.269531 95.652344 66.773438 107.847656 59.488281 C 108.117188 59.324219 108.390625 59.324219 108.664062 59.488281 C 120.683594 66.621094 133.332031 74.050781 146.613281 81.769531 C 147.570312 82.316406 148.550781 82.808594 149.558594 83.25 C 150.808594 83.820312 151.246094 84.917969 151.789062 86.0625 C 153.925781 90.585938 155.894531 94.992188 157.695312 99.273438 C 158.28125 100.652344 158.898438 102.277344 159.546875 104.144531 C 160.109375 105.777344 160.757812 107.375 161.492188 108.9375 C 162.023438 104.332031 162.183594 99.71875 161.980469 95.089844 L 162.21875 82.351562 L 109.128906 50.703125 C 108.664062 50.425781 108.183594 50.398438 107.6875 50.617188 C 107.015625 50.929688 106.359375 51.277344 105.722656 51.660156 C 91.078125 60.367188 76.371094 68.957031 61.597656 77.4375 C 59.042969 78.917969 56.460938 80.554688 53.84375 82.347656 Z M 53.84375 82.347656 " fill-opacity="1" fill-rule="nonzero"/><g clip-path="url(#d5231f16b5)"><path fill="#52618e" d="M 13.128906 62.527344 C 12.914062 62.660156 12.8125 62.851562 12.816406 63.105469 C 12.839844 68.25 12.859375 73.324219 12.875 78.332031 C 14.976562 79.617188 16.902344 81.128906 18.65625 82.855469 C 19.335938 83.476562 19.984375 84.128906 20.597656 84.816406 C 20.710938 84.949219 20.855469 85.039062 21.023438 85.085938 C 21.273438 85.148438 21.410156 85.304688 21.433594 85.5625 C 22.710938 87.007812 23.972656 88.449219 25.21875 89.894531 C 26.316406 91.171875 27.230469 92.566406 27.960938 94.082031 L 27.78125 70.070312 C 23.320312 68.179688 18.96875 66.054688 14.734375 63.695312 C 14.195312 63.378906 13.75 62.800781 13.128906 62.527344 Z M 13.128906 62.527344 " fill-opacity="1" fill-rule="nonzero"/></g><path fill="#52618e" d="M 203.304688 62.71875 C 202.109375 62.859375 200.964844 63.167969 199.871094 63.65625 C 195.542969 66.183594 192.621094 67.859375 191.101562 68.691406 C 190.203125 69.148438 189.265625 69.492188 188.28125 69.71875 L 188.472656 90.492188 L 188.570312 90.164062 C 188.578125 90.136719 188.59375 90.117188 188.625 90.109375 C 188.683594 90.109375 188.726562 90.109375 188.742188 90.152344 C 188.757812 90.195312 188.792969 90.21875 188.816406 90.152344 C 189.015625 89.667969 189.351562 89.320312 189.835938 89.113281 C 190.289062 88.921875 190.695312 88.660156 191.0625 88.328125 C 191.542969 87.886719 192.039062 87.46875 192.554688 87.074219 C 192.621094 87.019531 192.699219 86.980469 192.785156 86.964844 C 192.855469 86.949219 192.925781 86.941406 192.996094 86.9375 C 193.171875 86.933594 193.324219 86.875 193.460938 86.769531 C 195.277344 85.429688 196.910156 83.890625 198.355469 82.15625 C 198.59375 81.859375 198.878906 81.609375 199.203125 81.40625 C 199.335938 81.332031 199.4375 81.230469 199.507812 81.097656 C 200.171875 80.011719 201.03125 79.109375 202.082031 78.390625 C 202.496094 78.089844 202.765625 77.691406 202.886719 77.195312 C 203.089844 76.441406 203.15625 75.679688 203.074219 74.90625 C 203.066406 74.890625 203.066406 74.875 203.074219 74.863281 C 203.074219 74.863281 203.113281 74.863281 203.121094 74.863281 C 203.121094 74.878906 203.121094 74.894531 203.121094 74.910156 C 203.085938 75.515625 203.117188 76.117188 203.214844 76.71875 Z M 203.304688 62.71875 " fill-opacity="1" fill-rule="nonzero"/><path fill="#6b7fd7" d="M 188.472656 90.5 C 188.472656 95.3125 188.472656 100.121094 188.472656 104.925781 C 188.539062 125.492188 188.449219 146.0625 188.195312 166.632812 C 188.195312 167.480469 188.136719 168.355469 188.046875 169.257812 L 202.617188 179.238281 C 202.722656 179.3125 202.835938 179.316406 202.953125 179.257812 C 203.066406 179.199219 203.125 179.105469 203.128906 178.972656 L 203.238281 76.6875 C 203.140625 76.085938 203.109375 75.480469 203.140625 74.871094 C 203.144531 74.855469 203.144531 74.839844 203.140625 74.824219 C 203.140625 74.824219 203.140625 74.796875 203.097656 74.824219 C 203.089844 74.839844 203.089844 74.851562 203.097656 74.867188 C 203.175781 75.644531 203.113281 76.414062 202.910156 77.167969 C 202.785156 77.667969 202.515625 78.066406 202.101562 78.367188 C 201.050781 79.085938 200.191406 79.988281 199.527344 81.074219 C 199.457031 81.207031 199.355469 81.308594 199.226562 81.382812 C 198.898438 81.585938 198.617188 81.835938 198.378906 82.136719 C 196.929688 83.875 195.300781 85.421875 193.484375 86.769531 C 193.347656 86.875 193.191406 86.933594 193.019531 86.9375 C 192.949219 86.941406 192.878906 86.949219 192.808594 86.964844 C 192.722656 86.980469 192.644531 87.019531 192.574219 87.074219 C 192.0625 87.46875 191.566406 87.890625 191.082031 88.335938 C 190.71875 88.664062 190.308594 88.925781 189.855469 89.121094 C 189.375 89.328125 189.035156 89.675781 188.839844 90.164062 C 188.8125 90.222656 188.792969 90.222656 188.765625 90.164062 C 188.738281 90.105469 188.703125 90.105469 188.644531 90.121094 C 188.617188 90.128906 188.597656 90.144531 188.589844 90.175781 Z M 188.472656 90.5 " fill-opacity="1" fill-rule="nonzero"/><path fill="#52618e" d="M 175.167969 75.902344 C 171.5625 77.894531 168.859375 79.441406 167.054688 80.550781 C 165.585938 81.507812 163.988281 82.144531 162.265625 82.464844 L 162.027344 95.203125 L 165.027344 93.464844 C 165.179688 93.378906 165.339844 93.335938 165.515625 93.332031 C 165.753906 93.324219 165.964844 93.246094 166.148438 93.09375 C 167.359375 92.160156 168.511719 91.164062 169.613281 90.105469 L 169.660156 90.0625 L 175.695312 85.789062 L 175.664062 76.648438 C 175.667969 76.460938 175.597656 76.300781 175.457031 76.175781 Z M 175.167969 75.902344 " fill-opacity="1" fill-rule="nonzero"/><path fill="#161b33" d="M 66.277344 101.714844 C 71.21875 90.53125 79.128906 83.453125 90.609375 78.273438 C 93.8125 76.875 97.132812 75.882812 100.578125 75.300781 C 104.019531 74.714844 107.484375 74.554688 110.964844 74.816406 C 130.753906 76.316406 148.082031 89.71875 152.863281 109.261719 C 155.746094 121.058594 154.125 132.570312 147.996094 143.800781 C 147.0625 145.378906 145.996094 146.867188 144.808594 148.265625 C 144.726562 148.367188 144.699219 148.480469 144.71875 148.605469 C 144.738281 148.734375 144.800781 148.832031 144.902344 148.90625 L 165.203125 162.886719 C 165.28125 162.941406 165.324219 163.015625 165.339844 163.109375 C 165.351562 163.203125 165.332031 163.289062 165.273438 163.363281 C 162.15625 167.238281 158.878906 171.027344 155.429688 174.730469 C 155.382812 174.800781 155.316406 174.835938 155.230469 174.835938 C 155.144531 174.835938 155.078125 174.800781 155.03125 174.730469 L 152.664062 172.285156 L 137.523438 156.492188 C 137.476562 156.429688 137.410156 156.394531 137.332031 156.386719 C 137.253906 156.378906 137.183594 156.402344 137.125 156.457031 C 132.554688 159.816406 127.578125 162.394531 122.203125 164.195312 C 118.464844 165.398438 114.636719 166.113281 110.71875 166.335938 C 106.804688 166.5625 102.917969 166.289062 99.070312 165.523438 C 83.820312 161.992188 70.957031 151.449219 65.371094 136.617188 C 60.929688 124.78125 61.234375 113.148438 66.277344 101.714844 Z M 108.273438 154.554688 C 109.382812 154.554688 110.492188 154.5 111.597656 154.394531 C 112.699219 154.285156 113.796875 154.121094 114.886719 153.902344 C 115.976562 153.6875 117.050781 153.417969 118.113281 153.09375 C 119.175781 152.773438 120.222656 152.398438 121.246094 151.972656 C 122.273438 151.546875 123.273438 151.074219 124.253906 150.546875 C 125.234375 150.023438 126.183594 149.453125 127.109375 148.835938 C 128.03125 148.21875 128.921875 147.558594 129.78125 146.851562 C 130.636719 146.148438 131.460938 145.402344 132.246094 144.617188 C 133.03125 143.828125 133.773438 143.007812 134.480469 142.148438 C 135.183594 141.289062 135.84375 140.398438 136.460938 139.472656 C 137.078125 138.546875 137.648438 137.597656 138.171875 136.617188 C 138.695312 135.636719 139.167969 134.632812 139.59375 133.605469 C 140.019531 132.578125 140.390625 131.53125 140.714844 130.46875 C 141.035156 129.40625 141.304688 128.328125 141.523438 127.238281 C 141.738281 126.148438 141.902344 125.050781 142.011719 123.945312 C 142.121094 122.835938 142.175781 121.730469 142.175781 120.617188 C 142.175781 119.503906 142.121094 118.398438 142.011719 117.289062 C 141.902344 116.183594 141.738281 115.085938 141.523438 113.996094 C 141.304688 112.90625 141.035156 111.828125 140.714844 110.765625 C 140.390625 109.703125 140.019531 108.65625 139.59375 107.628906 C 139.167969 106.601562 138.695312 105.597656 138.171875 104.617188 C 137.648438 103.636719 137.078125 102.6875 136.460938 101.761719 C 135.84375 100.835938 135.183594 99.945312 134.480469 99.085938 C 133.773438 98.226562 133.03125 97.40625 132.246094 96.617188 C 131.460938 95.832031 130.636719 95.085938 129.78125 94.382812 C 128.921875 93.675781 128.03125 93.015625 127.109375 92.398438 C 126.183594 91.78125 125.234375 91.210938 124.253906 90.683594 C 123.273438 90.160156 122.273438 89.6875 121.246094 89.261719 C 120.222656 88.835938 119.175781 88.460938 118.113281 88.140625 C 117.050781 87.816406 115.976562 87.546875 114.886719 87.328125 C 113.796875 87.113281 112.699219 86.949219 111.597656 86.839844 C 110.492188 86.730469 109.382812 86.679688 108.273438 86.679688 C 107.164062 86.679688 106.054688 86.730469 104.949219 86.839844 C 103.84375 86.949219 102.75 87.113281 101.660156 87.328125 C 100.570312 87.546875 99.496094 87.816406 98.433594 88.140625 C 97.371094 88.460938 96.324219 88.835938 95.300781 89.261719 C 94.273438 89.6875 93.273438 90.160156 92.292969 90.683594 C 91.3125 91.210938 90.363281 91.78125 89.4375 92.398438 C 88.515625 93.015625 87.625 93.675781 86.765625 94.382812 C 85.910156 95.085938 85.085938 95.832031 84.300781 96.617188 C 83.515625 97.40625 82.773438 98.226562 82.066406 99.085938 C 81.363281 99.945312 80.703125 100.835938 80.085938 101.761719 C 79.46875 102.6875 78.898438 103.636719 78.375 104.617188 C 77.851562 105.597656 77.378906 106.601562 76.953125 107.628906 C 76.527344 108.65625 76.15625 109.703125 75.832031 110.765625 C 75.511719 111.828125 75.242188 112.90625 75.023438 113.996094 C 74.808594 115.085938 74.644531 116.183594 74.535156 117.289062 C 74.425781 118.398438 74.371094 119.503906 74.371094 120.617188 C 74.371094 121.730469 74.425781 122.835938 74.535156 123.945312 C 74.644531 125.050781 74.808594 126.148438 75.023438 127.238281 C 75.242188 128.328125 75.511719 129.40625 75.832031 130.46875 C 76.15625 131.53125 76.527344 132.578125 76.953125 133.605469 C 77.378906 134.632812 77.851562 135.636719 78.375 136.617188 C 78.898438 137.597656 79.46875 138.546875 80.085938 139.472656 C 80.703125 140.398438 81.363281 141.289062 82.066406 142.148438 C 82.773438 143.007812 83.515625 143.828125 84.300781 144.617188 C 85.085938 145.402344 85.910156 146.148438 86.765625 146.851562 C 87.625 147.558594 88.515625 148.21875 89.4375 148.835938 C 90.363281 149.453125 91.3125 150.023438 92.292969 150.546875 C 93.273438 151.074219 94.273438 151.546875 95.300781 151.972656 C 96.324219 152.398438 97.371094 152.773438 98.433594 153.09375 C 99.496094 153.417969 100.570312 153.6875 101.660156 153.902344 C 102.75 154.121094 103.84375 154.285156 104.949219 154.394531 C 106.054688 154.5 107.164062 154.554688 108.273438 154.554688 Z M 108.273438 154.554688 " fill-opacity="1" fill-rule="nonzero"/><path fill="#52618e" d="M 40.933594 75.980469 L 40.730469 76.300781 C 40.636719 76.453125 40.589844 76.617188 40.589844 76.792969 L 40.589844 88.792969 C 41.070312 88.839844 41.550781 88.90625 42.023438 89 C 42.503906 89.082031 42.925781 89.28125 43.292969 89.59375 C 43.886719 90.105469 44.539062 90.53125 45.242188 90.871094 C 46.199219 91.339844 47.125 91.867188 48.015625 92.453125 C 48.667969 92.898438 49.390625 93.078125 50.175781 92.996094 C 50.84375 92.847656 51.492188 92.648438 52.125 92.386719 C 52.792969 92.136719 53.484375 92.042969 54.195312 92.105469 C 54.402344 88.882812 54.308594 85.664062 53.917969 82.457031 C 49.4375 80.605469 45.109375 78.445312 40.933594 75.980469 Z M 40.933594 75.980469 " fill-opacity="1" fill-rule="nonzero"/><g clip-path="url(#a7956cf388)"><path fill="#6b7fd7" d="M 12.875 78.308594 C 12.84375 111.449219 12.84375 144.515625 12.875 177.519531 C 12.871094 177.816406 12.925781 178.101562 13.050781 178.375 C 13.285156 178.859375 13.53125 179.054688 13.773438 178.957031 C 16.269531 177.332031 18.75 175.871094 21.21875 174.578125 L 27.835938 171.136719 L 27.921875 94.078125 C 27.191406 92.5625 26.277344 91.164062 25.183594 89.886719 C 23.945312 88.425781 22.683594 86.984375 21.398438 85.558594 C 21.375 85.300781 21.238281 85.140625 20.984375 85.082031 C 20.816406 85.035156 20.671875 84.945312 20.558594 84.808594 C 19.945312 84.125 19.296875 83.472656 18.617188 82.851562 C 16.875 81.117188 14.960938 79.605469 12.875 78.308594 Z M 12.875 78.308594 " fill-opacity="1" fill-rule="nonzero"/></g><path fill="#6b7fd7" d="M 175.691406 85.789062 L 169.65625 90.0625 L 169.609375 90.105469 C 168.507812 91.164062 167.351562 92.160156 166.140625 93.09375 C 165.957031 93.246094 165.746094 93.324219 165.507812 93.332031 C 165.335938 93.335938 165.171875 93.378906 165.023438 93.464844 L 162.039062 95.203125 C 162.238281 99.835938 162.066406 104.453125 161.53125 109.054688 L 175.679688 117.980469 Z M 175.691406 85.789062 " fill-opacity="1" fill-rule="nonzero"/><path fill="#6b7fd7" d="M 40.589844 88.792969 L 40.542969 118.3125 L 54.324219 109.164062 L 54.179688 92.105469 C 53.464844 92.042969 52.777344 92.136719 52.109375 92.386719 C 51.476562 92.648438 50.828125 92.847656 50.160156 92.996094 C 49.375 93.078125 48.652344 92.898438 48 92.453125 C 47.109375 91.867188 46.183594 91.339844 45.226562 90.871094 C 44.519531 90.53125 43.871094 90.105469 43.277344 89.59375 C 42.910156 89.28125 42.484375 89.082031 42.007812 89 C 41.539062 88.90625 41.066406 88.839844 40.589844 88.792969 Z M 40.589844 88.792969 " fill-opacity="1" fill-rule="nonzero"/><path fill="#161b33" d="M 111.75 104.769531 C 117.464844 106.03125 121.648438 109.363281 124.300781 114.761719 C 125.160156 116.601562 125.625 118.539062 125.695312 120.566406 C 125.933594 125.011719 132.09375 125.980469 133.386719 121.492188 C 133.988281 119.40625 133.226562 116.542969 132.566406 114.375 C 131.785156 111.765625 130.597656 109.351562 129.003906 107.144531 C 127.40625 104.933594 125.492188 103.046875 123.261719 101.488281 C 120.28125 99.351562 114.199219 96.101562 110.824219 97.855469 C 110.472656 98.019531 110.160156 98.238281 109.875 98.503906 C 109.59375 98.769531 109.359375 99.074219 109.175781 99.414062 C 108.988281 99.757812 108.863281 100.117188 108.792969 100.5 C 108.722656 100.882812 108.710938 101.265625 108.761719 101.648438 C 108.816406 102.035156 108.925781 102.402344 109.09375 102.753906 C 109.261719 103.101562 109.480469 103.417969 109.746094 103.699219 C 110.015625 103.976562 110.320312 104.210938 110.664062 104.390625 C 111.007812 104.574219 111.367188 104.699219 111.75 104.769531 Z M 111.75 104.769531 " fill-opacity="1" fill-rule="nonzero"/><path fill="#4d566d" d="M 40.910156 122.945312 L 40.617188 137.300781 C 40.660156 136.9375 40.808594 136.714844 41.050781 136.640625 C 41.285156 136.601562 41.492188 136.664062 41.667969 136.824219 C 44.65625 138.925781 47.210938 140.269531 49.339844 140.851562 C 51.019531 141.257812 52.644531 141.832031 54.207031 142.578125 L 55.003906 131.539062 Z M 40.910156 122.945312 " fill-opacity="1" fill-rule="nonzero"/><path fill="#52618e" d="M 174.734375 123.238281 L 161.65625 131.460938 C 161.761719 131.472656 161.824219 131.53125 161.84375 131.636719 C 161.894531 131.808594 161.875 131.972656 161.777344 132.125 C 161.570312 132.429688 161.496094 132.765625 161.550781 133.132812 C 161.917969 135.691406 162.042969 138.265625 161.929688 140.851562 C 161.816406 144.011719 161.765625 147.164062 161.777344 150.3125 C 161.800781 150.664062 161.71875 150.984375 161.53125 151.28125 C 161.648438 151.324219 161.75 151.394531 161.828125 151.492188 L 162.050781 149.691406 C 162.046875 149.609375 162.078125 149.542969 162.136719 149.488281 C 162.199219 149.4375 162.265625 149.414062 162.347656 149.425781 C 162.546875 149.429688 162.707031 149.351562 162.828125 149.1875 C 163.996094 147.675781 165.464844 146.5625 167.230469 145.835938 C 168.207031 145.347656 169.140625 144.785156 170.023438 144.140625 C 170.683594 143.675781 171.300781 143.160156 171.875 142.589844 C 173.234375 141.28125 174.507812 140.980469 175.691406 141.691406 C 175.648438 136.382812 175.648438 130.609375 175.691406 124.367188 C 175.695312 124.183594 175.632812 124.023438 175.503906 123.886719 C 175.378906 123.75 175.222656 123.679688 175.035156 123.671875 C 174.859375 123.632812 174.765625 123.492188 174.734375 123.238281 Z M 174.734375 123.238281 " fill-opacity="1" fill-rule="nonzero"/><path fill="#4d566d" d="M 161.671875 131.441406 C 161.066406 131.617188 160.734375 131.945312 160.6875 132.433594 C 160.113281 137.769531 158.339844 142.3125 156.238281 147.125 C 156.179688 147.246094 156.167969 147.375 156.203125 147.503906 C 156.242188 147.636719 156.316406 147.738281 156.429688 147.8125 L 161.546875 151.265625 C 161.734375 150.96875 161.816406 150.644531 161.796875 150.296875 C 161.796875 147.148438 161.84375 143.996094 161.945312 140.835938 C 162.058594 138.25 161.933594 135.675781 161.566406 133.117188 C 161.511719 132.75 161.585938 132.414062 161.796875 132.109375 C 161.890625 131.957031 161.914062 131.792969 161.859375 131.621094 C 161.839844 131.515625 161.777344 131.457031 161.671875 131.441406 Z M 161.671875 131.441406 " fill-opacity="1" fill-rule="nonzero"/><path fill="#161b33" d="M 54.886719 131.539062 L 54.085938 142.578125 L 53.925781 152.464844 L 53.953125 158.484375 C 53.957031 158.816406 54.039062 159.125 54.199219 159.410156 C 54.359375 159.699219 54.578125 159.933594 54.855469 160.109375 C 59.15625 162.855469 63.144531 165.359375 66.820312 167.621094 C 79.242188 175.199219 90.921875 182.28125 101.867188 188.863281 C 103.945312 190.113281 105.929688 191.238281 107.8125 192.242188 C 108.011719 192.335938 108.222656 192.390625 108.441406 192.410156 L 130.496094 179.417969 L 138.953125 174.003906 C 139.144531 173.882812 139.355469 173.832031 139.582031 173.859375 C 139.808594 173.886719 140.003906 173.980469 140.164062 174.144531 C 140.601562 174.59375 141.011719 174.757812 141.402344 174.632812 L 135.695312 168.425781 C 135.574219 168.289062 135.421875 168.199219 135.246094 168.15625 C 135.070312 168.113281 134.894531 168.121094 134.722656 168.179688 C 134.238281 168.351562 133.777344 168.566406 133.332031 168.824219 C 125.226562 173.609375 116.886719 178.449219 108.3125 183.34375 C 108.082031 183.472656 107.851562 183.472656 107.617188 183.34375 L 92.042969 174.335938 L 65.550781 158.476562 C 65.140625 158.230469 64.839844 157.890625 64.652344 157.453125 C 62.734375 152.996094 60.820312 148.511719 58.914062 144 C 57.257812 140.300781 56.160156 136.441406 55.628906 132.421875 C 55.589844 132.109375 55.347656 131.828125 54.886719 131.539062 Z M 54.886719 131.539062 " fill-opacity="1" fill-rule="nonzero"/><path fill="#52618e" d="M 40.617188 137.308594 L 40.554688 145.875 C 41.378906 145.667969 41.960938 145.875 42.300781 146.523438 C 42.386719 146.679688 42.503906 146.808594 42.652344 146.914062 C 43.347656 147.386719 44.066406 147.820312 44.8125 148.207031 C 45.476562 148.535156 46.078125 148.953125 46.621094 149.457031 L 48.242188 151.015625 C 48.621094 151.308594 49.019531 151.574219 49.4375 151.8125 C 49.578125 151.914062 49.738281 151.976562 49.914062 151.996094 L 54.066406 152.476562 L 54.226562 142.589844 C 52.664062 141.84375 51.042969 141.269531 49.359375 140.863281 C 47.238281 140.285156 44.679688 138.941406 41.6875 136.835938 C 41.511719 136.671875 41.308594 136.613281 41.074219 136.648438 C 40.808594 136.714844 40.660156 136.9375 40.617188 137.308594 Z M 40.617188 137.308594 " fill-opacity="1" fill-rule="nonzero"/><path fill="#6b7fd7" d="M 161.84375 151.53125 L 175.667969 160.585938 L 175.707031 141.707031 C 174.523438 140.984375 173.253906 141.285156 171.890625 142.605469 C 171.316406 143.175781 170.703125 143.691406 170.039062 144.15625 C 169.15625 144.800781 168.222656 145.363281 167.246094 145.851562 C 165.476562 146.582031 164.011719 147.703125 162.84375 149.21875 C 162.726562 149.382812 162.566406 149.460938 162.363281 149.457031 C 162.285156 149.449219 162.214844 149.46875 162.152344 149.523438 C 162.09375 149.574219 162.066406 149.640625 162.066406 149.722656 Z M 161.84375 151.53125 " fill-opacity="1" fill-rule="nonzero"/><path fill="#6b7fd7" d="M 40.554688 145.863281 L 40.554688 162.957031 L 40.769531 165.058594 C 40.785156 165.246094 40.875 165.390625 41.039062 165.484375 L 107.910156 205.960938 L 108.226562 192.867188 C 108.226562 192.71875 108.289062 192.601562 108.417969 192.523438 L 108.609375 192.402344 C 108.390625 192.386719 108.179688 192.332031 107.980469 192.234375 C 106.101562 191.230469 104.117188 190.105469 102.035156 188.859375 C 91.074219 182.28125 79.390625 175.199219 66.976562 167.621094 C 63.277344 165.367188 59.28125 162.871094 54.984375 160.132812 C 54.707031 159.953125 54.488281 159.722656 54.328125 159.433594 C 54.167969 159.144531 54.085938 158.835938 54.082031 158.507812 L 54.054688 152.488281 L 49.902344 152.007812 C 49.726562 151.984375 49.570312 151.925781 49.425781 151.824219 C 49.007812 151.585938 48.609375 151.320312 48.230469 151.027344 L 46.609375 149.46875 C 46.066406 148.964844 45.464844 148.546875 44.804688 148.21875 C 44.054688 147.832031 43.335938 147.398438 42.640625 146.925781 C 42.492188 146.820312 42.375 146.691406 42.289062 146.535156 C 41.949219 145.875 41.378906 145.65625 40.554688 145.863281 Z M 40.554688 145.863281 " fill-opacity="1" fill-rule="nonzero"/><path fill="#161b33" d="M 28.667969 172.007812 L 108.074219 220.300781 L 157.476562 191.441406 L 148.917969 182.367188 L 138.140625 188.734375 C 129.128906 194.089844 120.105469 199.410156 111.074219 204.703125 C 110.097656 205.339844 109.042969 205.789062 107.910156 206.054688 L 41.078125 165.578125 C 40.914062 165.480469 40.824219 165.339844 40.808594 165.148438 L 40.589844 163.050781 C 40.546875 162.667969 40.382812 162.347656 40.105469 162.085938 C 39.957031 161.949219 39.839844 161.972656 39.742188 162.140625 C 39.515625 162.53125 39.394531 162.949219 39.386719 163.402344 C 39.394531 163.808594 39.351562 164.207031 39.25 164.601562 C 39.121094 165.019531 38.882812 165.359375 38.535156 165.625 C 37.507812 166.320312 35.621094 167.402344 32.871094 168.875 C 32.105469 169.285156 31.382812 169.765625 30.707031 170.3125 C 30 170.871094 29.335938 171.410156 28.667969 172.007812 Z M 28.667969 172.007812 " fill-opacity="1" fill-rule="nonzero"/><path fill="#161b33" d="M 162.253906 183.253906 L 177.773438 199.285156 C 177.878906 199.398438 178.011719 199.453125 178.167969 199.453125 C 178.324219 199.453125 178.453125 199.398438 178.5625 199.285156 L 192.175781 183.757812 C 192.277344 183.640625 192.320312 183.503906 192.300781 183.347656 C 192.285156 183.191406 192.214844 183.066406 192.089844 182.972656 L 174.316406 169.835938 C 174.207031 169.757812 174.082031 169.726562 173.945312 169.738281 C 173.808594 169.753906 173.695312 169.8125 173.605469 169.914062 L 162.25 182.546875 C 162.160156 182.648438 162.117188 182.765625 162.121094 182.902344 C 162.121094 183.035156 162.164062 183.15625 162.253906 183.253906 Z M 162.253906 183.253906 " fill-opacity="1" fill-rule="nonzero"/><g clip-path="url(#355df5ab70)"><path fill="#586aaf" d="M 27.46875 171.15625 C 25.285156 172.285156 23.054688 173.433594 20.78125 174.609375 C 18.28125 175.910156 15.773438 177.375 13.253906 179.007812 L 108.050781 235.902344 L 108.34375 235.730469 C 108.515625 235.636719 108.597656 235.492188 108.59375 235.296875 L 108.59375 220.378906 L 28.289062 171.898438 C 28.078125 171.898438 27.894531 171.828125 27.738281 171.683594 C 27.582031 171.542969 27.492188 171.367188 27.46875 171.15625 Z M 27.46875 171.15625 " fill-opacity="1" fill-rule="nonzero"/></g><path fill="#52618e" d="M 130.621094 179.351562 C 131.855469 180.523438 132.847656 181.875 133.589844 183.40625 C 133.667969 183.574219 133.78125 183.710938 133.929688 183.824219 C 134.183594 184.019531 134.351562 184.273438 134.441406 184.582031 C 134.492188 184.746094 134.582031 184.882812 134.707031 185 C 134.988281 185.25 135.242188 185.53125 135.46875 185.832031 C 136.023438 186.59375 136.707031 187.210938 137.519531 187.6875 L 137.863281 187.828125 C 138.15625 187.941406 138.238281 188.203125 138.113281 188.609375 L 148.917969 182.238281 L 147.433594 180.742188 L 141.550781 174.550781 C 141.164062 174.675781 140.75 174.511719 140.3125 174.0625 C 140.152344 173.902344 139.960938 173.804688 139.734375 173.777344 C 139.507812 173.753906 139.296875 173.800781 139.101562 173.921875 Z M 130.621094 179.351562 " fill-opacity="1" fill-rule="nonzero"/><path fill="#52618e" d="M 130.621094 179.53125 C 131.855469 180.699219 132.847656 182.050781 133.589844 183.585938 C 133.667969 183.75 133.78125 183.890625 133.929688 184.003906 C 134.183594 184.199219 134.351562 184.453125 134.441406 184.761719 C 134.492188 184.925781 134.582031 185.0625 134.707031 185.175781 C 134.996094 185.433594 135.253906 185.71875 135.484375 186.027344 C 136.039062 186.789062 136.722656 187.40625 137.535156 187.882812 L 137.882812 188.023438 C 138.171875 188.136719 138.253906 188.398438 138.128906 188.804688 L 148.90625 182.445312 L 147.425781 180.949219 L 141.542969 174.757812 C 141.152344 174.882812 140.742188 174.71875 140.304688 174.269531 C 140.144531 174.105469 139.949219 174.011719 139.722656 173.984375 C 139.496094 173.957031 139.285156 174.007812 139.09375 174.128906 Z M 130.621094 179.53125 " fill-opacity="1" fill-rule="nonzero"/><path fill="#6b7fd7" d="M 130.585938 179.386719 L 108.53125 192.375 L 108.34375 192.496094 C 108.214844 192.574219 108.148438 192.691406 108.148438 192.84375 L 107.835938 205.9375 C 108.976562 205.671875 110.035156 205.222656 111.015625 204.582031 C 120.054688 199.289062 129.078125 193.964844 138.082031 188.613281 C 138.207031 188.207031 138.125 187.949219 137.832031 187.835938 L 137.484375 187.695312 C 136.675781 187.214844 135.992188 186.597656 135.4375 185.835938 C 135.210938 185.535156 134.957031 185.257812 134.675781 185.003906 C 134.546875 184.890625 134.460938 184.75 134.410156 184.585938 C 134.320312 184.277344 134.148438 184.027344 133.894531 183.828125 C 133.75 183.71875 133.636719 183.578125 133.554688 183.414062 C 132.8125 181.886719 131.820312 180.546875 130.585938 179.386719 Z M 130.585938 179.386719 " fill-opacity="1" fill-rule="nonzero"/><g clip-path="url(#8876826bcc)"><path fill="#161b33" d="M 211.554688 220.820312 C 211.972656 220.644531 212.378906 220.449219 212.777344 220.230469 C 213.175781 220.011719 213.558594 219.773438 213.933594 219.515625 C 214.304688 219.257812 214.664062 218.980469 215.007812 218.683594 C 215.351562 218.386719 215.683594 218.074219 215.992188 217.746094 C 216.304688 217.417969 216.601562 217.074219 216.878906 216.714844 C 217.152344 216.351562 217.410156 215.980469 217.648438 215.59375 C 217.886719 215.207031 218.105469 214.808594 218.300781 214.402344 C 218.5 213.992188 218.675781 213.574219 218.828125 213.148438 C 218.980469 212.71875 219.113281 212.285156 219.222656 211.84375 C 219.332031 211.40625 219.417969 210.960938 219.480469 210.511719 C 219.542969 210.058594 219.582031 209.609375 219.601562 209.15625 C 219.617188 208.699219 219.609375 208.246094 219.578125 207.792969 C 219.550781 207.339844 219.496094 206.890625 219.417969 206.445312 C 219.34375 205.996094 219.242188 205.554688 219.121094 205.117188 C 219 204.679688 218.855469 204.25 218.6875 203.828125 C 218.519531 203.40625 218.332031 202.992188 218.121094 202.589844 C 217.234375 200.90625 214.957031 198.640625 211.300781 195.796875 C 207.800781 193.078125 204.554688 190.632812 201.566406 188.460938 C 201.492188 188.375 201.417969 188.375 201.339844 188.460938 L 185.742188 205.785156 C 185.664062 205.855469 185.605469 205.9375 185.5625 206.03125 C 185.523438 206.128906 185.503906 206.230469 185.507812 206.332031 C 185.511719 206.4375 185.535156 206.535156 185.582031 206.628906 C 185.628906 206.722656 185.691406 206.800781 185.773438 206.867188 C 188.417969 209.507812 191.171875 212.28125 194.035156 215.179688 C 195.117188 216.289062 196.242188 217.371094 197.410156 218.429688 C 198.347656 219.289062 199.390625 219.996094 200.535156 220.554688 C 201.675781 221.113281 202.875 221.496094 204.128906 221.707031 C 205.382812 221.921875 206.644531 221.953125 207.90625 221.800781 C 209.167969 221.648438 210.382812 221.324219 211.554688 220.820312 Z M 211.554688 220.820312 " fill-opacity="1" fill-rule="nonzero"/></g><g clip-path="url(#ee1a8d9b85)"><path fill="#6b7fd7" d="M 157.476562 191.351562 L 108.074219 220.195312 L 108.074219 235.058594 C 108.082031 235.25 108 235.394531 107.828125 235.492188 L 107.539062 235.664062 C 108.179688 236.339844 109.507812 235.410156 110.105469 235.035156 C 112.042969 233.8125 114.058594 232.582031 116.152344 231.34375 C 131.035156 222.570312 145.902344 213.78125 160.757812 204.972656 C 162.558594 203.917969 164.382812 202.773438 166.230469 201.535156 C 166.332031 201.464844 166.390625 201.367188 166.40625 201.242188 C 166.421875 201.121094 166.386719 201.011719 166.304688 200.917969 Z M 157.476562 191.351562 " fill-opacity="1" fill-rule="nonzero"/></g></svg>