<svg xmlns="http://www.w3.org/2000/svg" xmlns:xlink="http://www.w3.org/1999/xlink" width="1920" zoomAndPan="magnify" viewBox="0 0 1440 809.999993" height="1080" preserveAspectRatio="xMidYMid meet" version="1.0"><defs><clipPath id="49de4f3962"><path d="M 100.371094 161.734375 L 662.871094 161.734375 L 662.871094 648.484375 L 100.371094 648.484375 Z M 100.371094 161.734375 " clip-rule="nonzero"/></clipPath><clipPath id="5d519d65f2"><path d="M 43.242188 112.121094 L 719.667969 112.121094 L 719.667969 697.878906 L 43.242188 697.878906 Z M 43.242188 112.121094 " clip-rule="nonzero"/></clipPath><clipPath id="e850b7dc9f"><path d="M 550.5625 112.121094 L 212.347656 112.121094 L 43.242188 405 L 212.347656 697.878906 L 550.5625 697.878906 L 719.667969 405 Z M 550.5625 112.121094 " clip-rule="nonzero"/></clipPath><clipPath id="9da9f22c22"><path d="M 381.453125 0 L 1440 0 L 1440 810 L 381.453125 810 Z M 381.453125 0 " clip-rule="nonzero"/></clipPath><clipPath id="b2520d32af"><path d="M 1715.410156 405.003906 L 1394.269531 956.960938 L 702.589844 956.960938 L 381.453125 405.003906 L 702.589844 -146.953125 L 1394.269531 -146.953125 Z M 1715.410156 405.003906 " clip-rule="nonzero"/></clipPath><clipPath id="73a73bac99"><path d="M 121.511719 179.902344 L 641.398438 179.902344 L 641.398438 630.097656 L 121.511719 630.097656 Z M 121.511719 179.902344 " clip-rule="nonzero"/></clipPath><clipPath id="f4dff777b5"><path d="M 511.425781 179.902344 L 251.484375 179.902344 L 121.511719 405 L 251.484375 630.097656 L 511.425781 630.097656 L 641.398438 405 Z M 511.425781 179.902344 " clip-rule="nonzero"/></clipPath><clipPath id="f38587404d"><path d="M 1202.914062 0 L 1440 0 L 1440 96.824219 L 1202.914062 96.824219 Z M 1202.914062 0 " clip-rule="nonzero"/></clipPath><clipPath id="a2984b35a2"><path d="M 1558.542969 -316.273438 L 1321.457031 -316.273438 L 1202.914062 -109.726562 L 1321.457031 96.824219 L 1558.542969 96.824219 L 1677.085938 -109.726562 Z M 1552.09375 85.632812 L 1327.90625 85.632812 L 1215.8125 -109.726562 L 1327.90625 -305.085938 L 1552.09375 -305.085938 L 1664.1875 -109.726562 Z M 1552.09375 85.632812 " clip-rule="nonzero"/></clipPath><clipPath id="1ec239d2cf"><path d="M 1202.914062 713.175781 L 1440 713.175781 L 1440 810 L 1202.914062 810 Z M 1202.914062 713.175781 " clip-rule="nonzero"/></clipPath><clipPath id="91b940c20f"><path d="M 1558.542969 713.175781 L 1321.457031 713.175781 L 1202.914062 919.726562 L 1321.457031 1126.273438 L 1558.542969 1126.273438 L 1677.085938 919.726562 Z M 1552.09375 1115.085938 L 1327.90625 1115.085938 L 1215.8125 919.726562 L 1327.90625 724.367188 L 1552.09375 724.367188 L 1664.1875 919.726562 Z M 1552.09375 1115.085938 " clip-rule="nonzero"/></clipPath></defs><rect x="-144" width="1728" fill="#ffffff" y="-80.999999" height="971.999992" fill-opacity="1"/><rect x="-144" width="1728" fill="#161b33" y="-80.999999" height="971.999992" fill-opacity="1"/><g clip-path="url(#49de4f3962)"><path fill="#fffdf2" d="M 241 648.261719 L 100.546875 405 L 241 161.734375 L 521.90625 161.734375 L 662.359375 405 L 521.90625 648.261719 Z M 241 648.261719 " fill-opacity="1" fill-rule="nonzero"/></g><g clip-path="url(#5d519d65f2)"><g clip-path="url(#e850b7dc9f)"><path fill="#6b7ffb" d="M 43.242188 112.121094 L 719.667969 112.121094 L 719.667969 697.878906 L 43.242188 697.878906 Z M 43.242188 112.121094 " fill-opacity="1" fill-rule="nonzero"/></g></g><g clip-path="url(#9da9f22c22)"><g clip-path="url(#b2520d32af)"><path fill="#f5fafa" d="M 1715.410156 -146.953125 L 1715.410156 956.960938 L 381.453125 956.960938 L 381.453125 -146.953125 Z M 1715.410156 -146.953125 " fill-opacity="1" fill-rule="nonzero"/></g></g><g clip-path="url(#73a73bac99)"><g clip-path="url(#f4dff777b5)"><path fill="#ffe066" d="M 121.511719 179.902344 L 641.398438 179.902344 L 641.398438 630.097656 L 121.511719 630.097656 Z M 121.511719 179.902344 " fill-opacity="1" fill-rule="nonzero"/></g></g><g clip-path="url(#f38587404d)"><g clip-path="url(#a2984b35a2)"><path fill="#ffe066" d="M 1202.914062 -316.273438 L 1677.085938 -316.273438 L 1677.085938 96.824219 L 1202.914062 96.824219 Z M 1202.914062 -316.273438 " fill-opacity="1" fill-rule="nonzero"/></g></g><g clip-path="url(#1ec239d2cf)"><g clip-path="url(#91b940c20f)"><path fill="#ffe066" d="M 1202.914062 713.175781 L 1677.085938 713.175781 L 1677.085938 1126.273438 L 1202.914062 1126.273438 Z M 1202.914062 713.175781 " fill-opacity="1" fill-rule="nonzero"/></g></g></svg>