<svg xmlns="http://www.w3.org/2000/svg" xmlns:xlink="http://www.w3.org/1999/xlink" width="736" zoomAndPan="magnify" viewBox="0 0 552 527.249983" height="703" preserveAspectRatio="xMidYMid meet" version="1.0"><defs><clipPath id="1736874d42"><path d="M 24.359375 140 L 144 140 L 144 243 L 24.359375 243 Z M 24.359375 140 " clip-rule="nonzero"/></clipPath><clipPath id="3f933b9e74"><path d="M 106.808594 375.628906 L 225.546875 375.628906 L 225.546875 478.480469 L 106.808594 478.480469 Z M 106.808594 375.628906 " clip-rule="nonzero"/></clipPath><clipPath id="ddca43b688"><path d="M 432.667969 92 L 551.289062 92 L 551.289062 195 L 432.667969 195 Z M 432.667969 92 " clip-rule="nonzero"/></clipPath><clipPath id="7191c1d08f"><path d="M 81 47.933594 L 201 47.933594 L 201 151 L 81 151 Z M 81 47.933594 " clip-rule="nonzero"/></clipPath><clipPath id="1db6de1f0a"><path d="M 0.390625 188 L 120 188 L 120 291 L 0.390625 291 Z M 0.390625 188 " clip-rule="nonzero"/></clipPath><clipPath id="5ec36ab0f4"><path d="M 82.84375 423.5625 L 201.578125 423.5625 L 201.578125 526.410156 L 82.84375 526.410156 Z M 82.84375 423.5625 " clip-rule="nonzero"/></clipPath><clipPath id="3a87380cbf"><path d="M 408.699219 140 L 527.324219 140 L 527.324219 243 L 408.699219 243 Z M 408.699219 140 " clip-rule="nonzero"/></clipPath></defs><path fill="#6b7fd7" d="M 140.433594 282.085938 L 189.425781 282.085938 L 213.921875 239.65625 L 189.425781 197.226562 L 140.433594 197.226562 L 115.9375 239.65625 Z M 194.582031 291.011719 L 135.28125 291.011719 L 105.628906 239.65625 L 135.28125 188.300781 L 194.582031 188.300781 L 224.234375 239.65625 L 194.582031 291.011719 " fill-opacity="1" fill-rule="nonzero"/><path fill="#6b7fd7" d="M 141.65625 187.710938 L 190.648438 187.710938 L 215.144531 145.28125 L 190.648438 102.851562 L 141.65625 102.851562 L 117.160156 145.28125 Z M 195.800781 196.636719 L 136.5 196.636719 L 106.851562 145.28125 L 136.5 93.925781 L 195.800781 93.925781 L 225.453125 145.28125 L 195.800781 196.636719 " fill-opacity="1" fill-rule="nonzero"/><path fill="#6b7fd7" d="M 140.65625 93.785156 L 189.648438 93.785156 L 214.144531 51.359375 L 189.648438 8.929688 L 140.65625 8.929688 L 116.160156 51.359375 Z M 194.804688 102.714844 L 135.503906 102.714844 L 105.851562 51.359375 L 135.503906 0 L 194.804688 0 L 224.453125 51.359375 L 194.804688 102.714844 " fill-opacity="1" fill-rule="nonzero"/><path fill="#6b7fd7" d="M 141.105469 375.449219 L 190.097656 375.449219 L 214.59375 333.019531 L 190.097656 290.589844 L 141.105469 290.589844 L 116.605469 333.019531 Z M 195.25 384.375 L 135.949219 384.375 L 106.296875 333.019531 L 135.949219 281.664062 L 195.25 281.664062 L 224.902344 333.019531 L 195.25 384.375 " fill-opacity="1" fill-rule="nonzero"/><g clip-path="url(#1736874d42)"><path fill="#6b7fd7" d="M 59.480469 233.863281 L 108.472656 233.863281 L 132.96875 191.433594 L 108.472656 149.003906 L 59.480469 149.003906 L 34.984375 191.433594 Z M 113.625 242.792969 L 54.324219 242.792969 L 24.675781 191.433594 L 54.324219 140.078125 L 113.625 140.078125 L 143.277344 191.433594 L 113.625 242.792969 " fill-opacity="1" fill-rule="nonzero"/></g><path fill="#6b7fd7" d="M 222.09375 328.554688 L 271.085938 328.554688 L 295.582031 286.128906 L 271.085938 243.695312 L 222.09375 243.695312 L 197.597656 286.128906 Z M 276.242188 337.484375 L 216.9375 337.484375 L 187.289062 286.128906 L 216.9375 234.769531 L 276.242188 234.769531 L 305.890625 286.128906 L 276.242188 337.484375 " fill-opacity="1" fill-rule="nonzero"/><path fill="#6b7fd7" d="M 221.964844 234.179688 L 270.957031 234.179688 L 295.457031 191.75 L 270.957031 149.320312 L 221.964844 149.320312 L 197.46875 191.75 Z M 276.113281 243.109375 L 216.8125 243.109375 L 187.160156 191.75 L 216.8125 140.394531 L 276.113281 140.394531 L 305.765625 191.75 L 276.113281 243.109375 " fill-opacity="1" fill-rule="nonzero"/><path fill="#6b7fd7" d="M 303.703125 281.347656 L 352.695312 281.347656 L 377.191406 238.917969 L 352.695312 196.488281 L 303.703125 196.488281 L 279.207031 238.917969 Z M 357.851562 290.273438 L 298.546875 290.273438 L 268.894531 238.917969 L 298.546875 187.558594 L 357.851562 187.558594 L 387.5 238.917969 L 357.851562 290.273438 " fill-opacity="1" fill-rule="nonzero"/><path fill="#6b7fd7" d="M 222.960938 422.65625 L 271.953125 422.65625 L 296.449219 380.230469 L 271.953125 337.796875 L 222.960938 337.796875 L 198.464844 380.230469 Z M 277.109375 431.585938 L 217.804688 431.585938 L 188.15625 380.230469 L 217.804688 328.871094 L 277.109375 328.871094 L 306.757812 380.230469 L 277.109375 431.585938 " fill-opacity="1" fill-rule="nonzero"/><g clip-path="url(#3f933b9e74)"><path fill="#6b7fd7" d="M 141.65625 469.550781 L 190.648438 469.550781 L 215.144531 427.121094 L 190.648438 384.691406 L 141.65625 384.691406 L 117.160156 427.121094 Z M 195.804688 478.480469 L 136.503906 478.480469 L 106.851562 427.121094 L 136.503906 375.765625 L 195.804688 375.765625 L 225.453125 427.121094 L 195.804688 478.480469 " fill-opacity="1" fill-rule="nonzero"/></g><path fill="#6b7fd7" d="M 304.570312 375.449219 L 353.5625 375.449219 L 378.058594 333.019531 L 353.5625 290.589844 L 304.570312 290.589844 L 280.074219 333.019531 Z M 358.71875 384.375 L 299.414062 384.375 L 269.765625 333.019531 L 299.414062 281.664062 L 358.71875 281.664062 L 388.367188 333.019531 L 358.71875 384.375 " fill-opacity="1" fill-rule="nonzero"/><path fill="#6b7fd7" d="M 385.234375 233.441406 L 434.226562 233.441406 L 458.722656 191.011719 L 434.226562 148.582031 L 385.234375 148.582031 L 360.738281 191.011719 Z M 439.382812 242.367188 L 380.082031 242.367188 L 350.429688 191.011719 L 380.082031 139.652344 L 439.382812 139.652344 L 469.035156 191.011719 L 439.382812 242.367188 " fill-opacity="1" fill-rule="nonzero"/><path fill="#6b7fd7" d="M 222.515625 139.632812 L 271.507812 139.632812 L 296.003906 97.199219 L 271.507812 54.773438 L 222.515625 54.773438 L 198.019531 97.199219 Z M 276.664062 148.558594 L 217.359375 148.558594 L 187.710938 97.199219 L 217.359375 45.84375 L 276.664062 45.84375 L 306.3125 97.199219 L 276.664062 148.558594 " fill-opacity="1" fill-rule="nonzero"/><path fill="#6b7fd7" d="M 304.253906 186.800781 L 353.246094 186.800781 L 377.742188 144.371094 L 353.246094 101.9375 L 304.253906 101.9375 L 279.753906 144.371094 Z M 358.398438 195.726562 L 299.097656 195.726562 L 269.445312 144.371094 L 299.097656 93.011719 L 358.398438 93.011719 L 388.046875 144.371094 L 358.398438 195.726562 " fill-opacity="1" fill-rule="nonzero"/><g clip-path="url(#ddca43b688)"><path fill="#6b7fd7" d="M 467.492188 185.925781 L 516.484375 185.925781 L 540.984375 143.492188 L 516.484375 101.0625 L 467.492188 101.0625 L 442.992188 143.492188 Z M 521.636719 194.851562 L 462.335938 194.851562 L 432.683594 143.492188 L 462.335938 92.136719 L 521.636719 92.136719 L 551.289062 143.492188 L 521.636719 194.851562 " fill-opacity="1" fill-rule="nonzero"/></g><path fill="#6b7fd7" d="M 385.78125 138.894531 L 434.773438 138.894531 L 459.269531 96.46875 L 434.773438 54.039062 L 385.78125 54.039062 L 361.285156 96.46875 Z M 439.929688 147.820312 L 380.628906 147.820312 L 350.976562 96.46875 L 380.628906 45.109375 L 439.929688 45.109375 L 469.578125 96.46875 L 439.929688 147.820312 " fill-opacity="1" fill-rule="nonzero"/><path fill="#6b7fd7" d="M 116.46875 330.015625 L 165.460938 330.015625 L 189.957031 287.585938 L 165.460938 245.160156 L 116.46875 245.160156 L 91.972656 287.585938 Z M 170.617188 338.945312 L 111.3125 338.945312 L 81.664062 287.585938 L 111.3125 236.230469 L 170.617188 236.230469 L 200.265625 287.585938 L 170.617188 338.945312 " fill-opacity="1" fill-rule="nonzero"/><path fill="#6b7fd7" d="M 117.691406 235.644531 L 166.683594 235.644531 L 191.179688 193.210938 L 166.683594 150.785156 L 117.691406 150.785156 L 93.195312 193.210938 Z M 171.835938 244.570312 L 112.535156 244.570312 L 82.882812 193.210938 L 112.535156 141.855469 L 171.835938 141.855469 L 201.488281 193.210938 L 171.835938 244.570312 " fill-opacity="1" fill-rule="nonzero"/><g clip-path="url(#7191c1d08f)"><path fill="#6b7fd7" d="M 116.691406 141.71875 L 165.683594 141.71875 L 190.179688 99.289062 L 165.683594 56.863281 L 116.691406 56.863281 L 92.195312 99.289062 Z M 170.835938 150.644531 L 111.535156 150.644531 L 81.886719 99.289062 L 111.535156 47.933594 L 170.835938 47.933594 L 200.488281 99.289062 L 170.835938 150.644531 " fill-opacity="1" fill-rule="nonzero"/></g><path fill="#6b7fd7" d="M 117.136719 423.378906 L 166.128906 423.378906 L 190.628906 380.953125 L 166.128906 338.523438 L 117.136719 338.523438 L 92.640625 380.953125 Z M 171.285156 432.308594 L 111.984375 432.308594 L 82.332031 380.953125 L 111.984375 329.59375 L 171.285156 329.59375 L 200.9375 380.953125 L 171.285156 432.308594 " fill-opacity="1" fill-rule="nonzero"/><g clip-path="url(#1db6de1f0a)"><path fill="#6b7fd7" d="M 35.511719 281.796875 L 84.507812 281.796875 L 109.003906 239.367188 L 84.507812 196.9375 L 35.511719 196.9375 L 11.015625 239.367188 Z M 89.660156 290.722656 L 30.359375 290.722656 L 0.707031 239.367188 L 30.359375 188.007812 L 89.660156 188.007812 L 119.3125 239.367188 L 89.660156 290.722656 " fill-opacity="1" fill-rule="nonzero"/></g><path fill="#6b7fd7" d="M 198.128906 376.488281 L 247.117188 376.488281 L 271.617188 334.058594 L 247.117188 291.628906 L 198.128906 291.628906 L 173.628906 334.058594 Z M 252.273438 385.414062 L 192.972656 385.414062 L 163.320312 334.058594 L 192.972656 282.699219 L 252.273438 282.699219 L 281.925781 334.058594 L 252.273438 385.414062 " fill-opacity="1" fill-rule="nonzero"/><path fill="#6b7fd7" d="M 198 282.113281 L 246.992188 282.113281 L 271.488281 239.683594 L 246.992188 197.253906 L 198 197.253906 L 173.503906 239.683594 Z M 252.148438 291.039062 L 192.84375 291.039062 L 163.195312 239.683594 L 192.84375 188.324219 L 252.148438 188.324219 L 281.800781 239.683594 L 252.148438 291.039062 " fill-opacity="1" fill-rule="nonzero"/><path fill="#6b7fd7" d="M 279.734375 329.277344 L 328.730469 329.277344 L 353.226562 286.851562 L 328.730469 244.417969 L 279.734375 244.417969 L 255.238281 286.851562 Z M 333.882812 338.207031 L 274.582031 338.207031 L 244.929688 286.851562 L 274.582031 235.492188 L 333.882812 235.492188 L 363.535156 286.851562 L 333.882812 338.207031 " fill-opacity="1" fill-rule="nonzero"/><path fill="#6b7fd7" d="M 198.996094 470.589844 L 247.988281 470.589844 L 272.484375 428.160156 L 247.988281 385.730469 L 198.996094 385.730469 L 174.5 428.160156 Z M 253.144531 479.515625 L 193.839844 479.515625 L 164.191406 428.160156 L 193.839844 376.804688 L 253.144531 376.804688 L 282.792969 428.160156 L 253.144531 479.515625 " fill-opacity="1" fill-rule="nonzero"/><g clip-path="url(#5ec36ab0f4)"><path fill="#6b7fd7" d="M 117.691406 517.484375 L 166.683594 517.484375 L 191.179688 475.054688 L 166.683594 432.625 L 117.691406 432.625 L 93.195312 475.054688 Z M 171.835938 526.410156 L 112.535156 526.410156 L 82.886719 475.054688 L 112.535156 423.695312 L 171.835938 423.695312 L 201.488281 475.054688 L 171.835938 526.410156 " fill-opacity="1" fill-rule="nonzero"/></g><path fill="#6b7fd7" d="M 280.605469 423.378906 L 329.597656 423.378906 L 354.09375 380.953125 L 329.597656 338.523438 L 280.605469 338.523438 L 256.105469 380.953125 Z M 334.75 432.308594 L 275.449219 432.308594 L 245.796875 380.953125 L 275.449219 329.59375 L 334.75 329.59375 L 364.402344 380.953125 L 334.75 432.308594 " fill-opacity="1" fill-rule="nonzero"/><path fill="#6b7fd7" d="M 361.269531 281.371094 L 410.261719 281.371094 L 434.757812 238.945312 L 410.261719 196.515625 L 361.269531 196.515625 L 336.773438 238.945312 Z M 415.414062 290.300781 L 356.113281 290.300781 L 326.464844 238.945312 L 356.113281 187.585938 L 415.414062 187.585938 L 445.066406 238.945312 L 415.414062 290.300781 " fill-opacity="1" fill-rule="nonzero"/><path fill="#6b7fd7" d="M 198.550781 187.5625 L 247.542969 187.5625 L 272.039062 145.132812 L 247.542969 102.707031 L 198.550781 102.707031 L 174.050781 145.132812 Z M 252.695312 196.492188 L 193.394531 196.492188 L 163.742188 145.132812 L 193.394531 93.777344 L 252.695312 93.777344 L 282.347656 145.132812 L 252.695312 196.492188 " fill-opacity="1" fill-rule="nonzero"/><path fill="#6b7fd7" d="M 280.285156 234.730469 L 329.277344 234.730469 L 353.777344 192.300781 L 329.277344 149.871094 L 280.285156 149.871094 L 255.789062 192.300781 Z M 334.433594 243.65625 L 275.132812 243.65625 L 245.476562 192.300781 L 275.132812 140.945312 L 334.433594 140.945312 L 364.082031 192.300781 L 334.433594 243.65625 " fill-opacity="1" fill-rule="nonzero"/><g clip-path="url(#3a87380cbf)"><path fill="#6b7fd7" d="M 443.527344 233.855469 L 492.519531 233.855469 L 517.015625 191.425781 L 492.519531 148.996094 L 443.527344 148.996094 L 419.027344 191.425781 Z M 497.671875 242.785156 L 438.371094 242.785156 L 408.71875 191.425781 L 438.371094 140.070312 L 497.671875 140.070312 L 527.324219 191.425781 L 497.671875 242.785156 " fill-opacity="1" fill-rule="nonzero"/></g><path fill="#6b7fd7" d="M 361.816406 186.824219 L 410.808594 186.824219 L 435.304688 144.398438 L 410.808594 101.96875 L 361.816406 101.96875 L 337.320312 144.398438 Z M 415.964844 195.753906 L 356.664062 195.753906 L 327.011719 144.398438 L 356.664062 93.039062 L 415.964844 93.039062 L 445.613281 144.398438 L 415.964844 195.753906 " fill-opacity="1" fill-rule="nonzero"/></svg>