<svg xmlns="http://www.w3.org/2000/svg" xmlns:xlink="http://www.w3.org/1999/xlink" width="1920" zoomAndPan="magnify" viewBox="0 0 1440 809.999993" height="1080" preserveAspectRatio="xMidYMid meet" version="1.0"><defs><clipPath id="47c9640b7f"><path d="M 993 245.25 L 998 245.25 L 998 251 L 993 251 Z M 993 245.25 " clip-rule="nonzero"/></clipPath><clipPath id="363d1789e6"><path d="M 541 471 L 625 471 L 625 564.75 L 541 564.75 Z M 541 471 " clip-rule="nonzero"/></clipPath><clipPath id="273003b8fe"><path d="M 918 310 L 1037.25 310 L 1037.25 454 L 918 454 Z M 918 310 " clip-rule="nonzero"/></clipPath><clipPath id="bb4bff460b"><path d="M 402.75 308 L 522 308 L 522 452 L 402.75 452 Z M 402.75 308 " clip-rule="nonzero"/></clipPath></defs><path fill="#ffffff" d="M 975.976562 505.117188 L 493.539062 505.117188 C 492.777344 505.113281 492.019531 505.078125 491.261719 505 C 490.503906 504.925781 489.75 504.8125 489.003906 504.664062 C 488.257812 504.515625 487.519531 504.332031 486.789062 504.109375 C 486.0625 503.886719 485.34375 503.632812 484.640625 503.339844 C 483.9375 503.050781 483.25 502.722656 482.578125 502.363281 C 481.90625 502.007812 481.253906 501.613281 480.621094 501.191406 C 479.988281 500.769531 479.378906 500.316406 478.789062 499.835938 C 478.199219 499.351562 477.636719 498.839844 477.097656 498.304688 C 476.558594 497.765625 476.050781 497.203125 475.566406 496.613281 C 475.082031 496.027344 474.628906 495.417969 474.207031 494.785156 C 473.78125 494.152344 473.390625 493.5 473.03125 492.828125 C 472.671875 492.160156 472.347656 491.472656 472.054688 490.769531 C 471.761719 490.066406 471.507812 489.351562 471.285156 488.625 C 471.0625 487.894531 470.878906 487.160156 470.730469 486.414062 C 470.578125 485.667969 470.46875 484.914062 470.390625 484.160156 C 470.316406 483.402344 470.277344 482.644531 470.277344 481.882812 L 470.277344 299.042969 C 470.277344 298.28125 470.316406 297.523438 470.390625 296.765625 C 470.46875 296.007812 470.578125 295.257812 470.730469 294.511719 C 470.878906 293.765625 471.0625 293.03125 471.285156 292.300781 C 471.507812 291.574219 471.761719 290.859375 472.054688 290.15625 C 472.347656 289.453125 472.671875 288.765625 473.03125 288.097656 C 473.390625 287.425781 473.78125 286.773438 474.207031 286.140625 C 474.628906 285.507812 475.082031 284.898438 475.566406 284.3125 C 476.050781 283.722656 476.558594 283.160156 477.097656 282.621094 C 477.636719 282.085938 478.199219 281.574219 478.789062 281.089844 C 479.378906 280.609375 479.988281 280.15625 480.621094 279.734375 C 481.253906 279.308594 481.90625 278.917969 482.578125 278.5625 C 483.25 278.203125 483.9375 277.875 484.640625 277.585938 C 485.34375 277.292969 486.0625 277.039062 486.789062 276.816406 C 487.519531 276.59375 488.257812 276.410156 489.003906 276.261719 C 489.75 276.109375 490.503906 276 491.261719 275.921875 C 492.019531 275.847656 492.777344 275.808594 493.539062 275.808594 L 975.976562 275.808594 C 976.738281 275.808594 977.496094 275.847656 978.253906 275.921875 C 979.011719 276 979.765625 276.109375 980.511719 276.261719 C 981.257812 276.410156 981.996094 276.59375 982.722656 276.816406 C 983.453125 277.039062 984.167969 277.292969 984.871094 277.585938 C 985.574219 277.875 986.265625 278.203125 986.933594 278.5625 C 987.605469 278.917969 988.257812 279.308594 988.890625 279.734375 C 989.527344 280.15625 990.136719 280.609375 990.726562 281.089844 C 991.3125 281.574219 991.878906 282.085938 992.414062 282.621094 C 992.953125 283.160156 993.464844 283.722656 993.949219 284.3125 C 994.433594 284.898438 994.886719 285.507812 995.308594 286.140625 C 995.730469 286.773438 996.121094 287.425781 996.480469 288.097656 C 996.839844 288.765625 997.167969 289.453125 997.460938 290.15625 C 997.75 290.859375 998.007812 291.574219 998.230469 292.300781 C 998.449219 293.03125 998.636719 293.765625 998.785156 294.511719 C 998.933594 295.257812 999.046875 296.007812 999.121094 296.765625 C 999.199219 297.523438 999.234375 298.28125 999.238281 299.042969 L 999.238281 481.882812 C 999.234375 482.644531 999.199219 483.402344 999.121094 484.160156 C 999.046875 484.914062 998.933594 485.667969 998.785156 486.414062 C 998.636719 487.160156 998.449219 487.894531 998.230469 488.625 C 998.007812 489.351562 997.75 490.066406 997.460938 490.769531 C 997.167969 491.472656 996.839844 492.160156 996.480469 492.828125 C 996.121094 493.5 995.730469 494.152344 995.308594 494.785156 C 994.886719 495.417969 994.433594 496.027344 993.949219 496.613281 C 993.464844 497.203125 992.953125 497.765625 992.414062 498.304688 C 991.878906 498.839844 991.3125 499.351562 990.726562 499.832031 C 990.136719 500.316406 989.523438 500.769531 988.890625 501.191406 C 988.257812 501.613281 987.605469 502.007812 986.933594 502.363281 C 986.265625 502.722656 985.574219 503.050781 984.871094 503.339844 C 984.167969 503.632812 983.453125 503.886719 982.722656 504.109375 C 981.996094 504.332031 981.257812 504.515625 980.511719 504.664062 C 979.765625 504.8125 979.011719 504.925781 978.253906 505 C 977.496094 505.078125 976.738281 505.113281 975.976562 505.117188 Z M 975.976562 505.117188 " fill-opacity="1" fill-rule="nonzero"/><path fill="#e6e6e6" d="M 975.976562 505.117188 L 493.539062 505.117188 C 492.777344 505.113281 492.019531 505.078125 491.261719 505 C 490.503906 504.925781 489.75 504.8125 489.003906 504.664062 C 488.257812 504.515625 487.519531 504.332031 486.789062 504.109375 C 486.0625 503.886719 485.34375 503.632812 484.640625 503.339844 C 483.9375 503.050781 483.25 502.722656 482.578125 502.363281 C 481.90625 502.007812 481.253906 501.613281 480.621094 501.191406 C 479.988281 500.769531 479.378906 500.316406 478.789062 499.835938 C 478.199219 499.351562 477.636719 498.839844 477.097656 498.304688 C 476.558594 497.765625 476.050781 497.203125 475.566406 496.613281 C 475.082031 496.027344 474.628906 495.417969 474.207031 494.785156 C 473.78125 494.152344 473.390625 493.5 473.03125 492.828125 C 472.671875 492.160156 472.347656 491.472656 472.054688 490.769531 C 471.761719 490.066406 471.507812 489.351562 471.285156 488.625 C 471.0625 487.894531 470.878906 487.160156 470.730469 486.414062 C 470.578125 485.667969 470.46875 484.914062 470.390625 484.160156 C 470.316406 483.402344 470.277344 482.644531 470.277344 481.882812 L 470.277344 299.042969 C 470.277344 298.28125 470.316406 297.523438 470.390625 296.765625 C 470.46875 296.007812 470.578125 295.257812 470.730469 294.511719 C 470.878906 293.765625 471.0625 293.03125 471.285156 292.300781 C 471.507812 291.574219 471.761719 290.859375 472.054688 290.15625 C 472.347656 289.453125 472.671875 288.765625 473.03125 288.097656 C 473.390625 287.425781 473.78125 286.773438 474.207031 286.140625 C 474.628906 285.507812 475.082031 284.898438 475.566406 284.3125 C 476.050781 283.722656 476.558594 283.160156 477.097656 282.621094 C 477.636719 282.085938 478.199219 281.574219 478.789062 281.089844 C 479.378906 280.609375 479.988281 280.15625 480.621094 279.734375 C 481.253906 279.308594 481.90625 278.917969 482.578125 278.5625 C 483.25 278.203125 483.9375 277.875 484.640625 277.585938 C 485.34375 277.292969 486.0625 277.039062 486.789062 276.816406 C 487.519531 276.59375 488.257812 276.410156 489.003906 276.261719 C 489.75 276.109375 490.503906 276 491.261719 275.921875 C 492.019531 275.847656 492.777344 275.808594 493.539062 275.808594 L 975.976562 275.808594 C 976.738281 275.808594 977.496094 275.847656 978.253906 275.921875 C 979.011719 276 979.765625 276.109375 980.511719 276.261719 C 981.257812 276.410156 981.996094 276.59375 982.722656 276.816406 C 983.453125 277.039062 984.167969 277.292969 984.871094 277.585938 C 985.574219 277.875 986.265625 278.203125 986.933594 278.5625 C 987.605469 278.917969 988.257812 279.308594 988.890625 279.734375 C 989.527344 280.15625 990.136719 280.609375 990.726562 281.089844 C 991.3125 281.574219 991.878906 282.085938 992.414062 282.621094 C 992.953125 283.160156 993.464844 283.722656 993.949219 284.3125 C 994.433594 284.898438 994.886719 285.507812 995.308594 286.140625 C 995.730469 286.773438 996.121094 287.425781 996.480469 288.097656 C 996.839844 288.765625 997.167969 289.453125 997.460938 290.15625 C 997.75 290.859375 998.007812 291.574219 998.230469 292.300781 C 998.449219 293.03125 998.636719 293.765625 998.785156 294.511719 C 998.933594 295.257812 999.046875 296.007812 999.121094 296.765625 C 999.199219 297.523438 999.234375 298.28125 999.238281 299.042969 L 999.238281 481.882812 C 999.234375 482.644531 999.199219 483.402344 999.121094 484.160156 C 999.046875 484.914062 998.933594 485.667969 998.785156 486.414062 C 998.636719 487.160156 998.449219 487.894531 998.230469 488.625 C 998.007812 489.351562 997.75 490.066406 997.460938 490.769531 C 997.167969 491.472656 996.839844 492.160156 996.480469 492.828125 C 996.121094 493.5 995.730469 494.152344 995.308594 494.785156 C 994.886719 495.417969 994.433594 496.027344 993.949219 496.613281 C 993.464844 497.203125 992.953125 497.765625 992.414062 498.304688 C 991.878906 498.839844 991.3125 499.351562 990.726562 499.832031 C 990.136719 500.316406 989.523438 500.769531 988.890625 501.191406 C 988.257812 501.613281 987.605469 502.007812 986.933594 502.363281 C 986.265625 502.722656 985.574219 503.050781 984.871094 503.339844 C 984.167969 503.632812 983.453125 503.886719 982.722656 504.109375 C 981.996094 504.332031 981.257812 504.515625 980.511719 504.664062 C 979.765625 504.8125 979.011719 504.925781 978.253906 505 C 977.496094 505.078125 976.738281 505.113281 975.976562 505.117188 Z M 493.539062 277.828125 C 492.84375 277.828125 492.148438 277.863281 491.457031 277.933594 C 490.765625 278 490.078125 278.101562 489.394531 278.238281 C 488.714844 278.371094 488.039062 278.542969 487.375 278.742188 C 486.707031 278.945312 486.054688 279.179688 485.410156 279.445312 C 484.769531 279.710938 484.140625 280.007812 483.527344 280.335938 C 482.914062 280.664062 482.316406 281.019531 481.738281 281.40625 C 481.160156 281.789062 480.601562 282.203125 480.066406 282.644531 C 479.527344 283.085938 479.011719 283.550781 478.519531 284.042969 C 478.027344 284.535156 477.5625 285.046875 477.121094 285.585938 C 476.679688 286.121094 476.265625 286.679688 475.878906 287.257812 C 475.492188 287.835938 475.136719 288.429688 474.808594 289.042969 C 474.480469 289.65625 474.183594 290.285156 473.917969 290.925781 C 473.652344 291.566406 473.417969 292.21875 473.214844 292.886719 C 473.011719 293.550781 472.84375 294.222656 472.707031 294.90625 C 472.574219 295.585938 472.46875 296.273438 472.402344 296.964844 C 472.335938 297.65625 472.300781 298.347656 472.300781 299.042969 L 472.300781 481.882812 C 472.300781 482.578125 472.335938 483.269531 472.402344 483.960938 C 472.46875 484.652344 472.574219 485.339844 472.707031 486.019531 C 472.84375 486.703125 473.011719 487.375 473.214844 488.039062 C 473.417969 488.703125 473.652344 489.359375 473.917969 490 C 474.183594 490.640625 474.480469 491.269531 474.808594 491.882812 C 475.136719 492.496094 475.492188 493.089844 475.878906 493.667969 C 476.265625 494.246094 476.679688 494.804688 477.121094 495.339844 C 477.5625 495.875 478.027344 496.390625 478.519531 496.882812 C 479.011719 497.375 479.527344 497.839844 480.066406 498.28125 C 480.601562 498.722656 481.160156 499.132812 481.738281 499.519531 C 482.316406 499.90625 482.914062 500.261719 483.527344 500.589844 C 484.140625 500.917969 484.769531 501.214844 485.410156 501.480469 C 486.054688 501.746094 486.707031 501.980469 487.375 502.183594 C 488.039062 502.382812 488.714844 502.550781 489.394531 502.6875 C 490.078125 502.824219 490.765625 502.925781 491.457031 502.992188 C 492.148438 503.0625 492.84375 503.09375 493.539062 503.09375 L 975.976562 503.09375 C 976.671875 503.09375 977.363281 503.0625 978.054688 502.992188 C 978.75 502.925781 979.4375 502.824219 980.117188 502.6875 C 980.800781 502.550781 981.472656 502.382812 982.140625 502.183594 C 982.804688 501.980469 983.460938 501.746094 984.101562 501.480469 C 984.746094 501.214844 985.375 500.917969 985.988281 500.589844 C 986.601562 500.261719 987.195312 499.90625 987.773438 499.519531 C 988.351562 499.132812 988.910156 498.722656 989.449219 498.28125 C 989.988281 497.839844 990.5 497.375 990.992188 496.882812 C 991.484375 496.390625 991.953125 495.875 992.394531 495.339844 C 992.835938 494.800781 993.25 494.246094 993.632812 493.667969 C 994.019531 493.089844 994.378906 492.496094 994.707031 491.882812 C 995.035156 491.269531 995.332031 490.640625 995.597656 490 C 995.863281 489.359375 996.097656 488.703125 996.300781 488.039062 C 996.5 487.375 996.671875 486.703125 996.804688 486.019531 C 996.941406 485.339844 997.042969 484.652344 997.113281 483.960938 C 997.179688 483.269531 997.214844 482.578125 997.214844 481.882812 L 997.214844 412.941406 C 997.214844 410.730469 997.160156 408.519531 997.050781 406.3125 C 996.941406 404.105469 996.78125 401.898438 996.5625 399.699219 C 996.34375 397.5 996.074219 395.304688 995.75 393.117188 C 995.425781 390.929688 995.046875 388.75 994.613281 386.582031 C 994.183594 384.414062 993.699219 382.257812 993.160156 380.113281 C 992.621094 377.96875 992.03125 375.835938 991.390625 373.722656 C 990.746094 371.605469 990.050781 369.507812 989.304688 367.425781 C 988.558594 365.34375 987.765625 363.28125 986.917969 361.238281 C 986.070312 359.195312 985.171875 357.171875 984.226562 355.175781 C 983.28125 353.175781 982.285156 351.199219 981.242188 349.25 C 980.195312 347.300781 979.105469 345.378906 977.96875 343.480469 C 976.828125 341.582031 975.644531 339.714844 974.414062 337.878906 C 973.1875 336.039062 971.910156 334.230469 970.59375 332.457031 C 969.273438 330.679688 967.910156 328.9375 966.507812 327.226562 C 965.101562 325.519531 963.65625 323.84375 962.171875 322.207031 C 960.683594 320.566406 959.15625 318.964844 957.59375 317.402344 C 956.027344 315.839844 954.421875 314.316406 952.785156 312.832031 C 951.144531 311.34375 949.46875 309.902344 947.753906 308.5 C 946.042969 307.097656 944.300781 305.734375 942.519531 304.417969 C 940.742188 303.101562 938.933594 301.828125 937.09375 300.601562 C 935.25 299.371094 933.382812 298.1875 931.484375 297.050781 C 929.585938 295.914062 927.660156 294.824219 925.707031 293.785156 C 923.753906 292.742188 921.777344 291.746094 919.773438 290.800781 C 917.773438 289.855469 915.75 288.960938 913.703125 288.113281 C 911.660156 287.269531 909.59375 286.472656 907.511719 285.726562 C 905.425781 284.984375 903.324219 284.289062 901.207031 283.648438 C 899.085938 283.003906 896.953125 282.417969 894.804688 281.878906 C 892.660156 281.339844 890.5 280.855469 888.328125 280.425781 C 886.15625 279.996094 883.976562 279.617188 881.785156 279.292969 C 879.597656 278.96875 877.398438 278.695312 875.195312 278.480469 C 872.992188 278.261719 870.785156 278.101562 868.574219 277.992188 C 866.363281 277.882812 864.152344 277.828125 861.9375 277.828125 Z M 493.539062 277.828125 " fill-opacity="1" fill-rule="nonzero"/><path fill="#ffffff" d="M 452.191406 541.074219 C 452.660156 541.140625 453.101562 541.269531 453.515625 541.457031 C 453.929688 541.644531 454.285156 541.878906 454.585938 542.15625 C 454.882812 542.433594 455.097656 542.734375 455.234375 543.0625 C 455.367188 543.386719 455.414062 543.714844 455.367188 544.039062 C 455.316406 544.363281 455.183594 544.664062 454.960938 544.9375 C 454.738281 545.214844 454.445312 545.441406 454.078125 545.621094 C 453.714844 545.804688 453.308594 545.925781 452.855469 545.988281 C 452.40625 546.050781 451.945312 546.046875 451.480469 545.980469 C 451.011719 545.910156 450.570312 545.78125 450.15625 545.59375 C 449.742188 545.410156 449.386719 545.175781 449.085938 544.898438 C 448.789062 544.621094 448.574219 544.316406 448.4375 543.992188 C 448.304688 543.664062 448.257812 543.339844 448.304688 543.011719 C 448.355469 542.6875 448.488281 542.386719 448.710938 542.113281 C 448.933594 541.839844 449.226562 541.613281 449.59375 541.429688 C 449.957031 541.246094 450.363281 541.125 450.816406 541.066406 C 451.265625 541.003906 451.726562 541.007812 452.191406 541.074219 Z M 452.191406 541.074219 " fill-opacity="1" fill-rule="nonzero"/><path fill="#3f3d56" d="M 475.402344 538.8125 C 475.871094 538.878906 476.3125 539.007812 476.726562 539.195312 C 477.140625 539.382812 477.496094 539.613281 477.792969 539.894531 C 478.089844 540.171875 478.308594 540.472656 478.441406 540.800781 C 478.578125 541.125 478.621094 541.453125 478.574219 541.777344 C 478.527344 542.101562 478.394531 542.402344 478.167969 542.675781 C 477.945312 542.949219 477.652344 543.179688 477.289062 543.359375 C 476.925781 543.542969 476.515625 543.664062 476.066406 543.726562 C 475.617188 543.789062 475.15625 543.785156 474.6875 543.714844 C 474.21875 543.648438 473.78125 543.519531 473.363281 543.332031 C 472.949219 543.144531 472.59375 542.914062 472.296875 542.636719 C 472 542.359375 471.785156 542.054688 471.648438 541.730469 C 471.511719 541.402344 471.46875 541.078125 471.515625 540.75 C 471.5625 540.425781 471.699219 540.125 471.921875 539.851562 C 472.144531 539.578125 472.4375 539.347656 472.800781 539.167969 C 473.167969 538.984375 473.574219 538.863281 474.023438 538.800781 C 474.476562 538.742188 474.933594 538.742188 475.402344 538.8125 Z M 475.402344 538.8125 " fill-opacity="1" fill-rule="nonzero"/><path fill="#ff6584" d="M 445.839844 522.308594 C 446.308594 522.375 446.75 522.503906 447.164062 522.691406 C 447.578125 522.878906 447.933594 523.109375 448.230469 523.386719 C 448.527344 523.667969 448.742188 523.96875 448.878906 524.296875 C 449.015625 524.621094 449.058594 524.949219 449.011719 525.273438 C 448.964844 525.597656 448.828125 525.898438 448.605469 526.171875 C 448.382812 526.445312 448.089844 526.675781 447.726562 526.855469 C 447.359375 527.039062 446.953125 527.160156 446.503906 527.222656 C 446.050781 527.285156 445.59375 527.28125 445.125 527.210938 C 444.65625 527.144531 444.214844 527.015625 443.800781 526.828125 C 443.386719 526.640625 443.03125 526.410156 442.734375 526.132812 C 442.4375 525.851562 442.21875 525.550781 442.085938 525.222656 C 441.949219 524.898438 441.90625 524.574219 441.953125 524.246094 C 442 523.921875 442.136719 523.621094 442.359375 523.347656 C 442.582031 523.074219 442.875 522.84375 443.238281 522.664062 C 443.601562 522.480469 444.011719 522.359375 444.460938 522.296875 C 444.910156 522.238281 445.371094 522.238281 445.839844 522.308594 Z M 445.839844 522.308594 " fill-opacity="1" fill-rule="nonzero"/><path fill="#e6e6e6" d="M 437.375 515.324219 C 437.582031 515.324219 437.78125 515.382812 437.972656 515.5 C 438.164062 515.613281 438.332031 515.777344 438.480469 515.992188 C 438.625 516.203125 438.734375 516.449219 438.8125 516.722656 C 438.890625 517 438.929688 517.289062 438.925781 517.585938 C 438.925781 517.886719 438.882812 518.171875 438.800781 518.449219 C 438.71875 518.722656 438.605469 518.964844 438.453125 519.175781 C 438.304688 519.386719 438.136719 519.546875 437.941406 519.660156 C 437.75 519.773438 437.550781 519.828125 437.339844 519.828125 C 437.132812 519.824219 436.933594 519.765625 436.742188 519.652344 C 436.550781 519.535156 436.382812 519.371094 436.238281 519.160156 C 436.09375 518.945312 435.980469 518.703125 435.902344 518.425781 C 435.828125 518.148438 435.789062 517.863281 435.789062 517.5625 C 435.792969 517.265625 435.835938 516.976562 435.917969 516.703125 C 436 516.425781 436.113281 516.183594 436.261719 515.972656 C 436.410156 515.765625 436.582031 515.601562 436.773438 515.492188 C 436.96875 515.378906 437.167969 515.320312 437.375 515.324219 Z M 437.375 515.324219 " fill-opacity="1" fill-rule="nonzero"/><path fill="#3f3d56" d="M 433.953125 501.007812 C 434.164062 501.007812 434.363281 501.066406 434.554688 501.183594 C 434.746094 501.296875 434.914062 501.460938 435.058594 501.675781 C 435.203125 501.886719 435.316406 502.128906 435.390625 502.40625 C 435.46875 502.683594 435.507812 502.972656 435.503906 503.269531 C 435.503906 503.566406 435.460938 503.855469 435.378906 504.128906 C 435.296875 504.40625 435.183594 504.648438 435.035156 504.859375 C 434.886719 505.066406 434.714844 505.230469 434.523438 505.34375 C 434.328125 505.457031 434.128906 505.511719 433.921875 505.507812 C 433.710938 505.507812 433.511719 505.449219 433.320312 505.332031 C 433.128906 505.21875 432.960938 505.054688 432.816406 504.839844 C 432.671875 504.628906 432.558594 504.386719 432.484375 504.109375 C 432.40625 503.832031 432.367188 503.542969 432.371094 503.246094 C 432.371094 502.945312 432.414062 502.660156 432.496094 502.386719 C 432.578125 502.109375 432.691406 501.867188 432.839844 501.65625 C 432.988281 501.445312 433.160156 501.285156 433.351562 501.171875 C 433.546875 501.058594 433.746094 501.003906 433.953125 501.007812 Z M 433.953125 501.007812 " fill-opacity="1" fill-rule="nonzero"/><path fill="#e6e6e6" d="M 460.550781 526.203125 C 460.757812 526.207031 460.957031 526.265625 461.148438 526.378906 C 461.339844 526.496094 461.507812 526.660156 461.652344 526.871094 C 461.800781 527.085938 461.910156 527.328125 461.988281 527.605469 C 462.066406 527.882812 462.101562 528.167969 462.101562 528.46875 C 462.097656 528.765625 462.054688 529.054688 461.976562 529.328125 C 461.894531 529.605469 461.777344 529.847656 461.628906 530.054688 C 461.480469 530.265625 461.308594 530.425781 461.117188 530.539062 C 460.925781 530.652344 460.722656 530.707031 460.515625 530.707031 C 460.308594 530.707031 460.109375 530.648438 459.917969 530.53125 C 459.726562 530.414062 459.558594 530.25 459.414062 530.039062 C 459.265625 529.828125 459.15625 529.582031 459.078125 529.304688 C 459 529.03125 458.964844 528.742188 458.964844 528.445312 C 458.96875 528.144531 459.007812 527.859375 459.089844 527.582031 C 459.171875 527.308594 459.289062 527.066406 459.4375 526.855469 C 459.585938 526.644531 459.757812 526.484375 459.949219 526.371094 C 460.140625 526.257812 460.34375 526.203125 460.550781 526.203125 Z M 460.550781 526.203125 " fill-opacity="1" fill-rule="nonzero"/><path fill="#ff6584" d="M 449.332031 531.796875 C 449.542969 531.796875 449.742188 531.855469 449.933594 531.972656 C 450.125 532.089844 450.292969 532.253906 450.4375 532.464844 C 450.582031 532.675781 450.695312 532.921875 450.773438 533.199219 C 450.847656 533.472656 450.886719 533.761719 450.882812 534.058594 C 450.882812 534.359375 450.839844 534.644531 450.757812 534.921875 C 450.675781 535.195312 450.5625 535.4375 450.414062 535.648438 C 450.265625 535.859375 450.09375 536.019531 449.902344 536.132812 C 449.707031 536.246094 449.507812 536.300781 449.300781 536.300781 C 449.09375 536.296875 448.890625 536.238281 448.699219 536.125 C 448.511719 536.007812 448.339844 535.84375 448.195312 535.632812 C 448.050781 535.421875 447.941406 535.175781 447.863281 534.898438 C 447.785156 534.621094 447.746094 534.335938 447.75 534.035156 C 447.75 533.738281 447.792969 533.453125 447.875 533.175781 C 447.957031 532.902344 448.070312 532.660156 448.21875 532.449219 C 448.367188 532.238281 448.539062 532.078125 448.734375 531.964844 C 448.925781 531.851562 449.125 531.796875 449.332031 531.796875 Z M 449.332031 531.796875 " fill-opacity="1" fill-rule="nonzero"/><path fill="#3f3d56" d="M 464.949219 542.132812 C 465.15625 542.136719 465.355469 542.195312 465.546875 542.308594 C 465.738281 542.425781 465.90625 542.589844 466.050781 542.800781 C 466.195312 543.015625 466.308594 543.257812 466.386719 543.535156 C 466.460938 543.8125 466.5 544.097656 466.5 544.398438 C 466.496094 544.695312 466.453125 544.984375 466.371094 545.257812 C 466.289062 545.535156 466.175781 545.777344 466.027344 545.984375 C 465.878906 546.195312 465.707031 546.359375 465.515625 546.46875 C 465.320312 546.582031 465.121094 546.640625 464.914062 546.636719 C 464.707031 546.636719 464.507812 546.578125 464.316406 546.460938 C 464.125 546.34375 463.957031 546.179688 463.808594 545.96875 C 463.664062 545.757812 463.554688 545.511719 463.476562 545.234375 C 463.398438 544.960938 463.359375 544.671875 463.363281 544.375 C 463.363281 544.074219 463.40625 543.789062 463.488281 543.511719 C 463.570312 543.238281 463.683594 542.996094 463.835938 542.785156 C 463.984375 542.574219 464.152344 542.414062 464.347656 542.300781 C 464.539062 542.1875 464.738281 542.132812 464.949219 542.132812 Z M 464.949219 542.132812 " fill-opacity="1" fill-rule="nonzero"/><path fill="#ffffff" d="M 1012.433594 247.878906 C 1013.015625 248.027344 1013.558594 248.246094 1014.058594 248.539062 C 1014.558594 248.832031 1014.980469 249.171875 1015.320312 249.566406 C 1015.660156 249.957031 1015.894531 250.367188 1016.023438 250.800781 C 1016.152344 251.230469 1016.167969 251.652344 1016.0625 252.054688 C 1015.960938 252.460938 1015.75 252.824219 1015.429688 253.144531 C 1015.109375 253.460938 1014.707031 253.710938 1014.222656 253.894531 C 1013.738281 254.078125 1013.203125 254.179688 1012.625 254.195312 C 1012.046875 254.214844 1011.464844 254.152344 1010.878906 254.003906 C 1010.292969 253.855469 1009.75 253.636719 1009.25 253.34375 C 1008.75 253.050781 1008.332031 252.707031 1007.988281 252.316406 C 1007.648438 251.925781 1007.414062 251.515625 1007.285156 251.082031 C 1007.15625 250.648438 1007.144531 250.230469 1007.25 249.824219 C 1007.351562 249.417969 1007.5625 249.058594 1007.882812 248.738281 C 1008.199219 248.421875 1008.601562 248.167969 1009.089844 247.988281 C 1009.574219 247.804688 1010.105469 247.703125 1010.6875 247.683594 C 1011.265625 247.667969 1011.847656 247.730469 1012.433594 247.878906 Z M 1012.433594 247.878906 " fill-opacity="1" fill-rule="nonzero"/><path fill="#3f3d56" d="M 982.707031 247.6875 C 983.292969 247.835938 983.835938 248.054688 984.335938 248.347656 C 984.835938 248.640625 985.257812 248.980469 985.597656 249.375 C 985.9375 249.765625 986.171875 250.175781 986.300781 250.609375 C 986.429688 251.039062 986.441406 251.460938 986.339844 251.863281 C 986.234375 252.269531 986.023438 252.632812 985.707031 252.953125 C 985.386719 253.269531 984.984375 253.519531 984.5 253.703125 C 984.011719 253.886719 983.480469 253.988281 982.902344 254.003906 C 982.320312 254.023438 981.738281 253.960938 981.15625 253.8125 C 980.570312 253.664062 980.027344 253.445312 979.527344 253.152344 C 979.027344 252.859375 978.605469 252.519531 978.265625 252.125 C 977.925781 251.734375 977.691406 251.324219 977.5625 250.890625 C 977.433594 250.460938 977.421875 250.039062 977.523438 249.632812 C 977.628906 249.226562 977.839844 248.867188 978.15625 248.546875 C 978.476562 248.230469 978.878906 247.976562 979.363281 247.796875 C 979.851562 247.613281 980.382812 247.511719 980.960938 247.492188 C 981.542969 247.476562 982.125 247.539062 982.707031 247.6875 Z M 982.707031 247.6875 " fill-opacity="1" fill-rule="nonzero"/><path fill="#ff6584" d="M 1018.011719 272.507812 C 1018.59375 272.65625 1019.136719 272.875 1019.636719 273.167969 C 1020.140625 273.460938 1020.558594 273.804688 1020.898438 274.195312 C 1021.242188 274.585938 1021.476562 274.996094 1021.601562 275.429688 C 1021.730469 275.863281 1021.746094 276.28125 1021.640625 276.6875 C 1021.539062 277.09375 1021.328125 277.453125 1021.007812 277.773438 C 1020.691406 278.09375 1020.289062 278.34375 1019.800781 278.523438 C 1019.316406 278.707031 1018.78125 278.808594 1018.203125 278.828125 C 1017.625 278.84375 1017.042969 278.78125 1016.457031 278.632812 C 1015.871094 278.484375 1015.332031 278.265625 1014.828125 277.972656 C 1014.328125 277.679688 1013.910156 277.339844 1013.566406 276.945312 C 1013.226562 276.554688 1012.992188 276.144531 1012.863281 275.710938 C 1012.738281 275.28125 1012.722656 274.859375 1012.828125 274.457031 C 1012.929688 274.050781 1013.140625 273.6875 1013.460938 273.367188 C 1013.777344 273.050781 1014.179688 272.800781 1014.667969 272.617188 C 1015.152344 272.433594 1015.6875 272.332031 1016.265625 272.316406 C 1016.84375 272.296875 1017.425781 272.359375 1018.011719 272.507812 Z M 1018.011719 272.507812 " fill-opacity="1" fill-rule="nonzero"/><path fill="#e6e6e6" d="M 1026.902344 282.898438 C 1027.164062 282.929688 1027.410156 283.03125 1027.636719 283.203125 C 1027.867188 283.375 1028.058594 283.605469 1028.214844 283.890625 C 1028.371094 284.179688 1028.480469 284.503906 1028.539062 284.867188 C 1028.601562 285.226562 1028.613281 285.59375 1028.570312 285.972656 C 1028.527344 286.351562 1028.4375 286.710938 1028.296875 287.046875 C 1028.15625 287.386719 1027.976562 287.679688 1027.761719 287.925781 C 1027.546875 288.171875 1027.308594 288.355469 1027.046875 288.472656 C 1026.789062 288.589844 1026.527344 288.632812 1026.265625 288.605469 C 1026 288.574219 1025.753906 288.472656 1025.527344 288.300781 C 1025.300781 288.128906 1025.109375 287.902344 1024.953125 287.613281 C 1024.796875 287.324219 1024.6875 287 1024.625 286.640625 C 1024.5625 286.277344 1024.554688 285.910156 1024.597656 285.53125 C 1024.640625 285.152344 1024.730469 284.792969 1024.871094 284.457031 C 1025.011719 284.117188 1025.1875 283.824219 1025.402344 283.578125 C 1025.621094 283.332031 1025.859375 283.148438 1026.117188 283.03125 C 1026.378906 282.914062 1026.640625 282.871094 1026.902344 282.898438 Z M 1026.902344 282.898438 " fill-opacity="1" fill-rule="nonzero"/><path fill="#3f3d56" d="M 1029.347656 301.5 C 1029.609375 301.527344 1029.855469 301.628906 1030.082031 301.800781 C 1030.308594 301.972656 1030.5 302.203125 1030.65625 302.492188 C 1030.8125 302.78125 1030.921875 303.105469 1030.984375 303.464844 C 1031.046875 303.824219 1031.054688 304.195312 1031.015625 304.574219 C 1030.972656 304.953125 1030.878906 305.308594 1030.742188 305.648438 C 1030.601562 305.988281 1030.421875 306.277344 1030.207031 306.527344 C 1029.992188 306.773438 1029.753906 306.953125 1029.492188 307.070312 C 1029.234375 307.191406 1028.972656 307.234375 1028.707031 307.203125 C 1028.445312 307.175781 1028.199219 307.074219 1027.972656 306.902344 C 1027.746094 306.730469 1027.554688 306.5 1027.398438 306.210938 C 1027.242188 305.925781 1027.132812 305.597656 1027.070312 305.238281 C 1027.007812 304.878906 1027 304.507812 1027.039062 304.128906 C 1027.082031 303.75 1027.175781 303.394531 1027.3125 303.054688 C 1027.453125 302.71875 1027.632812 302.425781 1027.847656 302.179688 C 1028.066406 301.929688 1028.300781 301.75 1028.5625 301.632812 C 1028.820312 301.515625 1029.082031 301.46875 1029.347656 301.5 Z M 1029.347656 301.5 " fill-opacity="1" fill-rule="nonzero"/><path fill="#e6e6e6" d="M 998.957031 266.050781 C 999.222656 266.078125 999.46875 266.179688 999.695312 266.351562 C 999.921875 266.523438 1000.113281 266.753906 1000.269531 267.042969 C 1000.425781 267.332031 1000.535156 267.65625 1000.597656 268.015625 C 1000.660156 268.375 1000.667969 268.746094 1000.625 269.125 C 1000.582031 269.503906 1000.492188 269.859375 1000.351562 270.199219 C 1000.210938 270.539062 1000.035156 270.828125 999.820312 271.078125 C 999.601562 271.324219 999.363281 271.503906 999.105469 271.621094 C 998.84375 271.742188 998.582031 271.785156 998.320312 271.753906 C 998.058594 271.726562 997.8125 271.625 997.585938 271.453125 C 997.355469 271.28125 997.164062 271.050781 997.007812 270.761719 C 996.851562 270.476562 996.742188 270.148438 996.683594 269.789062 C 996.621094 269.429688 996.609375 269.058594 996.652344 268.679688 C 996.695312 268.304688 996.785156 267.945312 996.925781 267.605469 C 997.066406 267.269531 997.246094 266.976562 997.460938 266.730469 C 997.675781 266.480469 997.914062 266.300781 998.175781 266.183594 C 998.433594 266.066406 998.695312 266.019531 998.957031 266.050781 Z M 998.957031 266.050781 " fill-opacity="1" fill-rule="nonzero"/><path fill="#ff6584" d="M 1013.917969 260.4375 C 1014.179688 260.46875 1014.425781 260.566406 1014.652344 260.738281 C 1014.878906 260.914062 1015.070312 261.140625 1015.226562 261.429688 C 1015.386719 261.71875 1015.492188 262.042969 1015.554688 262.402344 C 1015.617188 262.765625 1015.625 263.132812 1015.585938 263.511719 C 1015.542969 263.890625 1015.453125 264.25 1015.3125 264.585938 C 1015.171875 264.925781 1014.992188 265.21875 1014.777344 265.464844 C 1014.5625 265.710938 1014.324219 265.894531 1014.0625 266.011719 C 1013.804688 266.128906 1013.542969 266.171875 1013.277344 266.144531 C 1013.015625 266.113281 1012.769531 266.011719 1012.542969 265.839844 C 1012.316406 265.667969 1012.125 265.4375 1011.96875 265.152344 C 1011.8125 264.863281 1011.703125 264.539062 1011.640625 264.175781 C 1011.578125 263.816406 1011.570312 263.445312 1011.613281 263.070312 C 1011.652344 262.691406 1011.746094 262.332031 1011.886719 261.996094 C 1012.023438 261.65625 1012.203125 261.363281 1012.417969 261.117188 C 1012.636719 260.871094 1012.875 260.6875 1013.132812 260.570312 C 1013.390625 260.453125 1013.652344 260.410156 1013.917969 260.4375 Z M 1013.917969 260.4375 " fill-opacity="1" fill-rule="nonzero"/><g clip-path="url(#47c9640b7f)"><path fill="#3f3d56" d="M 995.488281 245.273438 C 995.753906 245.304688 996 245.40625 996.226562 245.578125 C 996.453125 245.75 996.644531 245.980469 996.800781 246.265625 C 996.957031 246.554688 997.066406 246.878906 997.128906 247.242188 C 997.191406 247.601562 997.199219 247.972656 997.15625 248.347656 C 997.113281 248.726562 997.023438 249.085938 996.882812 249.425781 C 996.742188 249.761719 996.566406 250.054688 996.347656 250.300781 C 996.132812 250.546875 995.894531 250.730469 995.636719 250.847656 C 995.375 250.964844 995.113281 251.007812 994.851562 250.980469 C 994.585938 250.949219 994.34375 250.851562 994.113281 250.679688 C 993.886719 250.507812 993.695312 250.277344 993.539062 249.988281 C 993.382812 249.699219 993.273438 249.375 993.210938 249.015625 C 993.152344 248.652344 993.140625 248.285156 993.183594 247.90625 C 993.226562 247.527344 993.316406 247.167969 993.457031 246.832031 C 993.597656 246.492188 993.773438 246.199219 993.992188 245.953125 C 994.207031 245.707031 994.445312 245.523438 994.703125 245.40625 C 994.964844 245.289062 995.226562 245.246094 995.488281 245.273438 Z M 995.488281 245.273438 " fill-opacity="1" fill-rule="nonzero"/></g><path fill="#f2f2f2" d="M 663.242188 386.742188 C 663.25 391.277344 662.839844 395.777344 662.019531 400.238281 C 661.195312 404.695312 659.972656 409.046875 658.351562 413.28125 C 656.726562 417.519531 654.730469 421.570312 652.359375 425.4375 C 649.988281 429.308594 647.285156 432.929688 644.25 436.300781 L 644.25 436.308594 C 642.515625 438.234375 640.6875 440.066406 638.765625 441.804688 C 636.800781 443.585938 634.742188 445.25 632.597656 446.804688 C 631.101562 447.898438 629.5625 448.925781 627.984375 449.898438 C 626.113281 451.058594 624.1875 452.132812 622.210938 453.121094 C 620.742188 453.855469 619.246094 454.542969 617.71875 455.179688 C 608.511719 459.046875 598.914062 460.976562 588.925781 460.96875 C 583.324219 460.972656 577.789062 460.355469 572.328125 459.109375 C 569.808594 458.539062 567.328125 457.832031 564.882812 456.988281 C 563.945312 456.675781 563.003906 456.332031 562.074219 455.96875 C 556.410156 453.78125 551.097656 450.9375 546.144531 447.433594 C 544.84375 446.519531 543.578125 445.566406 542.339844 444.574219 C 541.105469 443.578125 539.902344 442.546875 538.730469 441.476562 C 537.5625 440.40625 536.425781 439.300781 535.328125 438.15625 C 534.226562 437.011719 533.164062 435.835938 532.140625 434.625 C 531.117188 433.414062 530.132812 432.171875 529.191406 430.894531 C 528.246094 429.621094 527.34375 428.320312 526.484375 426.988281 C 525.621094 425.65625 524.804688 424.296875 524.03125 422.914062 C 523.257812 421.527344 522.53125 420.121094 521.847656 418.691406 C 521.164062 417.257812 520.527344 415.808594 519.9375 414.335938 C 519.347656 412.863281 518.804688 411.375 518.308594 409.871094 C 517.816406 408.363281 517.371094 406.84375 516.972656 405.308594 C 516.574219 403.773438 516.226562 402.226562 515.929688 400.671875 C 515.632812 399.113281 515.386719 397.546875 515.1875 395.976562 C 514.988281 394.402344 514.84375 392.824219 514.746094 391.242188 C 514.652344 389.660156 514.605469 388.078125 514.609375 386.492188 C 514.617188 384.90625 514.671875 383.324219 514.777344 381.742188 C 514.886719 380.160156 515.042969 378.585938 515.25 377.011719 C 515.460938 375.441406 515.71875 373.878906 516.027344 372.324219 C 516.332031 370.769531 516.691406 369.222656 517.097656 367.691406 C 517.507812 366.160156 517.960938 364.644531 518.464844 363.140625 C 518.972656 361.636719 519.523438 360.152344 520.125 358.683594 C 520.722656 357.214844 521.371094 355.769531 522.0625 354.34375 C 522.753906 352.917969 523.492188 351.515625 524.277344 350.136719 C 525.058594 348.757812 525.882812 347.402344 526.753906 346.078125 C 527.625 344.753906 528.535156 343.453125 529.488281 342.1875 C 530.441406 340.917969 531.433594 339.683594 532.464844 338.480469 C 533.496094 337.273438 534.566406 336.105469 535.671875 334.96875 C 536.777344 333.832031 537.921875 332.734375 539.097656 331.671875 C 540.277344 330.609375 541.488281 329.582031 542.730469 328.597656 C 543.972656 327.613281 545.246094 326.667969 546.550781 325.765625 C 547.855469 324.859375 549.1875 324 550.546875 323.179688 C 551.902344 322.363281 553.289062 321.585938 554.695312 320.855469 C 556.105469 320.128906 557.535156 319.441406 558.988281 318.804688 C 560.441406 318.164062 561.914062 317.574219 563.402344 317.03125 C 564.894531 316.484375 566.402344 315.988281 567.921875 315.542969 C 569.445312 315.09375 570.980469 314.695312 572.527344 314.34375 C 574.078125 313.996094 575.632812 313.695312 577.203125 313.445312 C 578.769531 313.195312 580.34375 312.996094 581.921875 312.84375 C 583.503906 312.695312 585.085938 312.597656 586.671875 312.550781 C 588.257812 312.5 589.84375 312.503906 591.429688 312.558594 C 593.015625 312.609375 594.597656 312.714844 596.179688 312.871094 C 597.757812 313.023438 599.332031 313.230469 600.898438 313.484375 C 602.464844 313.738281 604.019531 314.046875 605.566406 314.398438 C 607.113281 314.753906 608.648438 315.160156 610.167969 315.613281 C 611.691406 316.066406 613.195312 316.566406 614.683594 317.117188 C 616.171875 317.664062 617.640625 318.261719 619.09375 318.90625 C 620.542969 319.546875 621.972656 320.238281 623.378906 320.972656 C 624.785156 321.707031 626.164062 322.488281 627.519531 323.308594 C 628.878906 324.132812 630.207031 325 631.507812 325.90625 C 632.808594 326.816406 634.078125 327.765625 635.316406 328.753906 C 636.558594 329.742188 637.765625 330.769531 638.9375 331.839844 C 640.113281 332.90625 641.25 334.007812 642.355469 335.148438 C 643.457031 336.289062 644.523438 337.460938 645.550781 338.667969 C 646.578125 339.875 647.566406 341.117188 648.515625 342.386719 C 649.464844 343.65625 650.371094 344.957031 651.234375 346.289062 C 652.101562 347.617188 652.921875 348.972656 653.699219 350.351562 C 654.476562 351.734375 655.210938 353.140625 655.898438 354.570312 C 656.585938 355.996094 657.226562 357.445312 657.824219 358.914062 C 658.417969 360.386719 658.964844 361.871094 659.464844 363.375 C 659.964844 364.882812 660.414062 366.398438 660.816406 367.933594 C 661.21875 369.46875 661.570312 371.011719 661.875 372.566406 C 662.179688 374.125 662.429688 375.6875 662.632812 377.261719 C 662.835938 378.832031 662.988281 380.410156 663.089844 381.992188 C 663.191406 383.574219 663.242188 385.15625 663.242188 386.742188 Z M 663.242188 386.742188 " fill-opacity="1" fill-rule="nonzero"/><path fill="#6c63ff" d="M 885.667969 331.566406 L 757.222656 331.566406 C 756.957031 331.566406 756.691406 331.539062 756.433594 331.484375 C 756.171875 331.433594 755.921875 331.355469 755.675781 331.253906 C 755.429688 331.152344 755.199219 331.027344 754.980469 330.878906 C 754.757812 330.734375 754.554688 330.566406 754.367188 330.378906 C 754.179688 330.191406 754.011719 329.988281 753.867188 329.765625 C 753.71875 329.546875 753.59375 329.3125 753.492188 329.066406 C 753.390625 328.824219 753.316406 328.570312 753.265625 328.3125 C 753.210938 328.050781 753.1875 327.789062 753.1875 327.523438 C 753.1875 327.257812 753.210938 326.996094 753.265625 326.738281 C 753.316406 326.476562 753.390625 326.226562 753.492188 325.980469 C 753.59375 325.734375 753.71875 325.503906 753.867188 325.28125 C 754.011719 325.0625 754.179688 324.859375 754.367188 324.671875 C 754.554688 324.484375 754.757812 324.316406 754.980469 324.167969 C 755.199219 324.019531 755.429688 323.898438 755.675781 323.792969 C 755.921875 323.691406 756.171875 323.617188 756.433594 323.5625 C 756.691406 323.511719 756.957031 323.484375 757.222656 323.484375 L 885.667969 323.484375 C 885.933594 323.484375 886.195312 323.511719 886.457031 323.5625 C 886.71875 323.613281 886.972656 323.691406 887.214844 323.792969 C 887.460938 323.894531 887.695312 324.015625 887.914062 324.164062 C 888.136719 324.3125 888.339844 324.480469 888.527344 324.667969 C 888.714844 324.855469 888.882812 325.058594 889.03125 325.28125 C 889.179688 325.5 889.304688 325.734375 889.40625 325.976562 C 889.507812 326.222656 889.585938 326.476562 889.636719 326.734375 C 889.6875 326.996094 889.714844 327.257812 889.714844 327.523438 C 889.714844 327.789062 889.6875 328.050781 889.636719 328.3125 C 889.585938 328.574219 889.507812 328.824219 889.40625 329.070312 C 889.304688 329.316406 889.179688 329.546875 889.03125 329.769531 C 888.882812 329.988281 888.714844 330.195312 888.527344 330.382812 C 888.339844 330.570312 888.136719 330.738281 887.914062 330.882812 C 887.695312 331.03125 887.460938 331.15625 887.214844 331.257812 C 886.972656 331.359375 886.71875 331.4375 886.457031 331.488281 C 886.195312 331.539062 885.933594 331.566406 885.667969 331.566406 Z M 885.667969 331.566406 " fill-opacity="1" fill-rule="nonzero"/><path fill="#e6e6e6" d="M 885.667969 386.113281 L 757.222656 386.113281 C 756.957031 386.113281 756.691406 386.089844 756.433594 386.035156 C 756.171875 385.984375 755.917969 385.90625 755.671875 385.804688 C 755.425781 385.703125 755.195312 385.582031 754.972656 385.433594 C 754.753906 385.285156 754.546875 385.117188 754.359375 384.929688 C 754.171875 384.742188 754.003906 384.539062 753.855469 384.316406 C 753.710938 384.097656 753.585938 383.863281 753.484375 383.621094 C 753.382812 383.375 753.304688 383.121094 753.253906 382.863281 C 753.203125 382.601562 753.175781 382.339844 753.175781 382.074219 C 753.175781 381.808594 753.203125 381.546875 753.253906 381.285156 C 753.304688 381.023438 753.382812 380.773438 753.484375 380.527344 C 753.585938 380.28125 753.710938 380.050781 753.855469 379.828125 C 754.003906 379.609375 754.171875 379.402344 754.359375 379.214844 C 754.546875 379.027344 754.753906 378.859375 754.972656 378.714844 C 755.195312 378.566406 755.425781 378.441406 755.671875 378.339844 C 755.917969 378.238281 756.171875 378.160156 756.433594 378.109375 C 756.691406 378.058594 756.957031 378.03125 757.222656 378.03125 L 885.667969 378.03125 C 885.933594 378.03125 886.195312 378.058594 886.457031 378.109375 C 886.71875 378.160156 886.972656 378.238281 887.214844 378.339844 C 887.460938 378.441406 887.695312 378.566406 887.914062 378.714844 C 888.136719 378.859375 888.339844 379.027344 888.527344 379.214844 C 888.714844 379.402344 888.882812 379.609375 889.03125 379.828125 C 889.179688 380.050781 889.304688 380.28125 889.40625 380.527344 C 889.507812 380.773438 889.585938 381.023438 889.636719 381.285156 C 889.6875 381.546875 889.714844 381.808594 889.714844 382.074219 C 889.714844 382.339844 889.6875 382.601562 889.636719 382.863281 C 889.585938 383.121094 889.507812 383.375 889.40625 383.621094 C 889.304688 383.863281 889.179688 384.097656 889.03125 384.316406 C 888.882812 384.539062 888.714844 384.742188 888.527344 384.929688 C 888.339844 385.117188 888.136719 385.285156 887.914062 385.433594 C 887.695312 385.582031 887.460938 385.703125 887.214844 385.804688 C 886.972656 385.90625 886.71875 385.984375 886.457031 386.035156 C 886.195312 386.089844 885.933594 386.113281 885.667969 386.113281 Z M 885.667969 386.113281 " fill-opacity="1" fill-rule="nonzero"/><path fill="#e6e6e6" d="M 885.667969 440.664062 L 757.222656 440.664062 C 756.957031 440.664062 756.691406 440.636719 756.433594 440.585938 C 756.171875 440.53125 755.917969 440.457031 755.671875 440.355469 C 755.425781 440.253906 755.195312 440.128906 754.972656 439.980469 C 754.753906 439.835938 754.546875 439.667969 754.359375 439.480469 C 754.171875 439.292969 754.003906 439.085938 753.855469 438.867188 C 753.710938 438.644531 753.585938 438.414062 753.484375 438.167969 C 753.382812 437.921875 753.304688 437.671875 753.253906 437.410156 C 753.203125 437.148438 753.175781 436.886719 753.175781 436.621094 C 753.175781 436.355469 753.203125 436.09375 753.253906 435.832031 C 753.304688 435.574219 753.382812 435.320312 753.484375 435.074219 C 753.585938 434.832031 753.710938 434.597656 753.855469 434.378906 C 754.003906 434.15625 754.171875 433.953125 754.359375 433.765625 C 754.546875 433.578125 754.753906 433.410156 754.972656 433.261719 C 755.195312 433.113281 755.425781 432.992188 755.671875 432.890625 C 755.917969 432.789062 756.171875 432.710938 756.433594 432.660156 C 756.691406 432.605469 756.957031 432.582031 757.222656 432.582031 L 885.667969 432.582031 C 885.933594 432.582031 886.195312 432.605469 886.457031 432.660156 C 886.71875 432.710938 886.972656 432.789062 887.214844 432.890625 C 887.460938 432.992188 887.695312 433.113281 887.914062 433.261719 C 888.136719 433.410156 888.339844 433.578125 888.527344 433.765625 C 888.714844 433.953125 888.882812 434.15625 889.03125 434.378906 C 889.179688 434.597656 889.304688 434.832031 889.40625 435.074219 C 889.507812 435.320312 889.585938 435.574219 889.636719 435.832031 C 889.6875 436.09375 889.714844 436.355469 889.714844 436.621094 C 889.714844 436.886719 889.6875 437.148438 889.636719 437.410156 C 889.585938 437.671875 889.507812 437.921875 889.40625 438.167969 C 889.304688 438.414062 889.179688 438.644531 889.03125 438.867188 C 888.882812 439.085938 888.714844 439.292969 888.527344 439.480469 C 888.339844 439.667969 888.136719 439.835938 887.914062 439.980469 C 887.695312 440.128906 887.460938 440.253906 887.214844 440.355469 C 886.972656 440.457031 886.71875 440.53125 886.457031 440.585938 C 886.195312 440.636719 885.933594 440.664062 885.667969 440.664062 Z M 885.667969 440.664062 " fill-opacity="1" fill-rule="nonzero"/><g clip-path="url(#363d1789e6)"><path fill="#e6e6e6" d="M 564.542969 561.207031 C 550.042969 541.941406 541.660156 520.398438 541.386719 495.839844 C 541.269531 495.511719 541.1875 495.175781 541.140625 494.832031 C 541.089844 494.488281 541.074219 494.144531 541.09375 493.796875 C 541.109375 493.449219 541.164062 493.109375 541.25 492.769531 C 541.335938 492.433594 541.453125 492.109375 541.601562 491.796875 C 541.753906 491.480469 541.929688 491.1875 542.140625 490.90625 C 542.347656 490.628906 542.582031 490.375 542.839844 490.140625 C 543.097656 489.910156 543.375 489.703125 543.675781 489.527344 C 543.972656 489.347656 544.289062 489.199219 544.617188 489.085938 L 594.042969 471.617188 C 594.371094 471.5 594.707031 471.417969 595.050781 471.371094 C 595.394531 471.320312 595.742188 471.304688 596.085938 471.324219 C 596.433594 471.34375 596.777344 471.394531 597.113281 471.480469 C 597.453125 471.566406 597.777344 471.683594 598.089844 471.832031 C 598.40625 471.984375 598.703125 472.160156 598.980469 472.367188 C 599.257812 472.578125 599.515625 472.808594 599.746094 473.066406 C 599.980469 473.328125 600.1875 473.605469 600.363281 473.902344 C 600.542969 474.203125 600.6875 474.515625 600.804688 474.84375 L 623.960938 540.207031 C 624.078125 540.535156 624.160156 540.871094 624.210938 541.214844 C 624.257812 541.558594 624.273438 541.90625 624.257812 542.25 C 624.238281 542.597656 624.1875 542.941406 624.101562 543.277344 C 624.015625 543.613281 623.894531 543.9375 623.746094 544.253906 C 623.597656 544.566406 623.417969 544.863281 623.210938 545.140625 C 623 545.417969 622.769531 545.675781 622.507812 545.90625 C 622.25 546.140625 621.972656 546.34375 621.671875 546.523438 C 621.375 546.699219 621.0625 546.847656 620.734375 546.964844 L 571.308594 564.429688 C 570.980469 564.546875 570.644531 564.628906 570.296875 564.679688 C 569.953125 564.726562 569.609375 564.742188 569.261719 564.726562 C 568.914062 564.707031 568.570312 564.652344 568.234375 564.570312 C 567.898438 564.484375 567.570312 564.363281 567.257812 564.214844 C 566.945312 564.066406 566.648438 563.886719 566.367188 563.679688 C 566.089844 563.472656 565.835938 563.238281 565.601562 562.980469 C 565.367188 562.722656 565.164062 562.445312 564.984375 562.144531 C 564.808594 561.847656 564.660156 561.535156 564.542969 561.207031 Z M 564.542969 561.207031 " fill-opacity="1" fill-rule="nonzero"/></g><path fill="#ffffff" d="M 561.339844 540.125 C 552.617188 531.316406 548.886719 515.609375 546.453125 498.101562 C 546.34375 497.792969 546.265625 497.476562 546.222656 497.15625 C 546.175781 496.835938 546.160156 496.511719 546.175781 496.1875 C 546.195312 495.859375 546.242188 495.539062 546.324219 495.226562 C 546.40625 494.910156 546.515625 494.605469 546.65625 494.3125 C 546.796875 494.019531 546.964844 493.742188 547.15625 493.480469 C 547.351562 493.21875 547.570312 492.980469 547.8125 492.761719 C 548.054688 492.542969 548.316406 492.351562 548.597656 492.1875 C 548.875 492.019531 549.167969 491.882812 549.476562 491.773438 L 591.953125 476.761719 C 592.261719 476.652344 592.578125 476.574219 592.898438 476.53125 C 593.222656 476.484375 593.546875 476.46875 593.871094 476.484375 C 594.195312 476.503906 594.515625 476.550781 594.832031 476.632812 C 595.148438 476.710938 595.453125 476.824219 595.746094 476.964844 C 596.042969 477.101562 596.320312 477.269531 596.578125 477.464844 C 596.839844 477.660156 597.082031 477.878906 597.296875 478.121094 C 597.515625 478.363281 597.710938 478.621094 597.875 478.902344 C 598.042969 479.179688 598.179688 479.472656 598.289062 479.78125 L 618.894531 537.949219 C 619.003906 538.253906 619.082031 538.570312 619.128906 538.890625 C 619.175781 539.214844 619.1875 539.539062 619.171875 539.863281 C 619.152344 540.1875 619.105469 540.507812 619.023438 540.824219 C 618.945312 541.136719 618.832031 541.441406 618.695312 541.734375 C 618.554688 542.03125 618.386719 542.308594 618.191406 542.566406 C 617.996094 542.828125 617.777344 543.066406 617.535156 543.285156 C 617.292969 543.503906 617.03125 543.695312 616.753906 543.863281 C 616.472656 544.027344 616.179688 544.167969 615.871094 544.273438 L 589.558594 553.574219 C 588.875 553.816406 588.183594 554.019531 587.480469 554.195312 C 586.777344 554.367188 586.066406 554.503906 585.351562 554.605469 C 584.632812 554.710938 583.914062 554.777344 583.191406 554.808594 C 582.46875 554.84375 581.746094 554.839844 581.023438 554.800781 C 580.300781 554.761719 579.578125 554.6875 578.863281 554.578125 C 578.148438 554.472656 577.441406 554.328125 576.738281 554.148438 C 576.035156 553.972656 575.347656 553.757812 574.664062 553.511719 C 573.984375 553.265625 573.316406 552.988281 572.664062 552.675781 C 572.011719 552.363281 571.375 552.023438 570.753906 551.648438 C 570.136719 551.273438 569.535156 550.871094 568.957031 550.4375 C 568.375 550.007812 567.816406 549.546875 567.28125 549.058594 C 566.75 548.570312 566.238281 548.058594 565.753906 547.523438 C 565.269531 546.984375 564.8125 546.425781 564.382812 545.84375 C 563.953125 545.261719 563.554688 544.660156 563.183594 544.039062 C 562.8125 543.417969 562.472656 542.78125 562.164062 542.125 C 561.859375 541.472656 561.582031 540.804688 561.339844 540.125 Z M 561.339844 540.125 " fill-opacity="1" fill-rule="nonzero"/><path fill="#6c63ff" d="M 598.859375 511.117188 L 565.769531 522.914062 C 565.503906 523.007812 565.234375 523.046875 564.953125 523.035156 C 564.675781 523.019531 564.410156 522.953125 564.15625 522.835938 C 563.902344 522.714844 563.683594 522.550781 563.496094 522.34375 C 563.304688 522.136719 563.164062 521.902344 563.070312 521.640625 C 562.976562 521.375 562.9375 521.105469 562.953125 520.824219 C 562.964844 520.546875 563.03125 520.28125 563.152344 520.027344 C 563.273438 519.773438 563.4375 519.554688 563.644531 519.367188 C 563.851562 519.179688 564.089844 519.039062 564.351562 518.945312 L 597.441406 507.148438 C 597.703125 507.054688 597.976562 507.015625 598.253906 507.027344 C 598.535156 507.042969 598.800781 507.109375 599.054688 507.226562 C 599.308594 507.347656 599.527344 507.511719 599.71875 507.71875 C 599.90625 507.925781 600.046875 508.160156 600.140625 508.421875 C 600.234375 508.6875 600.273438 508.957031 600.261719 509.238281 C 600.246094 509.515625 600.179688 509.78125 600.058594 510.035156 C 599.9375 510.289062 599.773438 510.507812 599.566406 510.695312 C 599.359375 510.882812 599.121094 511.023438 598.859375 511.117188 Z M 598.859375 511.117188 " fill-opacity="1" fill-rule="nonzero"/><path fill="#6c63ff" d="M 569.164062 509.441406 L 561.882812 512.039062 C 561.621094 512.132812 561.347656 512.171875 561.070312 512.160156 C 560.789062 512.144531 560.523438 512.078125 560.269531 511.957031 C 560.019531 511.839844 559.796875 511.675781 559.609375 511.46875 C 559.421875 511.261719 559.28125 511.027344 559.1875 510.761719 C 559.09375 510.5 559.054688 510.230469 559.070312 509.949219 C 559.082031 509.671875 559.148438 509.40625 559.269531 509.152344 C 559.390625 508.902344 559.550781 508.679688 559.757812 508.496094 C 559.96875 508.308594 560.203125 508.167969 560.464844 508.074219 L 567.746094 505.476562 C 568.007812 505.382812 568.28125 505.339844 568.558594 505.355469 C 568.839844 505.367188 569.105469 505.433594 569.359375 505.554688 C 569.613281 505.671875 569.832031 505.835938 570.019531 506.042969 C 570.210938 506.25 570.351562 506.488281 570.445312 506.75 C 570.539062 507.011719 570.578125 507.285156 570.566406 507.5625 C 570.550781 507.84375 570.484375 508.109375 570.363281 508.363281 C 570.242188 508.613281 570.078125 508.835938 569.871094 509.023438 C 569.664062 509.210938 569.425781 509.351562 569.164062 509.441406 Z M 569.164062 509.441406 " fill-opacity="1" fill-rule="nonzero"/><path fill="#6c63ff" d="M 605.089844 528.550781 L 572 540.347656 C 571.738281 540.441406 571.464844 540.480469 571.1875 540.464844 C 570.910156 540.453125 570.644531 540.386719 570.390625 540.265625 C 570.136719 540.144531 569.917969 539.980469 569.730469 539.773438 C 569.542969 539.570312 569.402344 539.332031 569.308594 539.070312 C 569.214844 538.808594 569.175781 538.539062 569.191406 538.257812 C 569.203125 537.980469 569.269531 537.714844 569.390625 537.464844 C 569.507812 537.210938 569.671875 536.992188 569.878906 536.804688 C 570.085938 536.617188 570.320312 536.476562 570.582031 536.382812 L 603.671875 524.585938 C 603.933594 524.492188 604.207031 524.453125 604.484375 524.46875 C 604.761719 524.480469 605.027344 524.550781 605.28125 524.667969 C 605.53125 524.789062 605.75 524.953125 605.9375 525.160156 C 606.125 525.363281 606.265625 525.601562 606.359375 525.863281 C 606.453125 526.125 606.492188 526.394531 606.480469 526.671875 C 606.464844 526.953125 606.398438 527.214844 606.28125 527.46875 C 606.160156 527.722656 606 527.941406 605.792969 528.128906 C 605.585938 528.316406 605.351562 528.457031 605.089844 528.550781 Z M 605.089844 528.550781 " fill-opacity="1" fill-rule="nonzero"/><path fill="#6c63ff" d="M 601.972656 519.832031 L 568.882812 531.628906 C 568.621094 531.722656 568.351562 531.761719 568.070312 531.746094 C 567.792969 531.734375 567.527344 531.667969 567.277344 531.546875 C 567.023438 531.425781 566.804688 531.261719 566.617188 531.058594 C 566.429688 530.851562 566.289062 530.617188 566.195312 530.351562 C 566.101562 530.089844 566.0625 529.820312 566.078125 529.542969 C 566.089844 529.261719 566.15625 529 566.277344 528.746094 C 566.394531 528.496094 566.558594 528.273438 566.765625 528.085938 C 566.96875 527.898438 567.203125 527.757812 567.46875 527.664062 L 600.554688 515.867188 C 600.820312 515.773438 601.089844 515.734375 601.371094 515.746094 C 601.648438 515.757812 601.917969 515.828125 602.167969 515.945312 C 602.421875 516.066406 602.644531 516.230469 602.832031 516.4375 C 603.019531 516.644531 603.160156 516.878906 603.253906 517.140625 C 603.347656 517.40625 603.386719 517.675781 603.375 517.953125 C 603.359375 518.234375 603.292969 518.5 603.171875 518.753906 C 603.050781 519.003906 602.886719 519.226562 602.679688 519.414062 C 602.472656 519.597656 602.238281 519.738281 601.972656 519.832031 Z M 601.972656 519.832031 " fill-opacity="1" fill-rule="nonzero"/><path fill="#2f2e41" d="M 571.925781 353.160156 C 573.003906 361.84375 579.027344 369.003906 587.789062 369.003906 C 588.308594 369.003906 588.828125 368.976562 589.34375 368.925781 C 589.859375 368.875 590.375 368.800781 590.882812 368.699219 C 591.394531 368.597656 591.894531 368.472656 592.394531 368.320312 C 592.890625 368.171875 593.378906 367.996094 593.859375 367.796875 C 594.339844 367.597656 594.808594 367.375 595.265625 367.132812 C 595.722656 366.886719 596.167969 366.621094 596.601562 366.332031 C 597.03125 366.042969 597.449219 365.734375 597.851562 365.40625 C 598.253906 365.078125 598.636719 364.730469 599.003906 364.363281 C 599.371094 363.996094 599.71875 363.613281 600.050781 363.210938 C 600.378906 362.808594 600.6875 362.394531 600.976562 361.960938 C 601.265625 361.53125 601.53125 361.085938 601.777344 360.628906 C 602.023438 360.171875 602.246094 359.703125 602.441406 359.222656 C 602.640625 358.742188 602.816406 358.253906 602.96875 357.757812 C 603.117188 357.261719 603.246094 356.761719 603.347656 356.25 C 603.445312 355.742188 603.523438 355.230469 603.574219 354.714844 C 603.625 354.195312 603.652344 353.679688 603.652344 353.160156 C 603.652344 344.410156 596.511719 338.125 587.789062 337.316406 C 578.535156 336.460938 570.542969 342.011719 571.925781 353.160156 Z M 571.925781 353.160156 " fill-opacity="1" fill-rule="nonzero"/><path fill="#2f2e41" d="M 601.597656 459.886719 C 591.789062 461.570312 582.03125 461.3125 572.328125 459.109375 C 576.890625 456.59375 590.726562 458.140625 601.597656 459.886719 Z M 601.597656 459.886719 " fill-opacity="1" fill-rule="nonzero"/><path fill="#ffb6b6" d="M 539.863281 487.753906 L 547.480469 469.363281 L 553.484375 472.695312 L 549.859375 491.402344 C 549.980469 491.796875 550.0625 492.195312 550.109375 492.605469 C 550.15625 493.015625 550.164062 493.425781 550.132812 493.835938 C 550.101562 494.246094 550.035156 494.652344 549.929688 495.046875 C 549.824219 495.445312 549.683594 495.832031 549.507812 496.203125 C 549.332031 496.574219 549.121094 496.929688 548.878906 497.261719 C 548.636719 497.59375 548.367188 497.902344 548.070312 498.1875 C 547.769531 498.46875 547.445312 498.722656 547.101562 498.945312 C 546.753906 499.171875 546.390625 499.359375 546.007812 499.515625 C 545.628906 499.671875 545.234375 499.792969 544.832031 499.875 C 544.429688 499.960938 544.019531 500.003906 543.609375 500.011719 C 543.195312 500.019531 542.789062 499.992188 542.378906 499.921875 C 541.972656 499.855469 541.578125 499.75 541.191406 499.609375 C 540.804688 499.46875 540.433594 499.292969 540.078125 499.082031 C 539.722656 498.871094 539.390625 498.632812 539.082031 498.359375 C 538.769531 498.089844 538.488281 497.792969 538.234375 497.46875 C 537.980469 497.144531 537.757812 496.800781 537.566406 496.433594 C 537.375 496.070312 537.21875 495.691406 537.097656 495.296875 C 536.980469 494.902344 536.894531 494.5 536.851562 494.09375 C 536.804688 493.683594 536.796875 493.273438 536.828125 492.863281 C 536.855469 492.453125 536.925781 492.046875 537.03125 491.648438 C 537.136719 491.253906 537.277344 490.867188 537.453125 490.496094 C 537.628906 490.125 537.839844 489.769531 538.082031 489.4375 C 538.324219 489.105469 538.59375 488.796875 538.894531 488.511719 C 539.191406 488.230469 539.515625 487.976562 539.863281 487.753906 Z M 539.863281 487.753906 " fill-opacity="1" fill-rule="nonzero"/><path fill="#6c63ff" d="M 618.679688 437.988281 L 618.679688 437.996094 C 618.40625 444.402344 618.03125 450.492188 617.71875 455.179688 C 608.511719 459.046875 598.914062 460.976562 588.925781 460.96875 C 583.324219 460.972656 577.789062 460.355469 572.328125 459.109375 C 569.808594 458.539062 567.328125 457.832031 564.882812 456.988281 C 565.226562 456.769531 565.589844 456.597656 565.976562 456.472656 C 569.617188 455.242188 566.015625 454.121094 566.046875 452.949219 C 566.160156 448.664062 567.339844 443.523438 568.867188 438.59375 L 562.074219 455.96875 L 558.53125 465 C 558.53125 465 558.652344 472.796875 556.410156 470.414062 C 554.152344 468.03125 554.316406 475.746094 554.316406 475.746094 C 553.609375 476.25 553.015625 476.863281 552.535156 477.585938 C 552.328125 477.917969 552.257812 478.28125 552.324219 478.667969 L 552.324219 478.675781 C 552.425781 478.980469 552.617188 479.214844 552.890625 479.382812 C 554.417969 480.414062 552.222656 483.140625 551.25 484.222656 C 550.988281 484.515625 550.816406 484.6875 550.816406 484.6875 L 541.480469 484.019531 L 541.480469 483.839844 C 541.519531 482.738281 541.773438 476.9375 543.21875 475.554688 C 544.808594 474.03125 544.027344 471.617188 544.027344 471.617188 C 544.027344 471.617188 548.175781 467.949219 545.394531 464.96875 C 544.28125 463.765625 544.777344 456.644531 546.144531 447.433594 C 549.125 427.109375 556.277344 396.601562 559.371094 397.035156 C 559.691406 395.488281 560.214844 394.011719 560.941406 392.609375 C 561.667969 391.207031 562.570312 389.929688 563.652344 388.777344 C 564.734375 387.625 565.949219 386.636719 567.304688 385.820312 C 568.65625 385.003906 570.09375 384.382812 571.621094 383.964844 L 581.703125 381.195312 L 583.503906 374.09375 L 597.703125 374.09375 L 600.171875 378.761719 L 610.519531 383.429688 L 610.648438 383.488281 L 610.972656 383.628906 L 611.09375 384.015625 C 611.09375 384.015625 611.085938 384.023438 611.09375 384.023438 L 616.847656 402.074219 C 619.4375 405.046875 619.335938 422.402344 618.679688 437.988281 Z M 618.679688 437.988281 " fill-opacity="1" fill-rule="nonzero"/><path fill="#ffb6b6" d="M 642.859375 474.363281 L 633.246094 456.929688 L 639.601562 454.328125 L 651.957031 468.847656 C 652.34375 468.996094 652.707031 469.183594 653.054688 469.402344 C 653.40625 469.621094 653.730469 469.871094 654.03125 470.152344 C 654.335938 470.433594 654.609375 470.738281 654.855469 471.070312 C 655.101562 471.398438 655.3125 471.75 655.492188 472.121094 C 655.675781 472.488281 655.820312 472.875 655.929688 473.269531 C 656.039062 473.667969 656.109375 474.070312 656.144531 474.480469 C 656.179688 474.890625 656.175781 475.300781 656.132812 475.710938 C 656.09375 476.121094 656.011719 476.523438 655.898438 476.917969 C 655.78125 477.3125 655.628906 477.691406 655.441406 478.058594 C 655.253906 478.425781 655.035156 478.773438 654.785156 479.101562 C 654.535156 479.425781 654.253906 479.726562 653.949219 480 C 653.640625 480.277344 653.3125 480.519531 652.957031 480.734375 C 652.605469 480.949219 652.238281 481.128906 651.851562 481.273438 C 651.464844 481.417969 651.070312 481.527344 650.664062 481.597656 C 650.257812 481.671875 649.847656 481.703125 649.4375 481.699219 C 649.023438 481.695312 648.617188 481.65625 648.210938 481.578125 C 647.808594 481.496094 647.414062 481.382812 647.03125 481.230469 C 646.648438 481.078125 646.28125 480.890625 645.933594 480.671875 C 645.585938 480.453125 645.261719 480.203125 644.957031 479.921875 C 644.65625 479.640625 644.382812 479.335938 644.136719 479.003906 C 643.890625 478.675781 643.679688 478.324219 643.5 477.953125 C 643.316406 477.582031 643.171875 477.199219 643.0625 476.800781 C 642.953125 476.40625 642.882812 476 642.847656 475.589844 C 642.816406 475.179688 642.820312 474.773438 642.859375 474.363281 Z M 642.859375 474.363281 " fill-opacity="1" fill-rule="nonzero"/><path fill="#6c63ff" d="M 610.519531 383.289062 C 612.230469 386.359375 627.871094 394.253906 625.160156 402.179688 C 625.160156 402.179688 639.855469 448.097656 641.769531 447.796875 C 643.679688 447.5 645.542969 452.242188 645.542969 452.242188 C 645.542969 452.242188 645.136719 455.335938 646.332031 454.050781 C 647.523438 452.765625 647.238281 456.136719 647.238281 456.136719 C 647.238281 456.136719 646.664062 459.113281 648.179688 458.304688 C 649.691406 457.492188 647.703125 463.191406 647.703125 463.191406 L 638.609375 467.46875 L 636.878906 464.898438 C 636.878906 464.898438 633.1875 464.195312 634.925781 463.640625 C 636.664062 463.082031 633.289062 461.210938 633.289062 461.210938 C 633.289062 461.210938 629.761719 458.816406 630.253906 454.851562 C 630.746094 450.882812 621.101562 443.089844 621.101562 443.089844 C 614.46875 430.011719 610.84375 416.589844 610.855469 402.742188 Z M 610.519531 383.289062 " fill-opacity="1" fill-rule="nonzero"/><path fill="#ffb6b6" d="M 603.609375 355.894531 C 603.609375 356.816406 603.519531 357.730469 603.335938 358.636719 C 603.15625 359.539062 602.890625 360.417969 602.539062 361.269531 C 602.183594 362.125 601.75 362.933594 601.238281 363.699219 C 600.722656 364.464844 600.140625 365.175781 599.488281 365.828125 C 598.835938 366.480469 598.125 367.0625 597.355469 367.574219 C 596.589844 368.089844 595.777344 368.519531 594.925781 368.875 C 594.070312 369.226562 593.191406 369.492188 592.285156 369.671875 C 591.378906 369.851562 590.464844 369.941406 589.542969 369.941406 C 588.617188 369.941406 587.703125 369.851562 586.796875 369.671875 C 585.894531 369.492188 585.011719 369.226562 584.160156 368.875 C 583.304688 368.519531 582.496094 368.089844 581.726562 367.574219 C 580.960938 367.0625 580.25 366.480469 579.597656 365.828125 C 578.945312 365.175781 578.359375 364.464844 577.847656 363.699219 C 577.335938 362.933594 576.902344 362.125 576.546875 361.269531 C 576.195312 360.417969 575.925781 359.539062 575.746094 358.636719 C 575.566406 357.730469 575.476562 356.816406 575.476562 355.894531 C 575.476562 354.972656 575.566406 354.058594 575.746094 353.15625 C 575.925781 352.25 576.195312 351.371094 576.546875 350.519531 C 576.902344 349.667969 577.335938 348.855469 577.847656 348.089844 C 578.359375 347.324219 578.945312 346.613281 579.597656 345.960938 C 580.25 345.308594 580.960938 344.726562 581.726562 344.214844 C 582.496094 343.703125 583.304688 343.269531 584.160156 342.917969 C 585.011719 342.5625 585.894531 342.296875 586.796875 342.117188 C 587.703125 341.9375 588.617188 341.847656 589.542969 341.847656 C 590.464844 341.847656 591.378906 341.9375 592.285156 342.117188 C 593.191406 342.296875 594.070312 342.5625 594.925781 342.917969 C 595.777344 343.269531 596.589844 343.703125 597.355469 344.214844 C 598.125 344.726562 598.835938 345.308594 599.488281 345.960938 C 600.140625 346.613281 600.722656 347.324219 601.238281 348.089844 C 601.75 348.855469 602.183594 349.667969 602.539062 350.519531 C 602.890625 351.371094 603.15625 352.25 603.335938 353.15625 C 603.519531 354.058594 603.609375 354.972656 603.609375 355.894531 Z M 603.609375 355.894531 " fill-opacity="1" fill-rule="nonzero"/><path fill="#2f2e41" d="M 574.976562 357.425781 C 575.421875 360.476562 578.027344 364.738281 577.417969 364.738281 C 576.808594 364.738281 572.46875 352.152344 576.808594 351.332031 C 579.953125 350.738281 580.65625 351.257812 583.597656 349.984375 L 583.183594 350.375 C 585.128906 351.789062 587.835938 350.917969 590.058594 349.996094 C 592.285156 349.082031 594.988281 348.210938 596.941406 349.621094 C 598.167969 350.503906 598.683594 352.039062 599.445312 353.34375 C 600.210938 354.652344 601.617188 355.890625 603.070312 355.488281 C 603.355469 355.378906 603.613281 355.226562 603.847656 355.039062 C 604.082031 354.847656 604.285156 354.625 604.449219 354.367188 C 604.613281 354.113281 604.734375 353.839844 604.8125 353.546875 C 604.886719 353.253906 604.917969 352.957031 604.902344 352.65625 C 604.894531 351.449219 603.320312 350.300781 603.851562 349.21875 C 605.421875 346.011719 604.011719 343.824219 600.589844 342.3125 C 599.34375 342.125 598.097656 341.933594 596.855469 341.734375 C 597.511719 340.828125 598.292969 340.042969 599.195312 339.382812 C 598.808594 338.386719 598.179688 337.582031 597.304688 336.964844 C 596.226562 336.464844 595.101562 336.300781 593.925781 336.476562 C 591.351562 336.609375 588.777344 336.746094 586.207031 336.878906 C 584.273438 336.84375 582.414062 337.207031 580.632812 337.964844 C 578.507812 339.054688 577.117188 341.179688 576.105469 343.34375 C 573.835938 348.207031 574.195312 352.117188 574.976562 357.425781 Z M 574.976562 357.425781 " fill-opacity="1" fill-rule="nonzero"/><path fill="#e6e6e6" d="M 926.832031 348.210938 L 715.300781 348.210938 C 715.058594 348.210938 714.851562 348.125 714.679688 347.953125 C 714.507812 347.78125 714.421875 347.578125 714.421875 347.335938 C 714.421875 347.09375 714.507812 346.886719 714.679688 346.714844 C 714.851562 346.542969 715.058594 346.457031 715.300781 346.457031 L 926.832031 346.457031 C 927.074219 346.457031 927.28125 346.542969 927.453125 346.714844 C 927.625 346.886719 927.710938 347.09375 927.710938 347.335938 C 927.710938 347.578125 927.625 347.78125 927.453125 347.953125 C 927.28125 348.125 927.074219 348.210938 926.832031 348.210938 Z M 926.832031 348.210938 " fill-opacity="1" fill-rule="nonzero"/><path fill="#e6e6e6" d="M 926.832031 402.597656 L 715.300781 402.597656 C 715.058594 402.597656 714.851562 402.511719 714.679688 402.339844 C 714.507812 402.167969 714.421875 401.960938 714.421875 401.71875 C 714.421875 401.476562 714.507812 401.269531 714.679688 401.097656 C 714.851562 400.929688 715.058594 400.84375 715.300781 400.84375 L 926.832031 400.84375 C 927.074219 400.84375 927.28125 400.929688 927.453125 401.097656 C 927.625 401.269531 927.710938 401.476562 927.710938 401.71875 C 927.710938 401.960938 927.625 402.167969 927.453125 402.339844 C 927.28125 402.511719 927.074219 402.597656 926.832031 402.597656 Z M 926.832031 402.597656 " fill-opacity="1" fill-rule="nonzero"/><path fill="#e6e6e6" d="M 926.832031 456.980469 L 715.300781 456.980469 C 715.058594 456.980469 714.851562 456.894531 714.679688 456.726562 C 714.507812 456.554688 714.421875 456.347656 714.421875 456.105469 C 714.421875 455.863281 714.507812 455.65625 714.679688 455.484375 C 714.851562 455.3125 715.058594 455.226562 715.300781 455.226562 L 926.832031 455.226562 C 927.074219 455.226562 927.28125 455.3125 927.453125 455.484375 C 927.625 455.65625 927.710938 455.863281 927.710938 456.105469 C 927.710938 456.347656 927.625 456.554688 927.453125 456.726562 C 927.28125 456.894531 927.074219 456.980469 926.832031 456.980469 Z M 926.832031 456.980469 " fill-opacity="1" fill-rule="nonzero"/><g clip-path="url(#273003b8fe)"><path fill="#e6e6e6" d="M 958.316406 453.503906 C 956.394531 453.503906 954.488281 453.335938 952.597656 453 C 950.707031 452.660156 948.859375 452.160156 947.058594 451.496094 C 945.257812 450.832031 943.527344 450.011719 941.871094 449.042969 C 940.214844 448.070312 938.65625 446.960938 937.195312 445.714844 C 935.234375 444.039062 933.140625 441.117188 930.980469 437.042969 C 930.289062 435.730469 929.753906 434.359375 929.371094 432.925781 C 928.992188 431.492188 928.773438 430.035156 928.71875 428.554688 C 928.664062 427.070312 928.773438 425.601562 929.050781 424.144531 C 929.324219 422.6875 929.757812 421.28125 930.351562 419.921875 C 929.207031 421.082031 927.953125 422.109375 926.585938 423.003906 L 925.898438 423.460938 L 925.859375 422.636719 C 925.832031 422.101562 925.820312 421.566406 925.820312 421.050781 C 925.820312 418 928.128906 414.90625 927.0625 412.085938 C 922.574219 400.207031 908.339844 388.402344 928.972656 370.019531 C 930.878906 368.316406 928.332031 364.917969 928.332031 362.34375 C 928.332031 337.125 964.015625 293.5 974.128906 316.609375 C 986.601562 345.113281 1008.089844 342.0625 1017.609375 347.949219 L 1017.746094 348.367188 L 1017.339844 348.53125 C 1015.246094 349.410156 1013.074219 349.988281 1010.820312 350.265625 C 1013.21875 350.753906 1015.644531 350.957031 1018.089844 350.871094 L 1018.46875 350.859375 L 1018.5625 351.226562 C 1019.472656 354.875 1019.925781 358.582031 1019.925781 362.34375 L 1019.925781 362.75 C 1019.921875 364.171875 1020.066406 365.578125 1020.359375 366.972656 C 1020.652344 368.367188 1021.085938 369.710938 1021.664062 371.015625 C 1022.238281 372.316406 1022.945312 373.542969 1023.78125 374.695312 C 1024.617188 375.847656 1025.566406 376.898438 1026.625 377.851562 C 1028.296875 379.375 1029.792969 381.054688 1031.113281 382.886719 C 1032.4375 384.71875 1033.554688 386.671875 1034.46875 388.738281 C 1035.382812 390.804688 1036.074219 392.941406 1036.542969 395.152344 C 1037.011719 397.363281 1037.246094 399.597656 1037.25 401.855469 C 1037.25 407.203125 1033.613281 414.21875 1030.558594 419.164062 C 1029.777344 420.441406 1028.753906 421.484375 1027.492188 422.289062 C 1026.230469 423.097656 1024.855469 423.589844 1023.367188 423.765625 C 1021.957031 423.945312 1020.578125 423.816406 1019.226562 423.378906 C 1017.875 422.945312 1016.679688 422.242188 1015.644531 421.277344 C 1017.09375 424.195312 1018.957031 426.824219 1021.222656 429.167969 L 1021.640625 429.597656 L 1021.125 429.898438 C 1018.640625 431.34375 1016.007812 432.441406 1013.234375 433.191406 C 1010.457031 433.9375 1007.628906 434.3125 1004.753906 434.3125 L 1004.417969 434.3125 C 1002.308594 434.289062 1000.21875 434.476562 998.148438 434.871094 C 996.078125 435.265625 994.066406 435.859375 992.113281 436.65625 C 990.160156 437.453125 988.304688 438.433594 986.550781 439.597656 C 984.792969 440.765625 983.167969 442.09375 981.679688 443.582031 C 980.160156 445.144531 978.503906 446.539062 976.703125 447.773438 C 974.90625 449.003906 973.003906 450.042969 971 450.898438 C 968.992188 451.75 966.921875 452.394531 964.789062 452.832031 C 962.652344 453.273438 960.496094 453.496094 958.316406 453.503906 Z M 958.316406 453.503906 " fill-opacity="1" fill-rule="nonzero"/></g><path fill="#3f3d56" d="M 947.136719 504.902344 C 946.988281 504.902344 946.863281 504.855469 946.753906 504.761719 C 946.644531 504.664062 946.578125 504.546875 946.558594 504.402344 C 945.023438 490.753906 944.933594 477.09375 946.285156 463.425781 C 948.300781 441.925781 954.78125 410.957031 974.183594 385.523438 C 974.28125 385.390625 974.410156 385.316406 974.570312 385.292969 C 974.730469 385.273438 974.875 385.308594 975.003906 385.40625 C 975.132812 385.507812 975.210938 385.636719 975.230469 385.796875 C 975.25 385.957031 975.210938 386.101562 975.113281 386.230469 C 955.875 411.445312 949.453125 442.1875 947.449219 463.535156 C 946.105469 477.113281 946.195312 490.679688 947.714844 504.238281 C 947.738281 504.414062 947.695312 504.566406 947.578125 504.703125 C 947.460938 504.835938 947.3125 504.902344 947.136719 504.902344 Z M 947.136719 504.902344 " fill-opacity="1" fill-rule="nonzero"/><path fill="#3f3d56" d="M 962.96875 421.398438 C 962.6875 421.398438 962.5 421.265625 962.414062 420.996094 C 962.328125 420.726562 962.398438 420.507812 962.625 420.34375 C 968.175781 416.589844 974.105469 413.578125 980.40625 411.300781 C 990.21875 407.714844 1005.136719 404.464844 1020.492188 409.34375 C 1020.648438 409.394531 1020.761719 409.488281 1020.835938 409.632812 C 1020.914062 409.777344 1020.925781 409.925781 1020.875 410.078125 C 1020.828125 410.234375 1020.730469 410.347656 1020.585938 410.421875 C 1020.441406 410.496094 1020.292969 410.507812 1020.140625 410.457031 C 1005.097656 405.675781 990.449219 408.875 980.808594 412.398438 C 974.605469 414.632812 968.773438 417.597656 963.3125 421.289062 C 963.210938 421.363281 963.097656 421.398438 962.96875 421.398438 Z M 962.96875 421.398438 " fill-opacity="1" fill-rule="nonzero"/><path fill="#3f3d56" d="M 936.222656 354.863281 C 936.203125 354.582031 936.324219 354.386719 936.585938 354.28125 C 936.847656 354.175781 937.070312 354.230469 937.253906 354.445312 C 941.398438 359.703125 944.835938 365.390625 947.5625 371.507812 C 951.851562 381.023438 956.171875 395.648438 952.402344 411.300781 C 952.367188 411.457031 952.277344 411.578125 952.140625 411.660156 C 952.003906 411.746094 951.855469 411.769531 951.699219 411.730469 C 951.542969 411.695312 951.421875 411.605469 951.335938 411.46875 C 951.253906 411.332031 951.230469 411.183594 951.265625 411.027344 C 954.957031 395.695312 950.710938 381.335938 946.496094 371.988281 C 943.816406 365.96875 940.4375 360.371094 936.359375 355.199219 C 936.277344 355.101562 936.234375 354.988281 936.222656 354.863281 Z M 936.222656 354.863281 " fill-opacity="1" fill-rule="nonzero"/><g clip-path="url(#bb4bff460b)"><path fill="#e6e6e6" d="M 458.320312 441.828125 C 456.832031 440.339844 455.207031 439.011719 453.449219 437.847656 C 451.695312 436.679688 449.839844 435.699219 447.886719 434.902344 C 445.933594 434.109375 443.921875 433.511719 441.851562 433.117188 C 439.78125 432.722656 437.691406 432.535156 435.582031 432.558594 L 435.246094 432.558594 C 432.371094 432.558594 429.542969 432.1875 426.765625 431.4375 C 423.992188 430.6875 421.359375 429.589844 418.875 428.144531 L 418.359375 427.84375 L 418.777344 427.414062 C 421.042969 425.070312 422.902344 422.441406 424.355469 419.523438 C 423.320312 420.488281 422.125 421.191406 420.773438 421.625 C 419.421875 422.0625 418.042969 422.191406 416.632812 422.015625 C 415.144531 421.835938 413.769531 421.34375 412.507812 420.539062 C 411.246094 419.730469 410.222656 418.6875 409.441406 417.410156 C 406.386719 412.464844 402.75 405.449219 402.75 400.101562 C 402.753906 397.84375 402.988281 395.609375 403.457031 393.398438 C 403.925781 391.1875 404.617188 389.050781 405.53125 386.984375 C 406.445312 384.917969 407.5625 382.964844 408.886719 381.132812 C 410.207031 379.300781 411.703125 377.621094 413.375 376.097656 C 414.433594 375.144531 415.382812 374.09375 416.21875 372.941406 C 417.054688 371.789062 417.761719 370.5625 418.335938 369.261719 C 418.914062 367.960938 419.347656 366.613281 419.640625 365.21875 C 419.933594 363.828125 420.078125 362.417969 420.074219 360.996094 L 420.074219 360.589844 C 420.074219 356.828125 420.527344 353.121094 421.4375 349.472656 L 421.53125 349.105469 L 421.910156 349.117188 C 424.355469 349.203125 426.78125 349 429.179688 348.511719 C 426.925781 348.234375 424.753906 347.65625 422.660156 346.777344 L 422.253906 346.613281 L 422.390625 346.199219 C 431.910156 340.308594 453.398438 343.359375 465.871094 314.855469 C 475.984375 291.746094 511.667969 335.371094 511.667969 360.589844 C 511.667969 363.164062 509.121094 366.5625 511.027344 368.265625 C 531.660156 386.648438 517.425781 398.453125 512.9375 410.332031 C 511.871094 413.152344 514.179688 416.246094 514.179688 419.296875 C 514.179688 419.8125 514.167969 420.347656 514.140625 420.882812 L 514.101562 421.707031 L 513.414062 421.25 C 512.046875 420.355469 510.792969 419.328125 509.648438 418.167969 C 510.242188 419.527344 510.675781 420.933594 510.949219 422.390625 C 511.226562 423.847656 511.335938 425.316406 511.28125 426.800781 C 511.226562 428.28125 511.007812 429.738281 510.628906 431.171875 C 510.246094 432.605469 509.710938 433.976562 509.019531 435.289062 C 506.859375 439.367188 504.765625 442.285156 502.804688 443.960938 C 502.027344 444.625 501.21875 445.253906 500.382812 445.839844 C 499.546875 446.429688 498.683594 446.976562 497.792969 447.484375 C 496.90625 447.992188 495.996094 448.453125 495.0625 448.875 C 494.128906 449.296875 493.179688 449.671875 492.210938 450.003906 C 491.246094 450.332031 490.261719 450.617188 489.269531 450.855469 C 488.273438 451.09375 487.269531 451.285156 486.257812 451.429688 C 485.242188 451.574219 484.226562 451.667969 483.203125 451.714844 C 482.183594 451.765625 481.160156 451.761719 480.136719 451.714844 C 479.117188 451.664062 478.097656 451.566406 477.085938 451.421875 C 476.074219 451.277344 475.070312 451.085938 474.074219 450.84375 C 473.082031 450.605469 472.097656 450.320312 471.132812 449.988281 C 470.164062 449.652344 469.214844 449.277344 468.28125 448.855469 C 467.351562 448.433594 466.441406 447.96875 465.554688 447.457031 C 464.667969 446.949219 463.804688 446.402344 462.96875 445.8125 C 462.132812 445.222656 461.328125 444.59375 460.550781 443.929688 C 459.773438 443.265625 459.03125 442.5625 458.320312 441.828125 Z M 458.320312 441.828125 " fill-opacity="1" fill-rule="nonzero"/></g><path fill="#3f3d56" d="M 492.863281 503.148438 C 493.011719 503.148438 493.136719 503.101562 493.246094 503.007812 C 493.355469 502.910156 493.421875 502.792969 493.441406 502.648438 C 494.976562 489 495.066406 475.339844 493.714844 461.675781 C 491.699219 440.171875 485.21875 409.203125 465.816406 383.769531 C 465.71875 383.640625 465.589844 383.566406 465.429688 383.542969 C 465.269531 383.519531 465.125 383.558594 464.996094 383.65625 C 464.867188 383.753906 464.792969 383.882812 464.769531 384.042969 C 464.75 384.203125 464.789062 384.347656 464.886719 384.476562 C 484.121094 409.691406 490.546875 440.433594 492.550781 461.78125 C 493.894531 475.359375 493.804688 488.925781 492.285156 502.484375 C 492.261719 502.660156 492.304688 502.8125 492.421875 502.949219 C 492.539062 503.082031 492.6875 503.148438 492.863281 503.148438 Z M 492.863281 503.148438 " fill-opacity="1" fill-rule="nonzero"/><path fill="#3f3d56" d="M 477.03125 419.644531 C 477.3125 419.644531 477.496094 419.511719 477.585938 419.242188 C 477.671875 418.972656 477.601562 418.753906 477.375 418.589844 C 471.824219 414.835938 465.894531 411.824219 459.59375 409.550781 C 449.78125 405.960938 434.863281 402.710938 419.503906 407.589844 C 419.351562 407.640625 419.238281 407.738281 419.164062 407.878906 C 419.089844 408.023438 419.078125 408.171875 419.125 408.324219 C 419.175781 408.476562 419.269531 408.59375 419.414062 408.664062 C 419.558594 408.738281 419.707031 408.753906 419.859375 408.703125 C 434.902344 403.921875 449.550781 407.121094 459.191406 410.644531 C 465.394531 412.878906 471.226562 415.84375 476.6875 419.535156 C 476.789062 419.609375 476.902344 419.644531 477.03125 419.644531 Z M 477.03125 419.644531 " fill-opacity="1" fill-rule="nonzero"/><path fill="#3f3d56" d="M 503.777344 353.109375 C 503.796875 352.828125 503.675781 352.632812 503.414062 352.527344 C 503.152344 352.421875 502.929688 352.476562 502.746094 352.691406 C 498.597656 357.949219 495.164062 363.636719 492.4375 369.753906 C 488.148438 379.269531 483.828125 393.894531 487.597656 409.546875 C 487.632812 409.703125 487.722656 409.824219 487.859375 409.90625 C 487.996094 409.992188 488.144531 410.015625 488.300781 409.976562 C 488.457031 409.941406 488.578125 409.851562 488.664062 409.714844 C 488.746094 409.578125 488.769531 409.429688 488.734375 409.273438 C 485.039062 393.945312 489.289062 379.582031 493.503906 370.234375 C 496.183594 364.214844 499.5625 358.621094 503.640625 353.445312 C 503.722656 353.347656 503.765625 353.238281 503.777344 353.109375 Z M 503.777344 353.109375 " fill-opacity="1" fill-rule="nonzero"/></svg>