<svg xmlns="http://www.w3.org/2000/svg" xmlns:xlink="http://www.w3.org/1999/xlink" width="479" zoomAndPan="magnify" viewBox="0 0 359.25 290.250005" height="387" preserveAspectRatio="xMidYMid meet" version="1.0"><defs><clipPath id="bc06261d99"><path d="M 177 43 L 357.664062 43 L 357.664062 232 L 177 232 Z M 177 43 " clip-rule="nonzero"/></clipPath><clipPath id="560817c94d"><path d="M 20 245 L 65 245 L 65 289.375 L 20 289.375 Z M 20 245 " clip-rule="nonzero"/></clipPath><clipPath id="add5a39cb2"><path d="M 20 246 L 65 246 L 65 289.375 L 20 289.375 Z M 20 246 " clip-rule="nonzero"/></clipPath><clipPath id="7c5ff60174"><path d="M 88 282 L 107 282 L 107 289.375 L 88 289.375 Z M 88 282 " clip-rule="nonzero"/></clipPath><clipPath id="76feb74ecc"><path d="M 58 282 L 76 282 L 76 289.375 L 58 289.375 Z M 58 282 " clip-rule="nonzero"/></clipPath><clipPath id="a33f67d66d"><path d="M 0.0898438 288 L 170 288 L 170 289.375 L 0.0898438 289.375 Z M 0.0898438 288 " clip-rule="nonzero"/></clipPath><clipPath id="eb41566adc"><path d="M 263.410156 0 L 347.191406 0 L 347.191406 83.785156 L 263.410156 83.785156 Z M 263.410156 0 " clip-rule="nonzero"/></clipPath></defs><g clip-path="url(#bc06261d99)"><path fill="#f2f2f2" d="M 296.578125 231.304688 L 177.949219 177.144531 L 239.03125 43.332031 L 357.660156 97.492188 Z M 296.578125 231.304688 " fill-opacity="1" fill-rule="nonzero"/></g><path fill="#ffffff" d="M 314.648438 153.566406 L 224.84375 112.566406 C 224.667969 112.484375 224.546875 112.355469 224.480469 112.171875 C 224.414062 111.992188 224.417969 111.8125 224.5 111.640625 C 224.578125 111.464844 224.710938 111.339844 224.890625 111.273438 C 225.070312 111.207031 225.25 111.210938 225.425781 111.289062 L 315.230469 152.292969 C 315.40625 152.371094 315.527344 152.503906 315.597656 152.683594 C 315.664062 152.867188 315.65625 153.042969 315.578125 153.222656 C 315.496094 153.398438 315.367188 153.519531 315.183594 153.585938 C 315.003906 153.652344 314.824219 153.648438 314.648438 153.566406 Z M 314.648438 153.566406 " fill-opacity="1" fill-rule="nonzero"/><path fill="#ffffff" d="M 319.640625 142.628906 L 229.835938 101.628906 C 229.660156 101.546875 229.539062 101.414062 229.472656 101.234375 C 229.402344 101.054688 229.410156 100.875 229.488281 100.699219 C 229.570312 100.523438 229.703125 100.398438 229.882812 100.332031 C 230.0625 100.265625 230.242188 100.269531 230.417969 100.351562 L 320.222656 141.351562 C 320.402344 141.433594 320.523438 141.5625 320.59375 141.746094 C 320.660156 141.925781 320.652344 142.105469 320.574219 142.28125 C 320.492188 142.460938 320.363281 142.582031 320.179688 142.648438 C 319.996094 142.714844 319.816406 142.710938 319.640625 142.628906 Z M 319.640625 142.628906 " fill-opacity="1" fill-rule="nonzero"/><path fill="#ffffff" d="M 324.636719 131.6875 L 234.832031 90.6875 C 234.65625 90.605469 234.53125 90.476562 234.464844 90.292969 C 234.398438 90.113281 234.402344 89.933594 234.484375 89.757812 C 234.5625 89.582031 234.695312 89.460938 234.875 89.394531 C 235.058594 89.324219 235.238281 89.332031 235.414062 89.410156 L 325.21875 130.414062 C 325.394531 130.492188 325.515625 130.625 325.582031 130.804688 C 325.648438 130.988281 325.640625 131.164062 325.5625 131.339844 C 325.480469 131.515625 325.351562 131.636719 325.171875 131.707031 C 324.988281 131.773438 324.8125 131.769531 324.636719 131.6875 Z M 324.636719 131.6875 " fill-opacity="1" fill-rule="nonzero"/><path fill="#ffffff" d="M 329.628906 120.75 L 239.824219 79.746094 C 239.648438 79.667969 239.527344 79.535156 239.457031 79.355469 C 239.390625 79.171875 239.398438 78.996094 239.476562 78.820312 C 239.558594 78.640625 239.6875 78.519531 239.871094 78.453125 C 240.050781 78.386719 240.230469 78.390625 240.40625 78.472656 L 330.210938 119.472656 C 330.386719 119.554688 330.507812 119.683594 330.574219 119.867188 C 330.640625 120.046875 330.636719 120.226562 330.554688 120.402344 C 330.476562 120.578125 330.34375 120.699219 330.164062 120.765625 C 329.984375 120.832031 329.804688 120.828125 329.628906 120.75 Z M 329.628906 120.75 " fill-opacity="1" fill-rule="nonzero"/><path fill="#ffffff" d="M 310.136719 163.453125 L 220.328125 122.453125 C 220.152344 122.371094 220.03125 122.242188 219.964844 122.058594 C 219.894531 121.878906 219.902344 121.699219 219.980469 121.523438 C 220.0625 121.347656 220.195312 121.226562 220.375 121.15625 C 220.558594 121.089844 220.734375 121.097656 220.914062 121.175781 L 310.71875 162.179688 C 310.894531 162.257812 311.015625 162.390625 311.082031 162.570312 C 311.148438 162.753906 311.140625 162.929688 311.0625 163.105469 C 310.980469 163.28125 310.851562 163.402344 310.671875 163.472656 C 310.488281 163.539062 310.3125 163.535156 310.136719 163.453125 Z M 310.136719 163.453125 " fill-opacity="1" fill-rule="nonzero"/><path fill="#ffffff" d="M 325.132812 104.703125 L 254.980469 72.675781 C 254.785156 72.589844 254.609375 72.472656 254.453125 72.324219 C 254.300781 72.171875 254.179688 72 254.085938 71.804688 C 253.996094 71.609375 253.941406 71.40625 253.925781 71.191406 C 253.910156 70.976562 253.933594 70.765625 253.996094 70.5625 C 254.074219 70.335938 254.191406 70.132812 254.351562 69.957031 C 254.515625 69.78125 254.707031 69.648438 254.925781 69.550781 C 255.144531 69.457031 255.371094 69.410156 255.613281 69.414062 C 255.851562 69.414062 256.078125 69.464844 256.296875 69.566406 L 326.421875 101.582031 C 326.625 101.667969 326.804688 101.785156 326.960938 101.9375 C 327.117188 102.089844 327.242188 102.265625 327.335938 102.464844 C 327.425781 102.660156 327.480469 102.871094 327.496094 103.085938 C 327.511719 103.304688 327.488281 103.519531 327.421875 103.726562 C 327.34375 103.949219 327.222656 104.148438 327.0625 104.320312 C 326.898438 104.492188 326.710938 104.625 326.492188 104.71875 C 326.273438 104.8125 326.046875 104.855469 325.808594 104.851562 C 325.574219 104.851562 325.347656 104.800781 325.132812 104.703125 Z M 325.132812 104.703125 " fill-opacity="1" fill-rule="nonzero"/><path fill="#f2f2f2" d="M 55.214844 97.492188 L 173.84375 43.332031 L 234.925781 177.144531 L 116.300781 231.304688 Z M 55.214844 97.492188 " fill-opacity="1" fill-rule="nonzero"/><path fill="#ffffff" d="M 98.226562 153.566406 L 188.03125 112.566406 C 188.210938 112.488281 188.332031 112.355469 188.398438 112.175781 C 188.46875 111.992188 188.460938 111.8125 188.378906 111.636719 C 188.300781 111.460938 188.167969 111.339844 187.988281 111.269531 C 187.804688 111.203125 187.625 111.210938 187.449219 111.289062 L 97.644531 152.292969 C 97.46875 152.371094 97.347656 152.503906 97.277344 152.683594 C 97.210938 152.867188 97.214844 153.046875 97.296875 153.222656 C 97.378906 153.398438 97.507812 153.519531 97.691406 153.589844 C 97.871094 153.65625 98.050781 153.648438 98.226562 153.566406 Z M 98.226562 153.566406 " fill-opacity="1" fill-rule="nonzero"/><path fill="#ffffff" d="M 93.234375 142.628906 L 183.039062 101.628906 C 183.214844 101.546875 183.335938 101.414062 183.402344 101.234375 C 183.472656 101.054688 183.464844 100.875 183.386719 100.699219 C 183.304688 100.523438 183.175781 100.402344 182.992188 100.332031 C 182.8125 100.265625 182.632812 100.269531 182.457031 100.351562 L 92.652344 141.351562 C 92.476562 141.433594 92.351562 141.5625 92.285156 141.746094 C 92.21875 141.925781 92.222656 142.105469 92.304688 142.28125 C 92.382812 142.457031 92.515625 142.582031 92.699219 142.648438 C 92.878906 142.714844 93.058594 142.707031 93.234375 142.628906 Z M 93.234375 142.628906 " fill-opacity="1" fill-rule="nonzero"/><path fill="#ffffff" d="M 88.242188 131.6875 L 178.046875 90.6875 C 178.222656 90.605469 178.34375 90.476562 178.410156 90.292969 C 178.480469 90.113281 178.472656 89.933594 178.390625 89.757812 C 178.3125 89.582031 178.179688 89.460938 178 89.394531 C 177.816406 89.324219 177.640625 89.332031 177.464844 89.410156 L 87.660156 130.414062 C 87.484375 130.492188 87.363281 130.625 87.292969 130.804688 C 87.226562 130.988281 87.234375 131.164062 87.3125 131.339844 C 87.394531 131.515625 87.523438 131.636719 87.707031 131.707031 C 87.886719 131.773438 88.066406 131.769531 88.242188 131.6875 Z M 88.242188 131.6875 " fill-opacity="1" fill-rule="nonzero"/><path fill="#ffffff" d="M 83.246094 120.75 L 173.050781 79.746094 C 173.226562 79.667969 173.351562 79.535156 173.417969 79.355469 C 173.484375 79.171875 173.480469 78.996094 173.398438 78.816406 C 173.320312 78.640625 173.1875 78.519531 173.007812 78.453125 C 172.824219 78.382812 172.644531 78.390625 172.46875 78.472656 L 82.664062 119.472656 C 82.488281 119.554688 82.367188 119.683594 82.296875 119.867188 C 82.230469 120.046875 82.238281 120.226562 82.316406 120.402344 C 82.398438 120.578125 82.527344 120.699219 82.710938 120.769531 C 82.890625 120.835938 83.070312 120.828125 83.246094 120.75 Z M 83.246094 120.75 " fill-opacity="1" fill-rule="nonzero"/><path fill="#ffffff" d="M 102.742188 163.453125 L 192.546875 122.453125 C 192.722656 122.371094 192.84375 122.242188 192.910156 122.058594 C 192.976562 121.878906 192.96875 121.699219 192.890625 121.523438 C 192.808594 121.347656 192.679688 121.226562 192.5 121.160156 C 192.316406 121.09375 192.140625 121.097656 191.964844 121.175781 L 102.160156 162.179688 C 101.980469 162.257812 101.859375 162.390625 101.792969 162.570312 C 101.722656 162.753906 101.730469 162.929688 101.8125 163.109375 C 101.890625 163.285156 102.023438 163.40625 102.203125 163.472656 C 102.386719 163.542969 102.566406 163.535156 102.742188 163.453125 Z M 102.742188 163.453125 " fill-opacity="1" fill-rule="nonzero"/><path fill="#ffffff" d="M 87.746094 104.703125 L 157.894531 72.675781 C 158.089844 72.589844 158.265625 72.472656 158.421875 72.324219 C 158.574219 72.171875 158.699219 72 158.789062 71.804688 C 158.878906 71.609375 158.933594 71.40625 158.949219 71.191406 C 158.964844 70.976562 158.941406 70.765625 158.878906 70.5625 C 158.804688 70.335938 158.683594 70.132812 158.523438 69.957031 C 158.359375 69.78125 158.171875 69.648438 157.953125 69.550781 C 157.730469 69.457031 157.503906 69.410156 157.265625 69.414062 C 157.027344 69.414062 156.796875 69.464844 156.582031 69.566406 L 86.453125 101.582031 C 86.25 101.667969 86.074219 101.785156 85.914062 101.9375 C 85.757812 102.089844 85.632812 102.265625 85.542969 102.464844 C 85.449219 102.660156 85.394531 102.871094 85.378906 103.085938 C 85.367188 103.304688 85.390625 103.519531 85.453125 103.726562 C 85.53125 103.949219 85.652344 104.148438 85.816406 104.320312 C 85.976562 104.492188 86.167969 104.625 86.382812 104.71875 C 86.601562 104.8125 86.828125 104.855469 87.066406 104.851562 C 87.304688 104.851562 87.53125 104.800781 87.746094 104.703125 Z M 87.746094 104.703125 " fill-opacity="1" fill-rule="nonzero"/><path fill="#f0f0f0" d="M 11.953125 255.496094 C 12.699219 243.894531 19.164062 232.121094 29.925781 227.722656 C 29.027344 230.726562 28.394531 233.785156 28.03125 236.902344 C 27.667969 240.019531 27.582031 243.140625 27.765625 246.273438 C 27.953125 249.402344 28.410156 252.496094 29.140625 255.546875 C 29.867188 258.597656 30.859375 261.558594 32.105469 264.4375 C 34.066406 268.902344 36.710938 273.664062 35.394531 278.359375 C 34.578125 281.28125 32.289062 283.617188 29.671875 285.148438 C 27.050781 286.675781 24.089844 287.507812 21.167969 288.324219 L 20.613281 288.839844 C 15.285156 278.503906 11.203125 267.101562 11.953125 255.496094 Z M 11.953125 255.496094 " fill-opacity="1" fill-rule="nonzero"/><path fill="#ffffff" d="M 30.046875 227.933594 C 27.0625 231.707031 24.730469 235.847656 23.050781 240.355469 C 21.371094 244.867188 20.425781 249.523438 20.210938 254.332031 C 20.082031 256.414062 20.28125 258.460938 20.800781 260.480469 C 21.378906 262.453125 22.417969 264.144531 23.921875 265.550781 C 25.269531 266.867188 26.800781 268.054688 27.804688 269.675781 C 28.3125 270.523438 28.625 271.4375 28.742188 272.414062 C 28.859375 273.394531 28.769531 274.355469 28.476562 275.300781 C 27.8125 277.640625 26.347656 279.601562 24.847656 281.472656 C 23.183594 283.546875 21.421875 285.675781 20.820312 288.332031 C 20.746094 288.65625 20.253906 288.523438 20.324219 288.199219 C 21.375 283.578125 25.628906 280.738281 27.492188 276.519531 C 28.359375 274.550781 28.640625 272.308594 27.601562 270.347656 C 26.691406 268.632812 25.113281 267.40625 23.738281 266.085938 C 22.257812 264.738281 21.179688 263.125 20.503906 261.242188 C 19.878906 259.253906 19.605469 257.21875 19.679688 255.140625 C 19.773438 250.453125 20.585938 245.898438 22.117188 241.472656 C 23.84375 236.402344 26.367188 231.769531 29.6875 227.570312 C 29.890625 227.3125 30.25 227.675781 30.046875 227.933594 Z M 30.046875 227.933594 " fill-opacity="1" fill-rule="nonzero"/><path fill="#ffffff" d="M 20.167969 251.226562 C 19.769531 251.15625 19.378906 251.050781 19 250.910156 C 18.621094 250.769531 18.257812 250.597656 17.910156 250.390625 C 17.5625 250.1875 17.234375 249.953125 16.925781 249.691406 C 16.621094 249.429688 16.335938 249.140625 16.082031 248.828125 C 15.824219 248.515625 15.597656 248.183594 15.398438 247.832031 C 15.203125 247.480469 15.035156 247.113281 14.902344 246.730469 C 14.769531 246.347656 14.671875 245.957031 14.605469 245.558594 C 14.542969 245.160156 14.515625 244.757812 14.519531 244.355469 C 14.523438 244.1875 14.609375 244.105469 14.773438 244.105469 C 14.941406 244.101562 15.027344 244.183594 15.03125 244.347656 C 15.027344 244.726562 15.050781 245.097656 15.113281 245.472656 C 15.171875 245.84375 15.261719 246.207031 15.386719 246.5625 C 15.511719 246.917969 15.664062 247.257812 15.851562 247.585938 C 16.035156 247.914062 16.246094 248.222656 16.484375 248.515625 C 16.726562 248.804688 16.988281 249.070312 17.273438 249.316406 C 17.5625 249.558594 17.867188 249.773438 18.195312 249.964844 C 18.519531 250.152344 18.859375 250.3125 19.210938 250.441406 C 19.566406 250.570312 19.925781 250.667969 20.296875 250.734375 C 20.621094 250.789062 20.488281 251.285156 20.167969 251.226562 Z M 20.167969 251.226562 " fill-opacity="1" fill-rule="nonzero"/><path fill="#ffffff" d="M 23.148438 264.972656 C 24.527344 264.039062 25.683594 262.882812 26.625 261.507812 C 27.566406 260.132812 28.222656 258.632812 28.597656 257.011719 C 28.671875 256.691406 29.167969 256.820312 29.09375 257.144531 C 28.699219 258.832031 28.011719 260.390625 27.03125 261.816406 C 26.050781 263.246094 24.839844 264.445312 23.40625 265.417969 C 23.132812 265.601562 22.875 265.160156 23.148438 264.972656 Z M 23.148438 264.972656 " fill-opacity="1" fill-rule="nonzero"/><path fill="#ffffff" d="M 24.332031 236.894531 C 24.941406 237.140625 25.566406 237.226562 26.21875 237.15625 C 26.867188 237.085938 27.460938 236.863281 28 236.492188 C 28.273438 236.300781 28.527344 236.746094 28.257812 236.933594 C 27.660156 237.34375 27.003906 237.585938 26.285156 237.667969 C 25.570312 237.746094 24.875 237.65625 24.203125 237.390625 C 24.042969 237.34375 23.984375 237.238281 24.019531 237.078125 C 24.039062 237.007812 24.078125 236.957031 24.140625 236.921875 C 24.199219 236.886719 24.265625 236.878906 24.332031 236.894531 Z M 24.332031 236.894531 " fill-opacity="1" fill-rule="nonzero"/><g clip-path="url(#560817c94d)"><path fill="#f0f0f0" d="M 64.625 246.308594 C 64.460938 246.429688 64.292969 246.554688 64.128906 246.679688 C 61.902344 248.339844 59.824219 250.171875 57.894531 252.171875 C 57.746094 252.324219 57.59375 252.480469 57.445312 252.636719 C 52.820312 257.535156 49.234375 263.109375 46.695312 269.351562 C 45.691406 271.820312 44.882812 274.347656 44.265625 276.9375 C 43.417969 280.511719 42.78125 284.453125 40.855469 287.449219 C 40.660156 287.761719 40.445312 288.0625 40.210938 288.351562 L 21.289062 289.476562 C 21.242188 289.457031 21.199219 289.441406 21.15625 289.421875 L 20.402344 289.5 C 20.421875 289.367188 20.449219 289.226562 20.472656 289.089844 C 20.484375 289.011719 20.5 288.933594 20.515625 288.855469 C 20.523438 288.800781 20.535156 288.75 20.539062 288.699219 C 20.542969 288.683594 20.546875 288.664062 20.550781 288.652344 C 20.554688 288.605469 20.566406 288.558594 20.574219 288.515625 C 20.714844 287.734375 20.867188 286.949219 21.023438 286.164062 C 21.023438 286.160156 21.023438 286.160156 21.027344 286.15625 C 22.226562 280.179688 23.9375 274.25 26.492188 268.769531 C 26.570312 268.605469 26.644531 268.433594 26.730469 268.269531 C 27.898438 265.800781 29.261719 263.445312 30.8125 261.199219 C 31.667969 259.972656 32.582031 258.792969 33.554688 257.660156 C 36.089844 254.722656 39.015625 252.246094 42.332031 250.234375 C 48.90625 246.25 56.679688 244.410156 64.0625 246.167969 C 64.253906 246.214844 64.4375 246.257812 64.625 246.308594 Z M 64.625 246.308594 " fill-opacity="1" fill-rule="nonzero"/></g><g clip-path="url(#add5a39cb2)"><path fill="#ffffff" d="M 64.597656 246.550781 C 59.941406 247.765625 55.585938 249.667969 51.53125 252.257812 C 47.476562 254.84375 43.914062 257.996094 40.851562 261.707031 C 39.496094 263.289062 38.417969 265.046875 37.621094 266.972656 C 36.894531 268.894531 36.707031 270.871094 37.058594 272.894531 C 37.34375 274.757812 37.847656 276.628906 37.675781 278.527344 C 37.570312 279.511719 37.273438 280.425781 36.773438 281.28125 C 36.277344 282.132812 35.628906 282.847656 34.828125 283.421875 C 32.890625 284.890625 30.539062 285.578125 28.214844 286.167969 C 25.636719 286.820312 22.949219 287.460938 20.867188 289.21875 C 20.617188 289.433594 20.300781 289.03125 20.554688 288.816406 C 24.171875 285.757812 29.28125 286.050781 33.304688 283.804688 C 35.183594 282.757812 36.757812 281.136719 37.109375 278.941406 C 37.414062 277.027344 36.894531 275.097656 36.589844 273.214844 C 36.21875 271.246094 36.332031 269.308594 36.921875 267.398438 C 37.621094 265.4375 38.628906 263.648438 39.941406 262.03125 C 42.835938 258.34375 46.226562 255.195312 50.117188 252.585938 C 54.546875 249.578125 59.347656 247.394531 64.527344 246.042969 C 64.847656 245.960938 64.914062 246.46875 64.597656 246.550781 Z M 64.597656 246.550781 " fill-opacity="1" fill-rule="nonzero"/></g><path fill="#ffffff" d="M 42.683594 259.199219 C 42.410156 258.902344 42.164062 258.585938 41.945312 258.242188 C 41.726562 257.902344 41.542969 257.546875 41.386719 257.171875 C 41.230469 256.800781 41.109375 256.417969 41.023438 256.023438 C 40.9375 255.628906 40.882812 255.226562 40.867188 254.824219 C 40.851562 254.421875 40.867188 254.019531 40.921875 253.617188 C 40.976562 253.21875 41.066406 252.824219 41.191406 252.4375 C 41.3125 252.054688 41.46875 251.683594 41.660156 251.324219 C 41.847656 250.96875 42.066406 250.632812 42.316406 250.3125 C 42.519531 250.054688 42.929688 250.355469 42.726562 250.617188 C 42.496094 250.914062 42.289062 251.226562 42.113281 251.558594 C 41.9375 251.894531 41.792969 252.238281 41.675781 252.597656 C 41.5625 252.953125 41.480469 253.320312 41.429688 253.695312 C 41.378906 254.066406 41.363281 254.441406 41.378906 254.816406 C 41.394531 255.191406 41.445312 255.566406 41.527344 255.933594 C 41.609375 256.300781 41.722656 256.65625 41.871094 257.003906 C 42.015625 257.351562 42.191406 257.679688 42.394531 257.996094 C 42.601562 258.3125 42.832031 258.609375 43.085938 258.882812 C 43.3125 259.125 42.90625 259.441406 42.683594 259.199219 Z M 42.683594 259.199219 " fill-opacity="1" fill-rule="nonzero"/><path fill="#ffffff" d="M 36.789062 271.972656 C 38.453125 272.050781 40.074219 271.828125 41.652344 271.296875 C 43.230469 270.765625 44.660156 269.964844 45.933594 268.894531 C 46.1875 268.683594 46.503906 269.085938 46.25 269.296875 C 44.921875 270.410156 43.433594 271.238281 41.789062 271.789062 C 40.148438 272.335938 38.460938 272.566406 36.730469 272.480469 C 36.398438 272.464844 36.460938 271.953125 36.789062 271.972656 Z M 36.789062 271.972656 " fill-opacity="1" fill-rule="nonzero"/><path fill="#ffffff" d="M 54.640625 250.265625 C 54.976562 250.828125 55.425781 251.273438 55.988281 251.609375 C 56.550781 251.941406 57.15625 252.125 57.8125 252.152344 C 58.140625 252.164062 58.078125 252.671875 57.75 252.660156 C 57.027344 252.625 56.355469 252.425781 55.734375 252.058594 C 55.113281 251.691406 54.613281 251.199219 54.238281 250.582031 C 54.136719 250.449219 54.152344 250.328125 54.28125 250.222656 C 54.335938 250.179688 54.398438 250.160156 54.46875 250.171875 C 54.539062 250.179688 54.597656 250.210938 54.640625 250.265625 Z M 54.640625 250.265625 " fill-opacity="1" fill-rule="nonzero"/><path fill="#ffffff" d="M 117.3125 32.339844 L 294.699219 32.339844 L 294.699219 232.429688 L 117.3125 232.429688 Z M 117.3125 32.339844 " fill-opacity="1" fill-rule="nonzero"/><path fill="#cacaca" d="M 294.699219 232.429688 L 117.3125 232.429688 L 117.3125 32.339844 L 294.699219 32.339844 Z M 118.269531 231.476562 L 293.746094 231.476562 L 293.746094 33.292969 L 118.265625 33.292969 Z M 118.269531 231.476562 " fill-opacity="1" fill-rule="nonzero"/><path fill="#e4e4e4" d="M 273.148438 126.027344 L 138.863281 126.027344 C 138.601562 126.027344 138.375 125.933594 138.1875 125.746094 C 138.003906 125.5625 137.910156 125.335938 137.910156 125.074219 C 137.910156 124.808594 138.003906 124.585938 138.1875 124.398438 C 138.375 124.210938 138.601562 124.121094 138.863281 124.121094 L 273.148438 124.121094 C 273.414062 124.121094 273.636719 124.210938 273.824219 124.398438 C 274.007812 124.585938 274.101562 124.808594 274.101562 125.074219 C 274.101562 125.335938 274.007812 125.5625 273.824219 125.746094 C 273.636719 125.933594 273.414062 126.027344 273.148438 126.027344 Z M 273.148438 126.027344 " fill-opacity="1" fill-rule="nonzero"/><path fill="#e4e4e4" d="M 273.148438 109.667969 L 138.863281 109.667969 C 138.601562 109.671875 138.375 109.578125 138.1875 109.390625 C 138 109.203125 137.90625 108.980469 137.90625 108.714844 C 137.90625 108.453125 138 108.226562 138.1875 108.039062 C 138.375 107.851562 138.601562 107.761719 138.863281 107.761719 L 273.148438 107.761719 C 273.410156 107.761719 273.636719 107.855469 273.820312 108.042969 C 274.007812 108.230469 274.097656 108.453125 274.097656 108.714844 C 274.097656 108.976562 274.007812 109.203125 273.820312 109.386719 C 273.636719 109.574219 273.410156 109.667969 273.148438 109.667969 Z M 273.148438 109.667969 " fill-opacity="1" fill-rule="nonzero"/><path fill="#e4e4e4" d="M 273.148438 93.3125 L 138.863281 93.3125 C 138.601562 93.3125 138.375 93.21875 138.1875 93.03125 C 138.003906 92.84375 137.910156 92.621094 137.910156 92.359375 C 137.910156 92.09375 138.003906 91.871094 138.1875 91.683594 C 138.375 91.496094 138.601562 91.402344 138.863281 91.402344 L 273.148438 91.402344 C 273.414062 91.402344 273.636719 91.496094 273.824219 91.683594 C 274.007812 91.871094 274.101562 92.09375 274.101562 92.359375 C 274.101562 92.621094 274.007812 92.84375 273.824219 93.03125 C 273.636719 93.21875 273.414062 93.3125 273.148438 93.3125 Z M 273.148438 93.3125 " fill-opacity="1" fill-rule="nonzero"/><path fill="#e4e4e4" d="M 273.148438 76.953125 L 138.863281 76.953125 C 138.601562 76.953125 138.375 76.859375 138.1875 76.675781 C 138.003906 76.488281 137.910156 76.261719 137.910156 76 C 137.910156 75.734375 138.003906 75.511719 138.1875 75.324219 C 138.375 75.140625 138.601562 75.046875 138.863281 75.046875 L 273.148438 75.046875 C 273.414062 75.046875 273.636719 75.140625 273.824219 75.324219 C 274.007812 75.511719 274.101562 75.734375 274.101562 76 C 274.101562 76.261719 274.007812 76.488281 273.824219 76.675781 C 273.636719 76.859375 273.414062 76.953125 273.148438 76.953125 Z M 273.148438 76.953125 " fill-opacity="1" fill-rule="nonzero"/><path fill="#e4e4e4" d="M 273.148438 140.808594 L 138.863281 140.808594 C 138.601562 140.808594 138.375 140.71875 138.1875 140.53125 C 138.003906 140.34375 137.910156 140.121094 137.910156 139.855469 C 137.910156 139.59375 138.003906 139.367188 138.1875 139.183594 C 138.375 138.996094 138.601562 138.902344 138.863281 138.902344 L 273.148438 138.902344 C 273.414062 138.902344 273.636719 138.996094 273.824219 139.183594 C 274.007812 139.367188 274.101562 139.59375 274.101562 139.855469 C 274.101562 140.121094 274.007812 140.34375 273.824219 140.53125 C 273.636719 140.71875 273.414062 140.808594 273.148438 140.808594 Z M 273.148438 140.808594 " fill-opacity="1" fill-rule="nonzero"/><path fill="#e4e4e4" d="M 273.148438 214.199219 L 138.863281 214.199219 C 138.597656 214.203125 138.375 214.109375 138.1875 213.921875 C 138 213.738281 137.90625 213.511719 137.90625 213.246094 C 137.90625 212.980469 138 212.757812 138.1875 212.570312 C 138.375 212.382812 138.597656 212.292969 138.863281 212.292969 L 273.148438 212.292969 C 273.410156 212.292969 273.636719 212.386719 273.820312 212.574219 C 274.003906 212.761719 274.097656 212.984375 274.097656 213.246094 C 274.097656 213.507812 274.003906 213.734375 273.820312 213.917969 C 273.636719 214.105469 273.410156 214.199219 273.148438 214.199219 Z M 273.148438 214.199219 " fill-opacity="1" fill-rule="nonzero"/><path fill="#ffffff" d="M 240.980469 198.890625 L 171.03125 198.890625 C 170.796875 198.890625 170.574219 198.84375 170.355469 198.753906 C 170.140625 198.664062 169.949219 198.539062 169.785156 198.375 C 169.621094 198.207031 169.492188 198.015625 169.402344 197.800781 C 169.3125 197.585938 169.269531 197.359375 169.269531 197.125 L 169.269531 155.976562 C 169.269531 155.742188 169.3125 155.519531 169.402344 155.300781 C 169.492188 155.085938 169.621094 154.894531 169.785156 154.730469 C 169.949219 154.566406 170.140625 154.4375 170.355469 154.347656 C 170.574219 154.257812 170.796875 154.214844 171.03125 154.214844 L 240.980469 154.214844 C 241.214844 154.214844 241.441406 154.257812 241.65625 154.347656 C 241.871094 154.4375 242.0625 154.566406 242.226562 154.730469 C 242.394531 154.894531 242.519531 155.085938 242.609375 155.300781 C 242.699219 155.519531 242.746094 155.742188 242.746094 155.976562 L 242.746094 197.125 C 242.746094 197.359375 242.699219 197.585938 242.609375 197.800781 C 242.519531 198.015625 242.394531 198.207031 242.226562 198.375 C 242.0625 198.539062 241.871094 198.667969 241.65625 198.753906 C 241.441406 198.84375 241.214844 198.890625 240.980469 198.890625 Z M 240.980469 198.890625 " fill-opacity="1" fill-rule="nonzero"/><path fill="#6c63ff" d="M 217.621094 175.382812 C 217.445312 175.191406 217.25 175.019531 217.035156 174.867188 C 216.824219 174.71875 216.597656 174.589844 216.359375 174.484375 C 216.121094 174.375 215.875 174.296875 215.621094 174.238281 C 215.367188 174.183594 215.109375 174.152344 214.847656 174.148438 C 214.585938 174.144531 214.328125 174.164062 214.070312 174.210938 C 213.816406 174.257812 213.566406 174.332031 213.324219 174.429688 C 213.082031 174.527344 212.851562 174.648438 212.636719 174.789062 C 212.417969 174.933594 212.214844 175.097656 212.03125 175.28125 L 192.34375 194.96875 C 192.085938 195.230469 191.785156 195.429688 191.445312 195.570312 C 191.105469 195.710938 190.753906 195.78125 190.386719 195.78125 C 190.019531 195.78125 189.664062 195.710938 189.324219 195.574219 C 188.984375 195.433594 188.6875 195.234375 188.425781 194.976562 L 185.507812 192.066406 C 185.144531 191.703125 184.726562 191.421875 184.25 191.222656 C 183.773438 191.027344 183.277344 190.929688 182.765625 190.929688 C 182.25 190.929688 181.753906 191.027344 181.277344 191.222656 C 180.800781 191.421875 180.382812 191.703125 180.019531 192.066406 L 174.375 197.714844 L 237.636719 197.714844 L 237.636719 196.910156 Z M 217.621094 175.382812 " fill-opacity="1" fill-rule="nonzero"/><path fill="#3f3d56" d="M 240.980469 198.890625 L 171.03125 198.890625 C 170.796875 198.890625 170.574219 198.84375 170.355469 198.753906 C 170.140625 198.664062 169.949219 198.539062 169.785156 198.375 C 169.621094 198.207031 169.492188 198.015625 169.402344 197.800781 C 169.3125 197.585938 169.269531 197.359375 169.269531 197.125 L 169.269531 155.976562 C 169.269531 155.742188 169.3125 155.519531 169.402344 155.300781 C 169.492188 155.085938 169.621094 154.894531 169.785156 154.730469 C 169.949219 154.566406 170.140625 154.4375 170.355469 154.347656 C 170.574219 154.257812 170.796875 154.214844 171.03125 154.214844 L 240.980469 154.214844 C 241.214844 154.214844 241.441406 154.257812 241.65625 154.347656 C 241.871094 154.4375 242.0625 154.566406 242.226562 154.730469 C 242.394531 154.894531 242.519531 155.085938 242.609375 155.300781 C 242.699219 155.519531 242.746094 155.742188 242.746094 155.976562 L 242.746094 197.125 C 242.746094 197.359375 242.699219 197.585938 242.609375 197.800781 C 242.519531 198.015625 242.394531 198.207031 242.226562 198.375 C 242.0625 198.539062 241.871094 198.667969 241.65625 198.753906 C 241.441406 198.84375 241.214844 198.890625 240.980469 198.890625 Z M 171.03125 155.390625 C 170.871094 155.390625 170.730469 155.445312 170.617188 155.5625 C 170.5 155.675781 170.445312 155.8125 170.445312 155.976562 L 170.445312 197.125 C 170.445312 197.289062 170.5 197.425781 170.617188 197.542969 C 170.730469 197.65625 170.871094 197.714844 171.03125 197.714844 L 240.980469 197.714844 C 241.144531 197.714844 241.28125 197.65625 241.398438 197.542969 C 241.511719 197.425781 241.570312 197.289062 241.570312 197.125 L 241.570312 155.976562 C 241.570312 155.8125 241.511719 155.675781 241.398438 155.5625 C 241.28125 155.445312 241.144531 155.390625 240.980469 155.390625 Z M 171.03125 155.390625 " fill-opacity="1" fill-rule="nonzero"/><path fill="#ffb6b6" d="M 72.34375 192.011719 C 72.433594 191.699219 72.488281 191.378906 72.503906 191.054688 C 72.523438 190.730469 72.507812 190.410156 72.457031 190.089844 C 72.402344 189.769531 72.316406 189.457031 72.199219 189.15625 C 72.078125 188.851562 71.925781 188.566406 71.742188 188.296875 C 71.5625 188.03125 71.351562 187.785156 71.113281 187.5625 C 70.878906 187.339844 70.621094 187.144531 70.339844 186.976562 C 70.0625 186.8125 69.765625 186.679688 69.457031 186.578125 C 69.148438 186.476562 68.835938 186.40625 68.511719 186.375 L 64.847656 171.007812 L 59.226562 176.996094 L 63.570312 190.667969 C 63.550781 191.214844 63.628906 191.75 63.808594 192.265625 C 63.984375 192.785156 64.25 193.253906 64.597656 193.675781 C 64.945312 194.09375 65.359375 194.441406 65.835938 194.710938 C 66.3125 194.980469 66.820312 195.15625 67.359375 195.238281 C 67.902344 195.320312 68.441406 195.304688 68.972656 195.191406 C 69.507812 195.074219 70.007812 194.871094 70.464844 194.570312 C 70.925781 194.273438 71.316406 193.90625 71.640625 193.464844 C 71.964844 193.023438 72.199219 192.539062 72.34375 192.011719 Z M 72.34375 192.011719 " fill-opacity="1" fill-rule="nonzero"/><path fill="#e4e4e4" d="M 62.546875 186.4375 C 61.984375 186.25 61.585938 185.886719 61.351562 185.34375 L 53.578125 166.332031 C 52.589844 164.054688 52.03125 161.675781 51.90625 159.191406 C 51.78125 156.710938 52.09375 154.285156 52.851562 151.921875 L 57.832031 136.320312 C 57.867188 135.902344 57.945312 135.488281 58.066406 135.085938 C 58.183594 134.679688 58.339844 134.292969 58.535156 133.917969 C 58.730469 133.546875 58.960938 133.195312 59.226562 132.867188 C 59.492188 132.539062 59.785156 132.242188 60.109375 131.972656 C 60.433594 131.703125 60.78125 131.46875 61.148438 131.265625 C 61.519531 131.0625 61.90625 130.902344 62.308594 130.777344 C 62.710938 130.652344 63.121094 130.566406 63.539062 130.519531 C 63.957031 130.476562 64.378906 130.472656 64.796875 130.511719 C 65.214844 130.550781 65.628906 130.628906 66.03125 130.75 C 66.4375 130.867188 66.824219 131.027344 67.195312 131.222656 C 67.570312 131.417969 67.917969 131.648438 68.246094 131.914062 C 68.574219 132.179688 68.871094 132.476562 69.140625 132.800781 C 69.410156 133.121094 69.644531 133.46875 69.847656 133.839844 C 70.046875 134.210938 70.210938 134.597656 70.335938 135 C 70.460938 135.402344 70.542969 135.8125 70.585938 136.230469 C 70.628906 136.652344 70.632812 137.070312 70.59375 137.488281 L 63.988281 162.609375 L 68.414062 182.335938 C 68.484375 182.75 68.429688 183.144531 68.253906 183.523438 C 68.074219 183.902344 67.804688 184.195312 67.441406 184.402344 L 64.160156 186.277344 C 63.800781 186.484375 63.414062 186.566406 63.003906 186.53125 C 62.847656 186.519531 62.695312 186.488281 62.546875 186.4375 Z M 62.546875 186.4375 " fill-opacity="1" fill-rule="nonzero"/><path fill="#ffb6b6" d="M 90.1875 283.835938 L 95.605469 283.835938 L 98.183594 262.929688 L 90.1875 262.929688 Z M 90.1875 283.835938 " fill-opacity="1" fill-rule="nonzero"/><g clip-path="url(#7c5ff60174)"><path fill="#2f2e41" d="M 88.804688 282.066406 L 99.476562 282.066406 C 99.925781 282.066406 100.367188 282.113281 100.804688 282.199219 C 101.242188 282.285156 101.667969 282.414062 102.082031 282.585938 C 102.492188 282.757812 102.886719 282.964844 103.257812 283.214844 C 103.628906 283.460938 103.972656 283.746094 104.289062 284.058594 C 104.605469 284.375 104.886719 284.71875 105.132812 285.089844 C 105.382812 285.460938 105.589844 285.855469 105.761719 286.265625 C 105.933594 286.679688 106.0625 287.105469 106.148438 287.542969 C 106.238281 287.980469 106.28125 288.421875 106.28125 288.871094 L 106.28125 289.089844 L 88.804688 289.09375 Z M 88.804688 282.066406 " fill-opacity="1" fill-rule="nonzero"/></g><path fill="#ffb6b6" d="M 59.683594 283.835938 L 65.105469 283.835938 L 67.683594 262.929688 L 59.683594 262.929688 Z M 59.683594 283.835938 " fill-opacity="1" fill-rule="nonzero"/><g clip-path="url(#76feb74ecc)"><path fill="#2f2e41" d="M 58.300781 282.066406 L 68.976562 282.066406 C 69.421875 282.066406 69.863281 282.113281 70.300781 282.199219 C 70.742188 282.285156 71.164062 282.414062 71.578125 282.585938 C 71.992188 282.757812 72.382812 282.964844 72.753906 283.214844 C 73.125 283.460938 73.46875 283.746094 73.785156 284.058594 C 74.101562 284.375 74.382812 284.71875 74.628906 285.089844 C 74.878906 285.460938 75.089844 285.855469 75.257812 286.265625 C 75.429688 286.679688 75.558594 287.105469 75.644531 287.542969 C 75.734375 287.980469 75.777344 288.421875 75.777344 288.871094 L 75.777344 289.089844 L 58.300781 289.09375 Z M 58.300781 282.066406 " fill-opacity="1" fill-rule="nonzero"/></g><path fill="#2f2e41" d="M 93.449219 178.386719 L 61.667969 175.589844 C 61.667969 175.589844 58.527344 195.628906 58.96875 203.585938 C 59.410156 211.546875 59.851562 223.925781 59.851562 223.925781 L 56.316406 277.863281 L 70.019531 276.09375 L 71.789062 231.441406 L 77.535156 207.125 L 84.167969 238.070312 L 88.585938 277.863281 L 100.523438 276.535156 L 96.546875 228.34375 C 96.546875 228.34375 100.082031 185.019531 93.449219 178.386719 Z M 93.449219 178.386719 " fill-opacity="1" fill-rule="nonzero"/><path fill="#ffb8b8" d="M 89.472656 110.746094 C 89.472656 111.324219 89.414062 111.898438 89.300781 112.46875 C 89.1875 113.039062 89.019531 113.59375 88.800781 114.128906 C 88.578125 114.664062 88.304688 115.175781 87.980469 115.65625 C 87.660156 116.140625 87.292969 116.585938 86.882812 116.996094 C 86.472656 117.40625 86.023438 117.773438 85.542969 118.097656 C 85.058594 118.417969 84.550781 118.691406 84.015625 118.914062 C 83.476562 119.136719 82.925781 119.304688 82.355469 119.417969 C 81.785156 119.53125 81.210938 119.585938 80.628906 119.585938 C 80.050781 119.585938 79.476562 119.53125 78.90625 119.417969 C 78.335938 119.304688 77.785156 119.136719 77.246094 118.914062 C 76.710938 118.691406 76.203125 118.417969 75.71875 118.097656 C 75.234375 117.773438 74.789062 117.40625 74.378906 116.996094 C 73.96875 116.585938 73.601562 116.140625 73.277344 115.65625 C 72.957031 115.175781 72.683594 114.664062 72.460938 114.128906 C 72.238281 113.59375 72.074219 113.039062 71.960938 112.46875 C 71.847656 111.898438 71.789062 111.324219 71.789062 110.746094 C 71.789062 110.164062 71.847656 109.589844 71.960938 109.019531 C 72.074219 108.449219 72.238281 107.898438 72.460938 107.359375 C 72.683594 106.824219 72.957031 106.316406 73.277344 105.832031 C 73.601562 105.347656 73.96875 104.902344 74.378906 104.492188 C 74.789062 104.082031 75.234375 103.714844 75.71875 103.394531 C 76.203125 103.070312 76.710938 102.796875 77.246094 102.574219 C 77.785156 102.351562 78.335938 102.1875 78.90625 102.074219 C 79.476562 101.960938 80.050781 101.902344 80.628906 101.902344 C 81.210938 101.902344 81.785156 101.960938 82.355469 102.074219 C 82.925781 102.1875 83.476562 102.351562 84.015625 102.574219 C 84.550781 102.796875 85.058594 103.070312 85.542969 103.394531 C 86.023438 103.714844 86.472656 104.082031 86.882812 104.492188 C 87.292969 104.902344 87.660156 105.347656 87.980469 105.832031 C 88.304688 106.316406 88.578125 106.824219 88.800781 107.359375 C 89.019531 107.898438 89.1875 108.449219 89.300781 109.019531 C 89.414062 109.589844 89.472656 110.164062 89.472656 110.746094 Z M 89.472656 110.746094 " fill-opacity="1" fill-rule="nonzero"/><path fill="#e4e4e4" d="M 90.3125 130.488281 L 83.996094 125.460938 C 83.996094 125.460938 77.160156 120.183594 73.148438 124.085938 L 71.347656 126.660156 C 71.347656 126.660156 61.136719 130.488281 61.136719 135.351562 L 61.621094 162.03125 C 61.621094 162.03125 58.085938 175.734375 63.390625 176.617188 L 94.292969 179.121094 L 93.894531 153.628906 Z M 90.3125 130.488281 " fill-opacity="1" fill-rule="nonzero"/><path fill="#2f2e41" d="M 73.777344 118.480469 C 73.777344 118.480469 64.496094 111.851562 69.359375 103.890625 C 72.730469 98.371094 79.722656 98.808594 83.6875 99.59375 C 84.769531 99.792969 85.746094 100.234375 86.613281 100.917969 C 87.480469 101.597656 88.136719 102.441406 88.585938 103.449219 C 89.25 104.996094 89.25 106.542969 86.597656 106.542969 C 81.292969 106.542969 83.945312 110.523438 83.945312 110.523438 C 83.945312 110.523438 80.410156 111.40625 81.292969 114.503906 C 82.175781 117.597656 73.777344 118.480469 73.777344 118.480469 Z M 73.777344 118.480469 " fill-opacity="1" fill-rule="nonzero"/><path fill="#ffb6b6" d="M 122.210938 177.082031 C 122.128906 176.765625 122.011719 176.464844 121.863281 176.175781 C 121.714844 175.886719 121.539062 175.617188 121.332031 175.367188 C 121.125 175.117188 120.890625 174.890625 120.632812 174.695312 C 120.378906 174.496094 120.101562 174.324219 119.808594 174.1875 C 119.515625 174.046875 119.207031 173.941406 118.890625 173.871094 C 118.574219 173.800781 118.253906 173.761719 117.929688 173.761719 C 117.605469 173.761719 117.28125 173.792969 116.964844 173.863281 C 116.648438 173.933594 116.339844 174.035156 116.046875 174.171875 L 105.085938 162.792969 L 103.285156 170.804688 L 113.96875 180.378906 C 114.230469 180.859375 114.570312 181.277344 114.984375 181.636719 C 115.402344 181.992188 115.867188 182.261719 116.382812 182.445312 C 116.894531 182.632812 117.425781 182.71875 117.972656 182.710938 C 118.519531 182.699219 119.046875 182.59375 119.554688 182.390625 C 120.0625 182.1875 120.519531 181.902344 120.921875 181.53125 C 121.324219 181.160156 121.648438 180.730469 121.890625 180.242188 C 122.136719 179.75 122.285156 179.234375 122.34375 178.691406 C 122.398438 178.144531 122.351562 177.609375 122.210938 177.082031 Z M 122.210938 177.082031 " fill-opacity="1" fill-rule="nonzero"/><path fill="#e4e4e4" d="M 110.941406 177.253906 C 110.363281 177.378906 109.832031 177.265625 109.355469 176.917969 L 93.007812 164.488281 C 90.996094 163.027344 89.308594 161.261719 87.9375 159.1875 C 86.570312 157.113281 85.613281 154.863281 85.0625 152.441406 L 81.429688 136.472656 C 81.25 136.09375 81.109375 135.699219 81.007812 135.289062 C 80.902344 134.882812 80.839844 134.464844 80.820312 134.046875 C 80.800781 133.625 80.820312 133.207031 80.878906 132.789062 C 80.941406 132.371094 81.042969 131.964844 81.1875 131.570312 C 81.328125 131.171875 81.507812 130.792969 81.722656 130.429688 C 81.941406 130.070312 82.1875 129.734375 82.472656 129.421875 C 82.753906 129.109375 83.066406 128.828125 83.402344 128.578125 C 83.742188 128.324219 84.101562 128.109375 84.484375 127.929688 C 84.863281 127.75 85.257812 127.609375 85.667969 127.507812 C 86.078125 127.40625 86.492188 127.34375 86.914062 127.324219 C 87.332031 127.304688 87.75 127.324219 88.167969 127.386719 C 88.585938 127.449219 88.992188 127.550781 89.386719 127.695312 C 89.785156 127.835938 90.164062 128.015625 90.523438 128.234375 C 90.886719 128.449219 91.222656 128.699219 91.535156 128.984375 C 91.84375 129.269531 92.125 129.578125 92.375 129.917969 C 92.625 130.257812 92.839844 130.617188 93.019531 131 L 100.085938 155.992188 L 113.910156 170.742188 C 114.183594 171.058594 114.335938 171.429688 114.375 171.84375 C 114.414062 172.261719 114.332031 172.652344 114.125 173.015625 L 112.25 176.296875 C 112.042969 176.65625 111.753906 176.925781 111.378906 177.105469 C 111.238281 177.171875 111.09375 177.222656 110.941406 177.253906 Z M 110.941406 177.253906 " fill-opacity="1" fill-rule="nonzero"/><g clip-path="url(#a33f67d66d)"><path fill="#cacaca" d="M 168.964844 289.207031 L 0.535156 289.207031 C 0.414062 289.203125 0.308594 289.160156 0.222656 289.074219 C 0.136719 288.988281 0.09375 288.886719 0.09375 288.761719 C 0.09375 288.640625 0.136719 288.535156 0.222656 288.449219 C 0.308594 288.363281 0.414062 288.320312 0.535156 288.320312 L 168.964844 288.320312 C 169.085938 288.320312 169.191406 288.363281 169.277344 288.449219 C 169.363281 288.535156 169.40625 288.640625 169.40625 288.761719 C 169.40625 288.886719 169.363281 288.988281 169.277344 289.074219 C 169.191406 289.160156 169.085938 289.203125 168.964844 289.207031 Z M 168.964844 289.207031 " fill-opacity="1" fill-rule="nonzero"/></g><path fill="#6c63ff" d="M 258.519531 59.636719 L 153.625 59.636719 C 153.332031 59.644531 153.050781 59.597656 152.773438 59.5 C 152.496094 59.402344 152.25 59.257812 152.027344 59.066406 C 151.804688 58.878906 151.621094 58.65625 151.480469 58.398438 C 151.34375 58.140625 151.25 57.871094 151.210938 57.578125 C 151.179688 57.257812 151.210938 56.941406 151.3125 56.632812 C 151.414062 56.324219 151.574219 56.046875 151.789062 55.808594 C 152.007812 55.566406 152.265625 55.378906 152.5625 55.246094 C 152.859375 55.113281 153.167969 55.046875 153.492188 55.046875 L 258.355469 55.046875 C 258.652344 55.039062 258.941406 55.085938 259.222656 55.1875 C 259.5 55.285156 259.753906 55.429688 259.980469 55.625 C 260.207031 55.816406 260.390625 56.042969 260.53125 56.304688 C 260.675781 56.566406 260.765625 56.84375 260.804688 57.136719 C 260.832031 57.457031 260.796875 57.769531 260.691406 58.078125 C 260.589844 58.382812 260.429688 58.652344 260.210938 58.890625 C 259.996094 59.128906 259.738281 59.3125 259.445312 59.441406 C 259.148438 59.570312 258.839844 59.636719 258.519531 59.636719 Z M 258.519531 59.636719 " fill-opacity="1" fill-rule="nonzero"/><g clip-path="url(#eb41566adc)"><path fill="#ffde59" d="M 305.300781 0 C 282.164062 0 263.410156 18.757812 263.410156 41.890625 C 263.410156 65.027344 282.164062 83.785156 305.300781 83.785156 C 328.433594 83.785156 347.191406 65.027344 347.191406 41.890625 C 347.191406 18.757812 328.433594 0 305.300781 0 Z M 305.300781 76.800781 C 286.050781 76.800781 270.390625 61.140625 270.390625 41.890625 C 270.390625 22.644531 286.050781 6.980469 305.300781 6.980469 C 324.546875 6.980469 340.210938 22.644531 340.210938 41.890625 C 340.210938 61.140625 324.546875 76.800781 305.300781 76.800781 Z M 305.300781 76.800781 " fill-opacity="1" fill-rule="nonzero"/></g><path fill="#ffde59" d="M 315.773438 13.964844 L 287.84375 48.875 L 301.808594 48.875 L 294.828125 69.820312 L 322.753906 34.910156 L 308.792969 34.910156 Z M 315.773438 13.964844 " fill-opacity="1" fill-rule="nonzero"/></svg>