<svg xmlns="http://www.w3.org/2000/svg" xmlns:xlink="http://www.w3.org/1999/xlink" width="1080" zoomAndPan="magnify" viewBox="0 0 810 809.999993" height="1080" preserveAspectRatio="xMidYMid meet" version="1.0"><defs><g/></defs><path fill="#6b7fd7" d="M 412.535156 357.21875 L 412.371094 491.179688 C 412.367188 491.351562 412.289062 491.476562 412.136719 491.554688 C 411.984375 491.632812 411.835938 491.625 411.695312 491.527344 L 392.507812 478.449219 " fill-opacity="1" fill-rule="nonzero"/><path fill="#161b33" d="M 392.507812 478.449219 L 376.234375 467.144531 " fill-opacity="1" fill-rule="nonzero"/><path fill="#6b7fd7" d="M 376.253906 411.210938 L 357.625 399.472656 " fill-opacity="1" fill-rule="nonzero"/><path fill="#6b7fd7" d="M 216.453125 399.613281 L 198.304688 411.636719 " fill-opacity="1" fill-rule="nonzero"/><path fill="#4d566d" d="M 198.796875 417.738281 L 217.371094 429.042969 " fill-opacity="1" fill-rule="nonzero"/><path fill="#6b7fd7" d="M 352.277344 507.710938 L 363.902344 520.3125 C 364.015625 520.433594 364.058594 520.574219 364.039062 520.738281 C 364.019531 520.902344 363.941406 521.03125 363.804688 521.121094 C 361.351562 522.753906 358.949219 524.261719 356.601562 525.644531 C 337.039062 537.214844 317.472656 548.769531 297.894531 560.304688 C 295.140625 561.933594 292.488281 563.550781 289.9375 565.160156 C 289.144531 565.652344 287.402344 566.878906 286.554688 565.988281 " fill-opacity="1" fill-rule="nonzero"/><path fill="#586aaf" d="M 285.84375 565.988281 L 162.382812 491.449219 " fill-opacity="1" fill-rule="nonzero"/><path fill="#6b7fd7" d="M 163.09375 491.449219 C 162.773438 491.578125 162.453125 491.320312 162.140625 490.679688 C 161.980469 490.324219 161.902344 489.949219 161.914062 489.554688 C 161.851562 446.148438 161.851562 402.65625 161.914062 359.078125 " fill-opacity="1" fill-rule="nonzero"/><path fill="#52618e" d="M 161.882812 359.035156 C 161.882812 352.453125 161.859375 345.777344 161.804688 339.007812 C 161.796875 338.675781 161.9375 338.421875 162.21875 338.246094 " fill-opacity="1" fill-rule="nonzero"/><path stroke-linecap="butt" transform="matrix(-0.711914, 0, 0, 0.711914, 652.940995, 59.318201)" fill="none" stroke-linejoin="miter" d="M 689.299867 391.838376 C 688.147603 392.348664 687.30261 393.418623 686.298495 393.978294 C 678.479564 398.356895 670.446642 402.302025 662.199728 405.808198 " stroke="#0f9289" stroke-width="2" stroke-opacity="1" stroke-miterlimit="4"/><path stroke-linecap="butt" transform="matrix(-0.711914, 0, 0, 0.711914, 652.940995, 59.318201)" fill="none" stroke-linejoin="miter" d="M 662.23265 405.808198 C 654.781346 400.507786 647.083129 395.607923 639.132512 391.097635 C 597.349245 367.26773 555.895196 343.168963 514.770366 318.801335 C 514.369817 318.565396 513.936346 318.444682 513.469954 318.444682 C 513.003562 318.444682 512.570091 318.565396 512.169543 318.801335 L 365.349234 405.489954 " stroke="#0b7270" stroke-width="2" stroke-opacity="1" stroke-miterlimit="4"/><path stroke-linecap="butt" transform="matrix(-0.711914, 0, 0, 0.711914, 652.940995, 59.318201)" fill="none" stroke-linejoin="miter" d="M 662.23265 405.808198 L 661.897945 450.17034 " stroke="#09595c" stroke-width="2" stroke-opacity="1" stroke-miterlimit="4"/><path stroke-linecap="butt" transform="matrix(-0.711914, 0, 0, 0.711914, 652.940995, 59.318201)" fill="none" stroke-linejoin="miter" d="M 661.897945 450.17034 L 662.062554 592.529743 " stroke="#0b7270" stroke-width="2" stroke-opacity="1" stroke-miterlimit="4"/><path stroke-linecap="butt" transform="matrix(-0.711914, 0, 0, 0.711914, 652.940995, 59.318201)" fill="none" stroke-linejoin="miter" d="M 662.062554 592.529743 C 662.018658 592.913831 661.854049 593.237562 661.568727 593.500937 C 661.283404 593.758824 660.948699 593.895999 660.559124 593.901486 " stroke="#09595c" stroke-width="2" stroke-opacity="1" stroke-miterlimit="4"/><path stroke-linecap="butt" transform="matrix(-0.711914, 0, 0, 0.711914, 652.940995, 59.318201)" fill="none" stroke-linejoin="miter" d="M 660.559124 593.901486 C 659.330043 592.831527 658.100962 591.778029 656.860908 590.768427 C 655.609879 589.753337 654.276545 588.869935 652.860907 588.112734 C 647.769 585.407658 644.273801 583.410401 642.380797 582.10999 C 641.738822 581.62165 641.299864 580.990648 641.058438 580.222473 C 640.877368 579.492706 640.789576 578.751965 640.811524 578.00025 C 640.789576 577.166231 640.570097 576.392568 640.147601 575.668289 C 639.972018 575.361018 639.752539 575.32261 639.478191 575.569523 C 638.967903 576.052376 638.666119 576.650456 638.578328 577.352788 " stroke="#03323c" stroke-width="2" stroke-opacity="1" stroke-miterlimit="4"/><path stroke-linecap="butt" transform="matrix(-0.711914, 0, 0, 0.711914, 652.940995, 59.318201)" fill="none" stroke-linejoin="miter" d="M 638.539919 577.380223 L 638.539919 545.802718 " stroke="#388785" stroke-width="2" stroke-opacity="1" stroke-miterlimit="4"/><path stroke-linecap="butt" transform="matrix(-0.711914, 0, 0, 0.711914, 652.940995, 59.318201)" fill="none" stroke-linejoin="miter" d="M 638.578328 545.802718 L 638.457614 530.000248 " stroke="#0b7270" stroke-width="2" stroke-opacity="1" stroke-miterlimit="4"/><path stroke-linecap="butt" transform="matrix(-0.711914, 0, 0, 0.711914, 652.940995, 59.318201)" fill="none" stroke-linejoin="miter" d="M 638.457614 530.000248 L 637.919892 503.481728 " stroke="#09595c" stroke-width="2" stroke-opacity="1" stroke-miterlimit="4"/><path stroke-linecap="butt" transform="matrix(-0.711914, 0, 0, 0.711914, 652.940995, 59.318201)" fill="none" stroke-linejoin="miter" d="M 638.61125 494.900109 L 638.517971 440.370614 " stroke="#388785" stroke-width="2" stroke-opacity="1" stroke-miterlimit="4"/><path stroke-linecap="butt" transform="matrix(-0.711914, 0, 0, 0.711914, 652.940995, 59.318201)" fill="none" stroke-linejoin="miter" d="M 638.517971 440.370614 L 638.517971 418.197773 C 638.517971 417.874042 638.435667 417.566772 638.260084 417.292424 L 637.892457 416.699831 " stroke="#046868" stroke-width="2" stroke-opacity="1" stroke-miterlimit="4"/><path stroke-linecap="butt" transform="matrix(-0.711914, 0, 0, 0.711914, 652.940995, 59.318201)" fill="none" stroke-linejoin="miter" d="M 637.881483 416.699831 C 637.629082 416.271847 637.294377 415.915194 636.877367 415.640846 C 628.32867 410.987897 620.070782 405.852094 611.878738 401.29791 C 597.239505 393.199144 582.430177 384.178567 567.522083 375.602435 C 553.875992 367.761557 539.368446 359.229321 523.999447 350.000239 C 520.806031 348.090774 517.442519 346.126439 513.897938 344.101748 C 513.601641 343.926165 513.299858 343.926165 512.998075 344.101748 L 389.612609 416.551683 " stroke="#468e8c" stroke-width="2" stroke-opacity="1" stroke-miterlimit="4"/><path stroke-linecap="butt" transform="matrix(-0.711914, 0, 0, 0.711914, 652.940995, 59.318201)" fill="none" stroke-linejoin="miter" d="M 389.612609 416.551683 L 389.069399 417.061971 C 388.811512 417.292424 388.685312 417.583233 388.690799 417.928912 L 388.630442 434.817802 " stroke="#0b7270" stroke-width="2" stroke-opacity="1" stroke-miterlimit="4"/><path stroke-linecap="butt" transform="matrix(-0.711914, 0, 0, 0.711914, 652.940995, 59.318201)" fill="none" stroke-linejoin="miter" d="M 388.630442 434.817802 L 388.630442 494.291056 " stroke="#388785" stroke-width="2" stroke-opacity="1" stroke-miterlimit="4"/><path stroke-linecap="butt" transform="matrix(-0.711914, 0, 0, 0.711914, 652.940995, 59.318201)" fill="none" stroke-linejoin="miter" d="M 365.821113 588.738248 C 365.651017 587.081184 365.557739 585.468015 365.541278 583.909716 C 365.069398 546.082553 364.899302 508.249904 365.03099 470.411768 C 365.03099 461.5558 365.03099 452.710807 365.03099 443.8713 " stroke="#0b7270" stroke-width="2" stroke-opacity="1" stroke-miterlimit="4"/><path stroke-linecap="butt" transform="matrix(-0.711914, 0, 0, 0.711914, 652.940995, 59.318201)" fill="none" stroke-linejoin="miter" d="M 364.998068 443.8713 L 365.321799 405.489954 " stroke="#09595c" stroke-width="2" stroke-opacity="1" stroke-miterlimit="4"/><path stroke-linecap="butt" transform="matrix(-0.711914, 0, 0, 0.711914, 652.940995, 59.318201)" fill="none" stroke-linejoin="miter" d="M 689.771746 421.001614 C 685.886972 423.377472 682.325929 426.164852 679.077644 429.358268 C 677.821128 430.505044 676.624969 431.712177 675.489166 432.979667 C 675.280662 433.226581 675.017287 433.396677 674.699043 433.478981 C 674.490538 433.528364 674.320442 433.638103 674.177781 433.797226 C 674.040607 433.961835 673.958302 434.148392 673.941841 434.362383 C 671.582445 437.02905 669.244996 439.695717 666.940469 442.362384 C 664.915778 444.72178 663.225791 447.300656 661.87051 450.09901 " stroke="#0f9289" stroke-width="2" stroke-opacity="1" stroke-miterlimit="4"/><path stroke-linecap="butt" transform="matrix(-0.711914, 0, 0, 0.711914, 652.940995, 59.318201)" fill="none" stroke-linejoin="miter" d="M 638.578328 545.802718 C 637.047464 545.41863 635.977505 545.802718 635.35199 546.998877 C 635.187381 547.289686 634.973389 547.531113 634.699041 547.71767 C 633.41509 548.595585 632.081757 549.396682 630.699041 550.109988 C 629.475447 550.719042 628.361592 551.487217 627.357477 552.420002 L 624.361592 555.300661 C 623.65926 555.838384 622.918519 556.332211 622.150343 556.771168 C 621.886969 556.957725 621.590673 557.072952 621.272428 557.11136 L 613.590672 558.000249 " stroke="#3ec0b2" stroke-width="2" stroke-opacity="1" stroke-miterlimit="4"/><path stroke-linecap="butt" transform="matrix(-0.711914, 0, 0, 0.711914, 652.940995, 59.318201)" fill="none" stroke-linejoin="miter" d="M 688.070786 606.99888 C 683.456245 603.992021 678.869139 601.297919 674.298494 598.911088 L 662.062554 592.551691 " stroke="#0f9289" stroke-width="2" stroke-opacity="1" stroke-miterlimit="4"/><path stroke-linecap="butt" transform="matrix(-0.711914, 0, 0, 0.711914, 652.940995, 59.318201)" fill="none" stroke-linejoin="miter" d="M 413.881472 452.211493 L 408.361581 449.001616 C 408.081746 448.842494 407.779963 448.754702 407.461719 448.749215 C 407.017274 448.738241 406.627699 448.590093 406.287507 448.310258 C 404.054311 446.58735 401.914393 444.749215 399.878728 442.790367 L 399.790936 442.708063 L 388.630442 434.817802 " stroke="#3ec0b2" stroke-width="2" stroke-opacity="1" stroke-miterlimit="4"/><path stroke-linecap="butt" transform="matrix(-0.711914, 0, 0, 0.711914, 652.940995, 59.318201)" fill="none" stroke-linejoin="miter" d="M 660.559124 593.901486 L 513.700407 683.119597 " stroke="#065254" stroke-width="2" stroke-opacity="1" stroke-miterlimit="4"/><path stroke-linecap="butt" transform="matrix(-0.711914, 0, 0, 0.711914, 652.940995, 59.318201)" fill="none" stroke-linejoin="miter" d="M 513.700407 683.119597 L 422.331404 629.841131 " stroke="#065959" stroke-width="2" stroke-opacity="1" stroke-miterlimit="4"/><path stroke-linecap="butt" transform="matrix(-0.711914, 0, 0, 0.711914, 652.940995, 59.318201)" fill="none" stroke-linejoin="miter" d="M 458.089979 624.831528 C 474.75939 634.719046 491.445262 644.551694 508.147594 654.329472 C 509.963781 655.50917 511.922629 656.34319 514.029625 656.83153 " stroke="#448784" stroke-width="2" stroke-opacity="1" stroke-miterlimit="4"/><path stroke-linecap="butt" transform="matrix(-0.711914, 0, 0, 0.711914, 652.940995, 59.318201)" fill="none" stroke-linejoin="miter" d="M 638.517971 440.370614 C 637.629082 440.452919 636.74568 440.579119 635.867765 440.749215 C 634.984363 440.90285 634.199727 441.26499 633.519343 441.852096 C 632.421949 442.790367 631.220303 443.580491 629.919891 444.211492 C 628.1476 445.072946 626.435666 446.04414 624.789575 447.130559 C 623.576955 447.953605 622.243622 448.282823 620.789575 448.129188 C 619.560494 447.860326 618.358848 447.487212 617.190124 447.009846 C 615.955556 446.543454 614.677092 446.367871 613.36022 446.488584 " stroke="#37b6aa" stroke-width="2" stroke-opacity="1" stroke-miterlimit="4"/><path stroke-linecap="butt" transform="matrix(-0.711914, 0, 0, 0.711914, 652.940995, 59.318201)" fill="none" stroke-linejoin="miter" d="M 638.457614 530.000248 C 638.380797 529.330838 638.111935 528.919315 637.662004 528.782141 C 637.223047 528.71081 636.844446 528.826037 636.520715 529.122333 C 630.995337 533.007107 626.26557 535.487217 622.331413 536.562663 C 619.220302 537.314377 616.21893 538.373362 613.327298 539.750591 " stroke="#0f9289" stroke-width="2" stroke-opacity="1" stroke-miterlimit="4"/><path stroke-linecap="butt" transform="matrix(-0.711914, 0, 0, 0.711914, 652.940995, 59.318201)" fill="none" stroke-linejoin="miter" d="M 613.310837 539.728644 L 611.829355 519.339068 " stroke="#09736f" stroke-width="2" stroke-opacity="1" stroke-miterlimit="4"/><path stroke-linecap="butt" transform="matrix(-0.711914, 0, 0, 0.711914, 652.940995, 59.318201)" fill="none" stroke-linejoin="miter" d="M 638.539919 577.380223 L 638.13937 581.25951 C 638.111935 581.610676 637.947326 581.87405 637.640056 582.049633 L 514.00219 656.83153 " stroke="#36807e" stroke-width="2" stroke-opacity="1" stroke-miterlimit="4"/><path stroke-linecap="butt" transform="matrix(-0.711914, 0, 0, 0.711914, 652.940995, 59.318201)" fill="none" stroke-linejoin="miter" d="M 514.00219 656.83153 L 513.420571 632.639485 C 513.415084 632.359649 513.299858 632.145658 513.058431 631.997509 L 512.712752 631.778031 " stroke="#79dcce" stroke-width="2" stroke-opacity="1" stroke-miterlimit="4"/><path stroke-linecap="butt" transform="matrix(-0.711914, 0, 0, 0.711914, 652.940995, 59.318201)" fill="none" stroke-linejoin="miter" d="M 637.881483 416.699831 C 630.161318 421.264989 622.161317 425.264989 613.881482 428.699832 " stroke="#45bcb0" stroke-width="2" stroke-opacity="1" stroke-miterlimit="4"/><path stroke-linecap="butt" transform="matrix(-0.711914, 0, 0, 0.711914, 652.940995, 59.318201)" fill="none" stroke-linejoin="miter" d="M 413.442514 428.677884 C 410.254586 428.085291 407.29711 426.905593 404.58106 425.138789 C 401.277905 423.086663 396.279276 420.222465 389.579688 416.551683 " stroke="#4cc6b9" stroke-width="2" stroke-opacity="1" stroke-miterlimit="4"/><path stroke-linecap="butt" transform="matrix(-0.711914, 0, 0, 0.711914, 652.940995, 59.318201)" fill="none" stroke-linejoin="miter" d="M 613.310837 539.728644 L 613.61262 558.000249 " stroke="#0c8c84" stroke-width="2" stroke-opacity="1" stroke-miterlimit="4"/><path stroke-linecap="butt" transform="matrix(-0.711914, 0, 0, 0.711914, 652.940995, 59.318201)" fill="none" stroke-linejoin="miter" d="M 613.61262 558.000249 L 613.55775 569.122335 C 613.552263 569.725901 613.398628 570.296546 613.102332 570.828782 C 612.806036 571.361018 612.4 571.789002 611.889712 572.11822 C 603.961042 577.193666 596.570095 581.819181 589.711384 586.000251 C 566.737446 599.997508 545.129764 613.078441 524.888336 625.237564 C 521.041971 627.547578 517.376676 629.627139 513.892451 631.481734 C 513.524824 631.657317 513.135249 631.76157 512.729213 631.789005 " stroke="#39a199" stroke-width="2" stroke-opacity="1" stroke-miterlimit="4"/><path stroke-linecap="butt" transform="matrix(-0.711914, 0, 0, 0.711914, 652.940995, 59.318201)" fill="none" stroke-linejoin="miter" d="M 512.740187 631.778031 L 471.950062 607.77803 " stroke="#47a89f" stroke-width="2" stroke-opacity="1" stroke-miterlimit="4"/><path stroke-linecap="butt" transform="matrix(-0.711914, 0, 0, 0.711914, 652.940995, 59.318201)" fill="none" stroke-linejoin="miter" d="M 613.897943 428.672397 C 613.17915 434.598323 613.009054 440.54071 613.387654 446.499558 " stroke="#04827b" stroke-width="2" stroke-opacity="1" stroke-miterlimit="4"/><path stroke-linecap="butt" transform="matrix(-0.711914, 0, 0, 0.711914, 652.940995, 59.318201)" fill="none" stroke-linejoin="miter" d="M 413.881472 452.211493 L 413.442514 428.677884 " stroke="#0c8c84" stroke-width="2" stroke-opacity="1" stroke-miterlimit="4"/><path fill="#161b33" d="M 358.570312 497.058594 C 358.445312 496.925781 358.386719 496.765625 358.386719 496.578125 C 358.386719 496.394531 358.445312 496.234375 358.570312 496.097656 L 373.523438 479.484375 C 373.644531 479.347656 373.792969 479.273438 373.972656 479.253906 C 374.152344 479.234375 374.316406 479.277344 374.460938 479.382812 L 397.863281 496.660156 C 398.027344 496.785156 398.121094 496.949219 398.144531 497.152344 C 398.164062 497.355469 398.109375 497.539062 397.976562 497.695312 L 380.050781 518.109375 C 379.910156 518.261719 379.734375 518.335938 379.53125 518.335938 C 379.324219 518.335938 379.152344 518.261719 379.011719 518.109375 L 358.578125 497.03125 " fill-opacity="1" fill-rule="nonzero"/><path fill="#161b33" d="M 423.484375 546.464844 C 422.71875 546.796875 421.933594 547.070312 421.132812 547.285156 C 420.328125 547.503906 419.511719 547.660156 418.6875 547.761719 C 417.859375 547.859375 417.03125 547.902344 416.199219 547.882812 C 415.367188 547.863281 414.539062 547.785156 413.71875 547.648438 C 412.898438 547.511719 412.089844 547.316406 411.296875 547.0625 C 410.503906 546.808594 409.734375 546.503906 408.984375 546.140625 C 408.234375 545.777344 407.515625 545.359375 406.824219 544.894531 C 406.136719 544.429688 405.484375 543.914062 404.867188 543.355469 C 403.351562 541.984375 401.871094 540.558594 400.425781 539.085938 C 396.65625 535.289062 393.03125 531.640625 389.546875 528.148438 C 389.441406 528.0625 389.355469 527.960938 389.292969 527.835938 C 389.230469 527.714844 389.199219 527.585938 389.195312 527.445312 C 389.191406 527.308594 389.214844 527.179688 389.269531 527.050781 C 389.324219 526.925781 389.402344 526.816406 389.503906 526.726562 L 410.042969 503.945312 C 410.082031 503.898438 410.132812 503.875 410.191406 503.875 C 410.253906 503.875 410.300781 503.898438 410.34375 503.945312 C 414.277344 506.792969 418.546875 510.007812 423.15625 513.589844 C 427.972656 517.335938 430.96875 520.3125 432.140625 522.523438 C 432.417969 523.054688 432.664062 523.597656 432.882812 524.152344 C 433.101562 524.707031 433.292969 525.273438 433.453125 525.847656 C 433.617188 526.421875 433.746094 527.003906 433.847656 527.59375 C 433.949219 528.183594 434.019531 528.773438 434.058594 529.371094 C 434.097656 529.964844 434.109375 530.5625 434.085938 531.160156 C 434.066406 531.753906 434.011719 532.347656 433.929688 532.941406 C 433.847656 533.53125 433.730469 534.117188 433.589844 534.695312 C 433.445312 535.277344 433.273438 535.847656 433.070312 536.410156 C 432.867188 536.96875 432.636719 537.519531 432.375 538.058594 C 432.117188 538.597656 431.832031 539.117188 431.515625 539.628906 C 431.203125 540.136719 430.863281 540.625 430.5 541.097656 C 430.136719 541.574219 429.75 542.027344 429.335938 542.457031 C 428.925781 542.890625 428.492188 543.300781 428.039062 543.691406 C 427.585938 544.078125 427.113281 544.445312 426.625 544.785156 C 426.132812 545.125 425.625 545.4375 425.101562 545.722656 C 424.578125 546.011719 424.042969 546.269531 423.492188 546.503906 " fill-opacity="1" fill-rule="nonzero"/><path fill="#6b7fd7" d="M 162.21875 338.046875 C 163.039062 338.410156 163.640625 339.171875 164.355469 339.570312 C 169.921875 342.6875 175.640625 345.496094 181.511719 347.992188 C 186.8125 344.21875 192.296875 340.726562 197.957031 337.519531 C 227.6875 320.539062 257.191406 303.382812 286.46875 286.046875 C 286.753906 285.882812 287.0625 285.796875 287.394531 285.796875 C 287.726562 285.796875 288.035156 285.882812 288.320312 286.046875 L 392.84375 347.765625 C 394.136719 347.464844 395.371094 347.015625 396.550781 346.410156 C 398.578125 345.328125 402.429688 343.121094 408.097656 339.789062 C 409.542969 339.152344 411.050781 338.738281 412.621094 338.558594 C 410.386719 336.878906 408.050781 335.355469 405.613281 333.988281 C 403.375 332.730469 401.292969 331.527344 399.363281 330.378906 C 361.425781 307.847656 325.324219 286.648438 288.414062 264.699219 C 288.085938 264.496094 287.730469 264.394531 287.34375 264.394531 C 286.960938 264.394531 286.605469 264.496094 286.277344 264.699219 C 277.808594 269.996094 269.253906 275.175781 260.613281 280.246094 C 227.800781 299.511719 195.003906 318.777344 162.21875 338.046875 Z M 162.21875 338.046875 " fill-opacity="1" fill-rule="nonzero"/><path fill="#161b33" d="M 181.726562 379.863281 L 181.609375 481.210938 C 181.640625 481.488281 181.757812 481.71875 181.960938 481.902344 C 182.164062 482.089844 182.402344 482.183594 182.679688 482.1875 C 183.554688 481.425781 184.429688 480.679688 185.3125 479.960938 C 186.203125 479.238281 187.152344 478.605469 188.160156 478.066406 C 191.785156 476.144531 194.273438 474.71875 195.621094 473.792969 C 196.078125 473.445312 196.390625 472.996094 196.5625 472.449219 C 196.691406 471.929688 196.753906 471.402344 196.738281 470.867188 C 196.753906 470.273438 196.910156 469.722656 197.210938 469.210938 C 197.335938 468.988281 197.492188 468.960938 197.6875 469.136719 C 198.050781 469.484375 198.265625 469.90625 198.328125 470.40625 L 198.328125 447.921875 L 198.414062 436.660156 L 198.796875 417.78125 L 194.980469 415.105469 C 194.890625 415.039062 194.847656 414.949219 194.847656 414.835938 C 194.847656 414.726562 194.890625 414.636719 194.980469 414.570312 L 198.328125 411.6875 L 198.390625 372.867188 L 198.390625 357.105469 C 198.390625 356.871094 198.453125 356.65625 198.574219 356.457031 L 198.839844 356.035156 C 199.019531 355.730469 199.257812 355.480469 199.550781 355.28125 C 205.636719 351.972656 211.519531 348.3125 217.347656 345.074219 C 227.773438 339.308594 238.316406 332.886719 248.929688 326.777344 C 258.613281 321.195312 268.933594 315.128906 279.898438 308.574219 C 282.171875 307.210938 284.566406 305.8125 287.089844 304.375 C 287.300781 304.25 287.515625 304.25 287.730469 304.375 L 375.570312 355.929688 L 375.957031 356.292969 C 376.140625 356.457031 376.230469 356.664062 376.226562 356.914062 L 376.269531 368.9375 L 376.269531 411.273438 C 376.992188 412.433594 377.96875 413.3125 379.203125 413.902344 C 379.296875 413.964844 379.371094 414.042969 379.425781 414.140625 C 379.480469 414.238281 379.511719 414.34375 379.515625 414.457031 C 379.523438 414.570312 379.503906 414.675781 379.457031 414.777344 C 379.414062 414.882812 379.347656 414.96875 379.261719 415.039062 L 375.039062 418.109375 C 375.082031 418.464844 375.203125 418.648438 375.410156 418.65625 C 375.652344 418.667969 375.859375 418.761719 376.023438 418.941406 C 376.191406 419.121094 376.273438 419.332031 376.269531 419.574219 C 376.230469 427.796875 376.230469 435.390625 376.269531 442.355469 L 376.21875 467.1875 L 392.496094 478.492188 C 392.617188 477.3125 392.679688 476.164062 392.695312 475.054688 C 393.03125 448.121094 393.152344 421.1875 393.058594 394.253906 C 393.058594 387.949219 393.058594 381.652344 393.058594 375.359375 L 392.828125 348.035156 L 288.304688 286.320312 C 288.019531 286.152344 287.710938 286.066406 287.378906 286.066406 C 287.050781 286.066406 286.742188 286.152344 286.453125 286.320312 C 257.175781 303.671875 227.664062 320.828125 197.921875 337.789062 C 192.257812 341 186.777344 344.488281 181.476562 348.261719 Z M 181.726562 379.863281 " fill-opacity="1" fill-rule="nonzero"/><path fill="#6b7fd7" d="M 199.117188 355.972656 C 204.613281 359.222656 210.308594 362.070312 216.203125 364.515625 C 219.644531 362.144531 223.042969 360.007812 226.398438 358.109375 C 245.855469 346.957031 265.222656 335.65625 284.496094 324.207031 C 285.335938 323.699219 286.199219 323.242188 287.089844 322.832031 C 287.738281 322.546875 288.371094 322.585938 288.980469 322.945312 L 358.921875 364.5 C 361.191406 364.078125 363.292969 363.238281 365.226562 361.980469 C 367.578125 360.519531 371.136719 358.480469 375.90625 355.867188 L 288.097656 304.308594 C 287.886719 304.1875 287.671875 304.1875 287.457031 304.308594 C 284.933594 305.734375 282.535156 307.132812 280.269531 308.507812 C 269.304688 315.070312 258.980469 321.136719 249.300781 326.714844 C 238.683594 332.820312 228.140625 339.242188 217.71875 345.007812 C 211.867188 348.25 205.988281 351.90625 199.921875 355.21875 C 199.59375 355.40625 199.324219 355.65625 199.117188 355.972656 Z M 199.117188 355.972656 " fill-opacity="1" fill-rule="nonzero"/><path fill="#161b33" d="M 215.824219 364.34375 C 216.339844 368.566406 216.460938 372.796875 216.1875 377.039062 L 216.382812 399.472656 C 217.753906 398.28125 218.6875 396.8125 219.1875 395.0625 C 220.011719 392.421875 220.46875 391.011719 220.546875 390.792969 C 223.867188 382.910156 227.324219 374.941406 230.917969 366.894531 C 231.347656 366.113281 231.976562 365.570312 232.8125 365.261719 C 234.761719 364.359375 236.804688 363.453125 238.636719 362.371094 C 255.316406 352.40625 270.878906 343.863281 286.933594 334.28125 C 287.289062 334.0625 287.648438 334.0625 288.007812 334.28125 C 303.835938 343.664062 320.492188 353.429688 337.976562 363.582031 C 339.234375 364.300781 340.527344 364.953125 341.855469 365.535156 C 343.5 366.28125 344.078125 367.726562 344.789062 369.230469 C 347.601562 375.179688 350.195312 380.972656 352.570312 386.605469 C 353.339844 388.417969 354.152344 390.554688 355.003906 393.011719 C 355.746094 395.160156 356.597656 397.261719 357.566406 399.3125 C 358.265625 393.261719 358.480469 387.191406 358.207031 381.101562 L 358.523438 364.351562 L 288.617188 322.726562 C 288.007812 322.363281 287.375 322.324219 286.726562 322.613281 C 285.835938 323.023438 284.972656 323.480469 284.132812 323.988281 C 264.855469 335.433594 245.488281 346.734375 226.035156 357.886719 C 222.675781 359.832031 219.269531 361.984375 215.824219 364.34375 Z M 215.824219 364.34375 " fill-opacity="1" fill-rule="nonzero"/><path fill="#52618e" d="M 162.21875 338.273438 C 161.9375 338.449219 161.800781 338.703125 161.804688 339.035156 C 161.835938 345.804688 161.859375 352.480469 161.882812 359.0625 C 164.648438 360.757812 167.183594 362.738281 169.496094 365.015625 C 170.390625 365.832031 171.242188 366.6875 172.050781 367.589844 C 172.199219 367.769531 172.386719 367.886719 172.613281 367.945312 C 172.761719 367.984375 172.882812 368.058594 172.984375 368.171875 C 173.082031 368.289062 173.140625 368.421875 173.152344 368.574219 C 174.832031 370.472656 176.496094 372.371094 178.136719 374.269531 C 179.578125 375.949219 180.78125 377.785156 181.746094 379.777344 L 181.511719 348.199219 C 175.632812 345.714844 169.90625 342.917969 164.332031 339.8125 C 163.621094 339.398438 163.039062 338.636719 162.21875 338.273438 Z M 162.21875 338.273438 " fill-opacity="1" fill-rule="nonzero"/><path fill="#52618e" d="M 412.621094 338.53125 C 411.050781 338.710938 409.542969 339.121094 408.097656 339.761719 C 402.402344 343.085938 398.554688 345.292969 396.550781 346.382812 C 395.371094 346.988281 394.136719 347.4375 392.84375 347.734375 L 393.09375 375.058594 L 393.21875 374.625 C 393.230469 374.585938 393.253906 374.5625 393.292969 374.554688 C 393.371094 374.554688 393.425781 374.554688 393.449219 374.609375 C 393.46875 374.667969 393.511719 374.695312 393.546875 374.609375 C 393.804688 373.96875 394.25 373.515625 394.886719 373.242188 C 395.484375 372.988281 396.019531 372.644531 396.503906 372.210938 C 397.136719 371.628906 397.789062 371.078125 398.46875 370.558594 C 398.558594 370.488281 398.660156 370.441406 398.773438 370.417969 C 398.863281 370.398438 398.957031 370.386719 399.050781 370.382812 C 399.277344 370.375 399.484375 370.300781 399.664062 370.160156 C 402.054688 368.394531 404.199219 366.375 406.105469 364.097656 C 406.421875 363.703125 406.792969 363.371094 407.222656 363.105469 C 407.394531 363.007812 407.527344 362.875 407.621094 362.699219 C 408.496094 361.273438 409.628906 360.085938 411.011719 359.140625 C 411.558594 358.746094 411.914062 358.222656 412.070312 357.566406 C 412.339844 356.578125 412.425781 355.574219 412.320312 354.554688 C 412.308594 354.535156 412.308594 354.519531 412.320312 354.5 C 412.320312 354.5 412.371094 354.5 412.378906 354.5 C 412.382812 354.519531 412.382812 354.542969 412.378906 354.5625 C 412.335938 355.359375 412.378906 356.152344 412.507812 356.941406 Z M 412.621094 338.53125 " fill-opacity="1" fill-rule="nonzero"/><path fill="#6b7fd7" d="M 393.09375 375.066406 C 393.09375 381.398438 393.09375 387.722656 393.09375 394.039062 C 393.183594 421.089844 393.0625 448.144531 392.730469 475.195312 C 392.730469 476.316406 392.652344 477.460938 392.53125 478.648438 L 411.714844 491.777344 C 411.859375 491.871094 412.003906 491.882812 412.15625 491.804688 C 412.308594 491.722656 412.386719 491.601562 412.390625 491.429688 L 412.535156 356.898438 C 412.40625 356.109375 412.363281 355.3125 412.40625 354.511719 C 412.410156 354.492188 412.410156 354.46875 412.40625 354.449219 C 412.40625 354.449219 412.40625 354.414062 412.351562 354.449219 C 412.339844 354.46875 412.339844 354.488281 412.351562 354.507812 C 412.453125 355.53125 412.371094 356.539062 412.101562 357.53125 C 411.9375 358.1875 411.585938 358.714844 411.039062 359.113281 C 409.65625 360.054688 408.527344 361.242188 407.652344 362.671875 C 407.554688 362.84375 407.421875 362.980469 407.253906 363.078125 C 406.824219 363.34375 406.449219 363.671875 406.132812 364.066406 C 404.230469 366.355469 402.082031 368.386719 399.691406 370.160156 C 399.511719 370.300781 399.308594 370.375 399.078125 370.382812 C 398.984375 370.386719 398.894531 370.398438 398.800781 370.417969 C 398.6875 370.441406 398.585938 370.488281 398.496094 370.558594 C 397.820312 371.078125 397.164062 371.636719 396.53125 372.21875 C 396.050781 372.652344 395.511719 372.996094 394.914062 373.25 C 394.28125 373.527344 393.835938 373.984375 393.578125 374.625 C 393.539062 374.703125 393.511719 374.703125 393.476562 374.625 C 393.441406 374.546875 393.398438 374.546875 393.320312 374.566406 C 393.28125 374.578125 393.257812 374.601562 393.25 374.640625 Z M 393.09375 375.066406 " fill-opacity="1" fill-rule="nonzero"/><path fill="#52618e" d="M 375.570312 355.867188 C 370.824219 358.484375 367.265625 360.523438 364.894531 361.980469 C 362.957031 363.238281 360.855469 364.078125 358.585938 364.5 L 358.273438 381.253906 L 362.222656 378.96875 C 362.421875 378.855469 362.636719 378.792969 362.863281 378.789062 C 363.179688 378.78125 363.457031 378.675781 363.699219 378.476562 C 365.289062 377.25 366.8125 375.941406 368.261719 374.546875 L 368.324219 374.488281 L 376.269531 368.871094 L 376.226562 356.847656 C 376.230469 356.601562 376.140625 356.394531 375.957031 356.230469 Z M 375.570312 355.867188 " fill-opacity="1" fill-rule="nonzero"/><path fill="#161b33" d="M 232.199219 389.816406 C 238.707031 375.109375 249.121094 365.796875 264.234375 358.984375 C 268.453125 357.148438 272.828125 355.84375 277.359375 355.074219 C 281.894531 354.308594 286.453125 354.097656 291.039062 354.441406 C 317.09375 356.414062 339.914062 374.042969 346.207031 399.742188 C 350.003906 415.257812 347.867188 430.398438 339.796875 445.167969 C 338.566406 447.246094 337.167969 449.203125 335.597656 451.042969 C 335.496094 451.175781 335.457031 451.324219 335.480469 451.488281 C 335.507812 451.65625 335.589844 451.785156 335.726562 451.882812 L 362.453125 470.269531 C 362.554688 470.34375 362.613281 470.441406 362.632812 470.5625 C 362.652344 470.6875 362.621094 470.796875 362.542969 470.898438 C 358.445312 475.996094 354.125 480.976562 349.585938 485.847656 C 349.523438 485.9375 349.4375 485.984375 349.324219 485.984375 C 349.210938 485.984375 349.125 485.9375 349.058594 485.847656 L 345.941406 482.628906 L 326.007812 461.863281 C 325.945312 461.78125 325.859375 461.734375 325.757812 461.722656 C 325.652344 461.714844 325.558594 461.742188 325.480469 461.8125 C 319.464844 466.230469 312.914062 469.625 305.832031 471.992188 C 300.914062 473.574219 295.875 474.511719 290.714844 474.808594 C 285.558594 475.105469 280.445312 474.746094 275.378906 473.738281 C 255.292969 469.097656 238.359375 455.226562 231.003906 435.722656 C 225.15625 420.152344 225.554688 404.851562 232.199219 389.816406 Z M 287.496094 459.3125 C 288.957031 459.3125 290.414062 459.242188 291.871094 459.097656 C 293.324219 458.957031 294.769531 458.742188 296.203125 458.457031 C 297.636719 458.171875 299.050781 457.816406 300.453125 457.390625 C 301.851562 456.96875 303.226562 456.476562 304.574219 455.917969 C 305.925781 455.355469 307.246094 454.734375 308.535156 454.042969 C 309.824219 453.355469 311.078125 452.605469 312.292969 451.792969 C 313.507812 450.980469 314.679688 450.109375 315.8125 449.183594 C 316.941406 448.253906 318.023438 447.273438 319.058594 446.242188 C 320.089844 445.207031 321.070312 444.125 322 442.996094 C 322.925781 441.863281 323.796875 440.691406 324.609375 439.476562 C 325.421875 438.261719 326.171875 437.007812 326.859375 435.71875 C 327.550781 434.429688 328.175781 433.109375 328.734375 431.757812 C 329.292969 430.410156 329.785156 429.035156 330.210938 427.632812 C 330.632812 426.234375 330.988281 424.820312 331.273438 423.386719 C 331.558594 421.953125 331.773438 420.507812 331.917969 419.050781 C 332.058594 417.597656 332.132812 416.140625 332.132812 414.675781 C 332.132812 413.214844 332.058594 411.757812 331.917969 410.300781 C 331.773438 408.847656 331.558594 407.402344 331.273438 405.96875 C 330.988281 404.535156 330.632812 403.117188 330.210938 401.71875 C 329.785156 400.320312 329.292969 398.945312 328.734375 397.59375 C 328.175781 396.246094 327.550781 394.925781 326.859375 393.636719 C 326.171875 392.347656 325.421875 391.09375 324.609375 389.878906 C 323.796875 388.664062 322.925781 387.488281 322 386.359375 C 321.070312 385.230469 320.089844 384.148438 319.058594 383.113281 C 318.023438 382.082031 316.941406 381.101562 315.8125 380.171875 C 314.679688 379.246094 313.507812 378.375 312.292969 377.5625 C 311.078125 376.75 309.824219 376 308.535156 375.3125 C 307.246094 374.621094 305.925781 373.996094 304.574219 373.4375 C 303.226562 372.878906 301.851562 372.386719 300.453125 371.960938 C 299.050781 371.539062 297.636719 371.183594 296.203125 370.898438 C 294.769531 370.613281 293.324219 370.398438 291.871094 370.253906 C 290.414062 370.113281 288.957031 370.039062 287.496094 370.039062 C 286.03125 370.039062 284.574219 370.113281 283.117188 370.253906 C 281.664062 370.398438 280.21875 370.613281 278.785156 370.898438 C 277.351562 371.183594 275.9375 371.539062 274.535156 371.960938 C 273.136719 372.386719 271.761719 372.878906 270.414062 373.4375 C 269.0625 373.996094 267.742188 374.621094 266.453125 375.3125 C 265.164062 376 263.910156 376.75 262.695312 377.5625 C 261.480469 378.375 260.308594 379.246094 259.175781 380.171875 C 258.046875 381.101562 256.964844 382.082031 255.929688 383.113281 C 254.898438 384.148438 253.917969 385.230469 252.988281 386.359375 C 252.0625 387.488281 251.191406 388.664062 250.378906 389.878906 C 249.566406 391.09375 248.816406 392.347656 248.128906 393.636719 C 247.4375 394.925781 246.8125 396.246094 246.253906 397.59375 C 245.695312 398.945312 245.203125 400.320312 244.777344 401.71875 C 244.355469 403.117188 244 404.535156 243.714844 405.96875 C 243.429688 407.402344 243.214844 408.847656 243.070312 410.300781 C 242.929688 411.757812 242.855469 413.214844 242.855469 414.675781 C 242.855469 416.140625 242.929688 417.597656 243.070312 419.050781 C 243.214844 420.507812 243.429688 421.953125 243.714844 423.386719 C 244 424.820312 244.355469 426.234375 244.777344 427.632812 C 245.203125 429.035156 245.695312 430.410156 246.253906 431.757812 C 246.8125 433.109375 247.4375 434.429688 248.128906 435.71875 C 248.816406 437.007812 249.566406 438.261719 250.378906 439.476562 C 251.191406 440.691406 252.0625 441.863281 252.988281 442.996094 C 253.917969 444.125 254.898438 445.207031 255.929688 446.242188 C 256.964844 447.273438 258.046875 448.253906 259.175781 449.183594 C 260.308594 450.109375 261.480469 450.980469 262.695312 451.792969 C 263.910156 452.605469 265.164062 453.355469 266.453125 454.042969 C 267.742188 454.734375 269.0625 455.355469 270.414062 455.917969 C 271.761719 456.476562 273.136719 456.96875 274.535156 457.390625 C 275.9375 457.816406 277.351562 458.171875 278.785156 458.457031 C 280.21875 458.742188 281.664062 458.957031 283.117188 459.097656 C 284.574219 459.242188 286.03125 459.3125 287.496094 459.3125 Z M 287.496094 459.3125 " fill-opacity="1" fill-rule="nonzero"/><path fill="#52618e" d="M 198.824219 355.972656 L 198.5625 356.394531 C 198.4375 356.589844 198.375 356.808594 198.375 357.039062 L 198.375 372.824219 C 199.011719 372.882812 199.640625 372.972656 200.261719 373.09375 C 200.894531 373.203125 201.449219 373.460938 201.9375 373.878906 C 202.71875 374.546875 203.574219 375.109375 204.5 375.558594 C 205.761719 376.171875 206.980469 376.863281 208.152344 377.636719 C 209.015625 378.222656 209.964844 378.457031 211 378.347656 C 211.875 378.15625 212.730469 377.890625 213.5625 377.550781 C 214.441406 377.21875 215.351562 377.09375 216.289062 377.179688 C 216.5625 372.9375 216.441406 368.707031 215.925781 364.488281 C 210.023438 362.050781 204.324219 359.214844 198.824219 355.972656 Z M 198.824219 355.972656 " fill-opacity="1" fill-rule="nonzero"/><path fill="#6b7fd7" d="M 161.882812 359.035156 C 161.839844 402.617188 161.839844 446.109375 161.882812 489.511719 C 161.875 489.90625 161.949219 490.28125 162.113281 490.636719 C 162.425781 491.277344 162.746094 491.535156 163.066406 491.40625 C 166.351562 489.265625 169.617188 487.347656 172.867188 485.648438 L 181.582031 481.121094 L 181.695312 379.773438 C 180.734375 377.777344 179.53125 375.941406 178.085938 374.261719 C 176.460938 372.339844 174.796875 370.441406 173.105469 368.566406 C 173.089844 368.414062 173.03125 368.28125 172.933594 368.167969 C 172.835938 368.050781 172.710938 367.976562 172.5625 367.941406 C 172.339844 367.878906 172.152344 367.761719 172 367.585938 C 171.191406 366.683594 170.339844 365.824219 169.445312 365.007812 C 167.152344 362.726562 164.632812 360.738281 161.882812 359.035156 Z M 161.882812 359.035156 " fill-opacity="1" fill-rule="nonzero"/><path fill="#6b7fd7" d="M 376.261719 368.871094 L 368.316406 374.488281 L 368.253906 374.546875 C 366.804688 375.941406 365.285156 377.25 363.691406 378.476562 C 363.449219 378.675781 363.171875 378.78125 362.855469 378.789062 C 362.628906 378.792969 362.414062 378.855469 362.214844 378.96875 L 358.285156 381.253906 C 358.550781 387.34375 358.324219 393.414062 357.617188 399.472656 L 376.25 411.210938 Z M 376.261719 368.871094 " fill-opacity="1" fill-rule="nonzero"/><path fill="#6b7fd7" d="M 198.375 372.824219 L 198.3125 411.644531 L 216.460938 399.613281 L 216.265625 377.179688 C 215.328125 377.09375 214.421875 377.21875 213.539062 377.550781 C 212.710938 377.890625 211.855469 378.15625 210.976562 378.347656 C 209.941406 378.457031 208.992188 378.222656 208.128906 377.636719 C 206.957031 376.863281 205.742188 376.171875 204.476562 375.558594 C 203.550781 375.109375 202.695312 374.546875 201.914062 373.878906 C 201.429688 373.460938 200.871094 373.203125 200.242188 373.09375 C 199.625 372.972656 199.003906 372.882812 198.375 372.824219 Z M 198.375 372.824219 " fill-opacity="1" fill-rule="nonzero"/><path fill="#161b33" d="M 292.070312 393.832031 C 299.597656 395.492188 305.105469 399.875 308.59375 406.972656 C 309.726562 409.394531 310.339844 411.941406 310.433594 414.613281 C 310.746094 420.457031 318.859375 421.730469 320.5625 415.832031 C 321.351562 413.082031 320.347656 409.316406 319.480469 406.46875 C 318.453125 403.035156 316.890625 399.863281 314.789062 396.957031 C 312.6875 394.050781 310.167969 391.570312 307.226562 389.519531 C 303.304688 386.707031 295.296875 382.433594 290.855469 384.742188 C 290.394531 384.960938 289.976562 385.242188 289.605469 385.59375 C 289.234375 385.945312 288.925781 386.34375 288.679688 386.792969 C 288.4375 387.242188 288.269531 387.71875 288.175781 388.21875 C 288.082031 388.722656 288.070312 389.226562 288.140625 389.730469 C 288.207031 390.238281 288.351562 390.722656 288.574219 391.179688 C 288.792969 391.640625 289.082031 392.054688 289.4375 392.425781 C 289.789062 392.792969 290.191406 393.097656 290.640625 393.339844 C 291.09375 393.578125 291.570312 393.742188 292.070312 393.832031 Z M 292.070312 393.832031 " fill-opacity="1" fill-rule="nonzero"/><path fill="#4d566d" d="M 198.796875 417.738281 L 198.414062 436.617188 C 198.46875 436.140625 198.660156 435.847656 198.980469 435.75 C 199.292969 435.699219 199.5625 435.78125 199.792969 435.992188 C 203.726562 438.757812 207.09375 440.523438 209.894531 441.289062 C 212.109375 441.824219 214.246094 442.582031 216.304688 443.558594 L 217.355469 429.042969 Z M 198.796875 417.738281 " fill-opacity="1" fill-rule="nonzero"/><path fill="#52618e" d="M 375.003906 418.121094 L 357.78125 428.9375 C 357.921875 428.953125 358.003906 429.035156 358.03125 429.171875 C 358.101562 429.398438 358.070312 429.613281 357.945312 429.8125 C 357.671875 430.214844 357.574219 430.65625 357.644531 431.136719 C 358.125 434.503906 358.292969 437.890625 358.144531 441.289062 C 357.992188 445.445312 357.925781 449.59375 357.945312 453.734375 C 357.972656 454.191406 357.863281 454.617188 357.617188 455.007812 C 357.773438 455.0625 357.90625 455.15625 358.007812 455.285156 L 358.300781 452.914062 C 358.300781 452.808594 358.339844 452.722656 358.417969 452.652344 C 358.496094 452.582031 358.589844 452.550781 358.691406 452.566406 C 358.957031 452.570312 359.167969 452.46875 359.328125 452.253906 C 360.867188 450.265625 362.796875 448.796875 365.121094 447.84375 C 366.410156 447.203125 367.636719 446.460938 368.800781 445.617188 C 369.671875 445.007812 370.484375 444.324219 371.238281 443.574219 C 373.03125 441.855469 374.707031 441.460938 376.261719 442.390625 C 376.207031 435.410156 376.207031 427.816406 376.261719 419.609375 C 376.265625 419.367188 376.183594 419.15625 376.019531 418.976562 C 375.851562 418.796875 375.644531 418.703125 375.402344 418.691406 C 375.167969 418.640625 375.046875 418.457031 375.003906 418.121094 Z M 375.003906 418.121094 " fill-opacity="1" fill-rule="nonzero"/><path fill="#4d566d" d="M 357.804688 428.914062 C 357.003906 429.144531 356.570312 429.578125 356.507812 430.21875 C 355.753906 437.238281 353.417969 443.210938 350.648438 449.539062 C 350.570312 449.699219 350.558594 449.867188 350.605469 450.039062 C 350.65625 450.210938 350.753906 450.347656 350.90625 450.445312 L 357.640625 454.984375 C 357.886719 454.597656 357.996094 454.171875 357.964844 453.710938 C 357.964844 449.574219 358.03125 445.425781 358.164062 441.265625 C 358.3125 437.867188 358.148438 434.484375 357.667969 431.117188 C 357.59375 430.636719 357.695312 430.195312 357.964844 429.792969 C 358.09375 429.589844 358.121094 429.378906 358.050781 429.152344 C 358.027344 429.011719 357.941406 428.933594 357.804688 428.914062 Z M 357.804688 428.914062 " fill-opacity="1" fill-rule="nonzero"/><path fill="#161b33" d="M 217.199219 429.042969 L 216.144531 443.558594 L 215.933594 456.566406 L 215.96875 464.484375 C 215.976562 464.914062 216.082031 465.320312 216.292969 465.699219 C 216.503906 466.078125 216.792969 466.382812 217.15625 466.617188 C 222.820312 470.230469 228.070312 473.523438 232.910156 476.5 C 249.265625 486.464844 264.648438 495.777344 279.058594 504.433594 C 281.796875 506.078125 284.40625 507.558594 286.890625 508.878906 C 287.152344 509.003906 287.425781 509.078125 287.714844 509.097656 L 316.753906 492.011719 L 327.886719 484.894531 C 328.140625 484.730469 328.417969 484.667969 328.71875 484.703125 C 329.015625 484.738281 329.273438 484.863281 329.484375 485.078125 C 330.058594 485.667969 330.601562 485.882812 331.113281 485.71875 L 323.601562 477.554688 C 323.441406 477.375 323.242188 477.257812 323.011719 477.199219 C 322.777344 477.140625 322.546875 477.152344 322.320312 477.234375 C 321.683594 477.457031 321.074219 477.738281 320.492188 478.082031 C 309.816406 484.375 298.835938 490.738281 287.542969 497.175781 C 287.238281 497.34375 286.9375 497.34375 286.632812 497.175781 L 266.121094 485.328125 L 231.238281 464.46875 C 230.699219 464.148438 230.304688 463.699219 230.058594 463.121094 C 227.53125 457.261719 225.015625 451.363281 222.503906 445.433594 C 220.320312 440.566406 218.878906 435.492188 218.175781 430.203125 C 218.125 429.792969 217.804688 429.421875 217.199219 429.042969 Z M 217.199219 429.042969 " fill-opacity="1" fill-rule="nonzero"/><path fill="#52618e" d="M 198.414062 436.632812 L 198.328125 447.894531 C 199.417969 447.625 200.179688 447.894531 200.625 448.75 C 200.742188 448.957031 200.894531 449.128906 201.089844 449.261719 C 202.003906 449.886719 202.953125 450.453125 203.9375 450.964844 C 204.808594 451.398438 205.601562 451.945312 206.316406 452.609375 L 208.449219 454.660156 C 208.949219 455.042969 209.476562 455.390625 210.023438 455.703125 C 210.210938 455.839844 210.421875 455.917969 210.648438 455.945312 L 216.117188 456.582031 L 216.332031 443.574219 C 214.273438 442.59375 212.136719 441.839844 209.925781 441.304688 C 207.128906 440.542969 203.761719 438.777344 199.820312 436.007812 C 199.589844 435.796875 199.320312 435.714844 199.011719 435.765625 C 198.660156 435.847656 198.46875 436.140625 198.414062 436.632812 Z M 198.414062 436.632812 " fill-opacity="1" fill-rule="nonzero"/><path fill="#6b7fd7" d="M 358.03125 455.335938 L 376.234375 467.246094 L 376.285156 442.414062 C 374.726562 441.464844 373.050781 441.859375 371.257812 443.59375 C 370.503906 444.347656 369.695312 445.027344 368.824219 445.636719 C 367.65625 446.484375 366.429688 447.226562 365.144531 447.867188 C 362.816406 448.824219 360.882812 450.300781 359.347656 452.292969 C 359.191406 452.507812 358.980469 452.613281 358.714844 452.609375 C 358.609375 452.59375 358.519531 452.625 358.4375 452.695312 C 358.359375 452.765625 358.320312 452.851562 358.324219 452.957031 Z M 358.03125 455.335938 " fill-opacity="1" fill-rule="nonzero"/><path fill="#6b7fd7" d="M 198.328125 447.882812 L 198.328125 470.363281 L 198.613281 473.125 C 198.632812 473.375 198.75 473.5625 198.96875 473.6875 L 287.015625 526.925781 L 287.429688 509.703125 C 287.433594 509.503906 287.515625 509.351562 287.6875 509.246094 L 287.933594 509.089844 C 287.644531 509.070312 287.371094 508.996094 287.109375 508.871094 C 284.632812 507.550781 282.023438 506.070312 279.277344 504.429688 C 264.851562 495.777344 249.464844 486.464844 233.117188 476.5 C 228.25 473.535156 222.984375 470.25 217.328125 466.648438 C 216.964844 466.414062 216.675781 466.105469 216.464844 465.726562 C 216.253906 465.351562 216.144531 464.945312 216.140625 464.511719 L 216.101562 456.59375 L 210.636719 455.960938 C 210.40625 455.933594 210.199219 455.851562 210.007812 455.71875 C 209.460938 455.40625 208.9375 455.058594 208.4375 454.671875 L 206.300781 452.621094 C 205.585938 451.960938 204.792969 451.410156 203.921875 450.976562 C 202.9375 450.46875 201.988281 449.902344 201.074219 449.277344 C 200.882812 449.140625 200.726562 448.96875 200.613281 448.761719 C 200.164062 447.894531 199.417969 447.609375 198.328125 447.882812 Z M 198.328125 447.882812 " fill-opacity="1" fill-rule="nonzero"/><path fill="#161b33" d="M 182.679688 482.265625 L 287.230469 545.785156 L 352.277344 507.824219 L 341.007812 495.890625 L 326.820312 504.265625 C 314.953125 511.308594 303.074219 518.308594 291.183594 525.265625 C 289.898438 526.105469 288.511719 526.695312 287.015625 527.046875 L 199.015625 473.808594 C 198.800781 473.683594 198.679688 473.496094 198.660156 473.246094 L 198.375 470.484375 C 198.316406 469.984375 198.101562 469.5625 197.734375 469.21875 C 197.542969 469.039062 197.386719 469.066406 197.257812 469.289062 C 196.960938 469.800781 196.804688 470.355469 196.789062 470.945312 C 196.800781 471.480469 196.742188 472.007812 196.609375 472.527344 C 196.441406 473.074219 196.125 473.523438 195.671875 473.871094 C 194.320312 474.785156 191.832031 476.207031 188.210938 478.144531 C 187.199219 478.683594 186.25 479.316406 185.363281 480.039062 C 184.429688 480.769531 183.554688 481.484375 182.679688 482.265625 Z M 182.679688 482.265625 " fill-opacity="1" fill-rule="nonzero"/><path fill="#161b33" d="M 358.570312 497.058594 L 379.003906 518.140625 C 379.144531 518.289062 379.316406 518.363281 379.523438 518.363281 C 379.730469 518.363281 379.902344 518.289062 380.042969 518.140625 L 397.96875 497.722656 C 398.101562 497.566406 398.15625 497.386719 398.136719 497.179688 C 398.113281 496.976562 398.019531 496.8125 397.855469 496.691406 L 374.453125 479.410156 C 374.308594 479.308594 374.144531 479.265625 373.964844 479.28125 C 373.785156 479.300781 373.636719 479.378906 373.515625 479.511719 L 358.566406 496.128906 C 358.449219 496.261719 358.394531 496.417969 358.394531 496.59375 C 358.394531 496.773438 358.453125 496.925781 358.570312 497.058594 Z M 358.570312 497.058594 " fill-opacity="1" fill-rule="nonzero"/><path fill="#586aaf" d="M 181.097656 481.148438 C 178.222656 482.628906 175.285156 484.144531 172.292969 485.691406 C 169.003906 487.398438 165.699219 489.324219 162.382812 491.472656 L 287.203125 566.300781 L 287.585938 566.074219 C 287.816406 565.953125 287.921875 565.761719 287.914062 565.503906 L 287.914062 545.882812 L 182.179688 482.125 C 181.902344 482.121094 181.660156 482.027344 181.453125 481.84375 C 181.246094 481.65625 181.128906 481.425781 181.097656 481.148438 Z M 181.097656 481.148438 " fill-opacity="1" fill-rule="nonzero"/><path fill="#52618e" d="M 316.917969 491.925781 C 318.546875 493.464844 319.851562 495.242188 320.824219 497.257812 C 320.933594 497.476562 321.082031 497.660156 321.273438 497.808594 C 321.609375 498.066406 321.832031 498.398438 321.949219 498.804688 C 322.015625 499.019531 322.132812 499.203125 322.300781 499.351562 C 322.667969 499.6875 323.003906 500.050781 323.304688 500.449219 C 324.035156 501.449219 324.933594 502.261719 326 502.890625 L 326.457031 503.074219 C 326.839844 503.226562 326.949219 503.566406 326.785156 504.101562 L 341.007812 495.722656 L 339.058594 493.757812 L 331.3125 485.613281 C 330.800781 485.777344 330.257812 485.5625 329.683594 484.972656 C 329.472656 484.757812 329.21875 484.632812 328.917969 484.597656 C 328.617188 484.5625 328.339844 484.625 328.085938 484.785156 Z M 316.917969 491.925781 " fill-opacity="1" fill-rule="nonzero"/><path fill="#52618e" d="M 316.917969 492.160156 C 318.546875 493.699219 319.851562 495.476562 320.824219 497.496094 C 320.933594 497.710938 321.082031 497.894531 321.273438 498.042969 C 321.609375 498.300781 321.832031 498.632812 321.949219 499.039062 C 322.015625 499.253906 322.132812 499.4375 322.300781 499.585938 C 322.679688 499.925781 323.019531 500.300781 323.324219 500.703125 C 324.054688 501.703125 324.957031 502.519531 326.023438 503.148438 L 326.480469 503.332031 C 326.863281 503.480469 326.96875 503.824219 326.804688 504.355469 L 340.996094 495.992188 L 339.042969 494.027344 L 331.296875 485.882812 C 330.785156 486.046875 330.246094 485.832031 329.667969 485.242188 C 329.457031 485.027344 329.203125 484.902344 328.902344 484.867188 C 328.605469 484.832031 328.328125 484.894531 328.074219 485.058594 Z M 316.917969 492.160156 " fill-opacity="1" fill-rule="nonzero"/><path fill="#6b7fd7" d="M 316.875 491.96875 L 287.835938 509.054688 L 287.585938 509.210938 C 287.417969 509.316406 287.332031 509.46875 287.332031 509.667969 L 286.917969 526.890625 C 288.417969 526.542969 289.8125 525.949219 291.105469 525.109375 C 303.007812 518.148438 314.886719 511.144531 326.742188 504.109375 C 326.90625 503.574219 326.800781 503.230469 326.414062 503.082031 L 325.957031 502.898438 C 324.890625 502.269531 323.992188 501.457031 323.261719 500.457031 C 322.960938 500.058594 322.625 499.691406 322.257812 499.359375 C 322.089844 499.210938 321.972656 499.027344 321.90625 498.8125 C 321.789062 498.40625 321.566406 498.074219 321.230469 497.816406 C 321.039062 497.667969 320.890625 497.484375 320.785156 497.265625 C 319.804688 495.261719 318.5 493.496094 316.875 491.96875 Z M 316.875 491.96875 " fill-opacity="1" fill-rule="nonzero"/><path fill="#161b33" d="M 423.484375 546.464844 C 424.035156 546.234375 424.570312 545.976562 425.09375 545.6875 C 425.617188 545.402344 426.125 545.085938 426.617188 544.746094 C 427.109375 544.40625 427.578125 544.042969 428.035156 543.65625 C 428.488281 543.265625 428.917969 542.855469 429.332031 542.421875 C 429.742188 541.988281 430.128906 541.535156 430.492188 541.0625 C 430.855469 540.589844 431.195312 540.101562 431.507812 539.589844 C 431.824219 539.082031 432.109375 538.558594 432.367188 538.023438 C 432.628906 537.484375 432.859375 536.933594 433.0625 536.375 C 433.265625 535.8125 433.4375 535.242188 433.582031 534.660156 C 433.726562 534.082031 433.839844 533.496094 433.921875 532.90625 C 434.003906 532.3125 434.058594 531.71875 434.078125 531.121094 C 434.101562 530.527344 434.09375 529.929688 434.050781 529.335938 C 434.011719 528.738281 433.941406 528.144531 433.839844 527.558594 C 433.738281 526.96875 433.609375 526.386719 433.449219 525.8125 C 433.285156 525.238281 433.097656 524.671875 432.875 524.117188 C 432.65625 523.5625 432.410156 523.019531 432.132812 522.488281 C 430.960938 520.273438 427.964844 517.296875 423.148438 513.554688 C 418.539062 509.976562 414.269531 506.761719 410.335938 503.910156 C 410.296875 503.863281 410.246094 503.839844 410.183594 503.839844 C 410.125 503.839844 410.074219 503.863281 410.035156 503.910156 L 389.496094 526.691406 C 389.394531 526.78125 389.316406 526.890625 389.261719 527.015625 C 389.207031 527.144531 389.183594 527.273438 389.1875 527.410156 C 389.191406 527.550781 389.226562 527.679688 389.285156 527.800781 C 389.347656 527.925781 389.433594 528.027344 389.539062 528.113281 C 393.023438 531.585938 396.648438 535.234375 400.417969 539.046875 C 401.839844 540.503906 403.324219 541.929688 404.859375 543.320312 C 405.476562 543.882812 406.128906 544.398438 406.816406 544.863281 C 407.507812 545.332031 408.226562 545.75 408.972656 546.113281 C 409.722656 546.480469 410.492188 546.789062 411.285156 547.042969 C 412.082031 547.296875 412.886719 547.496094 413.710938 547.632812 C 414.53125 547.773438 415.359375 547.851562 416.191406 547.871094 C 417.023438 547.890625 417.851562 547.851562 418.679688 547.753906 C 419.507812 547.65625 420.324219 547.5 421.128906 547.28125 C 421.933594 547.066406 422.71875 546.796875 423.484375 546.464844 Z M 423.484375 546.464844 " fill-opacity="1" fill-rule="nonzero"/><path fill="#6b7fd7" d="M 352.277344 507.710938 L 287.230469 545.640625 L 287.230469 565.191406 C 287.238281 565.445312 287.132812 565.636719 286.910156 565.757812 L 286.527344 565.988281 C 287.375 566.878906 289.117188 565.652344 289.90625 565.160156 C 292.457031 563.550781 295.109375 561.933594 297.867188 560.304688 C 317.464844 548.769531 337.039062 537.207031 356.601562 525.621094 C 358.972656 524.234375 361.375 522.730469 363.804688 521.101562 C 363.941406 521.007812 364.019531 520.882812 364.039062 520.71875 C 364.058594 520.554688 364.015625 520.410156 363.902344 520.289062 Z M 352.277344 507.710938 " fill-opacity="1" fill-rule="nonzero"/><g fill="#161b33" fill-opacity="1"><g transform="translate(427.85895, 405.75)"><g><path d="M 45.375 -36.171875 C 45.375 -33.085938 44.660156 -30.265625 43.234375 -27.703125 C 41.816406 -25.140625 39.640625 -23.070312 36.703125 -21.5 C 33.765625 -19.9375 30.117188 -19.15625 25.765625 -19.15625 L 17.703125 -19.15625 L 17.703125 0 L 4.71875 0 L 4.71875 -53.359375 L 25.765625 -53.359375 C 30.015625 -53.359375 33.609375 -52.617188 36.546875 -51.140625 C 39.492188 -49.671875 41.703125 -47.644531 43.171875 -45.0625 C 44.640625 -42.476562 45.375 -39.515625 45.375 -36.171875 Z M 24.78125 -29.484375 C 27.257812 -29.484375 29.101562 -30.066406 30.3125 -31.234375 C 31.53125 -32.398438 32.140625 -34.046875 32.140625 -36.171875 C 32.140625 -38.304688 31.53125 -39.953125 30.3125 -41.109375 C 29.101562 -42.273438 27.257812 -42.859375 24.78125 -42.859375 L 17.703125 -42.859375 L 17.703125 -29.484375 Z M 24.78125 -29.484375 "/></g></g></g><g fill="#161b33" fill-opacity="1"><g transform="translate(475.280518, 405.75)"><g><path d="M 2.125 -21.28125 C 2.125 -25.632812 2.945312 -29.457031 4.59375 -32.75 C 6.238281 -36.050781 8.476562 -38.585938 11.3125 -40.359375 C 14.15625 -42.128906 17.328125 -43.015625 20.828125 -43.015625 C 23.816406 -43.015625 26.4375 -42.40625 28.6875 -41.1875 C 30.945312 -39.976562 32.679688 -38.382812 33.890625 -36.40625 L 33.890625 -42.40625 L 46.890625 -42.40625 L 46.890625 0 L 33.890625 0 L 33.890625 -6 C 32.628906 -4.03125 30.867188 -2.4375 28.609375 -1.21875 C 26.359375 0 23.738281 0.609375 20.75 0.609375 C 17.300781 0.609375 14.15625 -0.285156 11.3125 -2.078125 C 8.476562 -3.878906 6.238281 -6.441406 4.59375 -9.765625 C 2.945312 -13.085938 2.125 -16.925781 2.125 -21.28125 Z M 33.890625 -21.203125 C 33.890625 -24.441406 32.988281 -27 31.1875 -28.875 C 29.394531 -30.75 27.207031 -31.6875 24.625 -31.6875 C 22.039062 -31.6875 19.847656 -30.757812 18.046875 -28.90625 C 16.253906 -27.0625 15.359375 -24.519531 15.359375 -21.28125 C 15.359375 -18.039062 16.253906 -15.46875 18.046875 -13.5625 C 19.847656 -11.664062 22.039062 -10.71875 24.625 -10.71875 C 27.207031 -10.71875 29.394531 -11.65625 31.1875 -13.53125 C 32.988281 -15.40625 33.890625 -17.960938 33.890625 -21.203125 Z M 33.890625 -21.203125 "/></g></g></g><g fill="#161b33" fill-opacity="1"><g transform="translate(526.881868, 405.75)"><g><path d="M 17.703125 -36.40625 C 18.972656 -38.382812 20.722656 -39.976562 22.953125 -41.1875 C 25.179688 -42.40625 27.789062 -43.015625 30.78125 -43.015625 C 34.28125 -43.015625 37.445312 -42.128906 40.28125 -40.359375 C 43.113281 -38.585938 45.351562 -36.050781 47 -32.75 C 48.644531 -29.457031 49.46875 -25.632812 49.46875 -21.28125 C 49.46875 -16.925781 48.644531 -13.085938 47 -9.765625 C 45.351562 -6.441406 43.113281 -3.878906 40.28125 -2.078125 C 37.445312 -0.285156 34.28125 0.609375 30.78125 0.609375 C 27.84375 0.609375 25.242188 0 22.984375 -1.21875 C 20.734375 -2.4375 18.972656 -4.003906 17.703125 -5.921875 L 17.703125 20.21875 L 4.71875 20.21875 L 4.71875 -42.40625 L 17.703125 -42.40625 Z M 36.25 -21.28125 C 36.25 -24.519531 35.347656 -27.0625 33.546875 -28.90625 C 31.753906 -30.757812 29.539062 -31.6875 26.90625 -31.6875 C 24.320312 -31.6875 22.128906 -30.75 20.328125 -28.875 C 18.523438 -27 17.625 -24.441406 17.625 -21.203125 C 17.625 -17.960938 18.523438 -15.40625 20.328125 -13.53125 C 22.128906 -11.65625 24.320312 -10.71875 26.90625 -10.71875 C 29.488281 -10.71875 31.691406 -11.664062 33.515625 -13.5625 C 35.335938 -15.46875 36.25 -18.039062 36.25 -21.28125 Z M 36.25 -21.28125 "/></g></g></g><g fill="#161b33" fill-opacity="1"><g transform="translate(578.483218, 405.75)"><g><path d="M 44.6875 -21.890625 C 44.6875 -20.671875 44.609375 -19.40625 44.453125 -18.09375 L 15.046875 -18.09375 C 15.253906 -15.457031 16.101562 -13.441406 17.59375 -12.046875 C 19.09375 -10.648438 20.929688 -9.953125 23.109375 -9.953125 C 26.347656 -9.953125 28.601562 -11.320312 29.875 -14.0625 L 43.703125 -14.0625 C 42.992188 -11.269531 41.710938 -8.757812 39.859375 -6.53125 C 38.015625 -4.300781 35.695312 -2.550781 32.90625 -1.28125 C 30.125 -0.0195312 27.007812 0.609375 23.5625 0.609375 C 19.40625 0.609375 15.703125 -0.273438 12.453125 -2.046875 C 9.210938 -3.828125 6.679688 -6.363281 4.859375 -9.65625 C 3.035156 -12.945312 2.125 -16.796875 2.125 -21.203125 C 2.125 -25.609375 3.023438 -29.457031 4.828125 -32.75 C 6.628906 -36.050781 9.148438 -38.585938 12.390625 -40.359375 C 15.628906 -42.128906 19.351562 -43.015625 23.5625 -43.015625 C 27.664062 -43.015625 31.3125 -42.148438 34.5 -40.421875 C 37.695312 -38.703125 40.191406 -36.242188 41.984375 -33.046875 C 43.785156 -29.859375 44.6875 -26.140625 44.6875 -21.890625 Z M 31.390625 -25.3125 C 31.390625 -27.539062 30.628906 -29.3125 29.109375 -30.625 C 27.585938 -31.945312 25.6875 -32.609375 23.40625 -32.609375 C 21.226562 -32.609375 19.390625 -31.972656 17.890625 -30.703125 C 16.398438 -29.429688 15.476562 -27.632812 15.125 -25.3125 Z M 31.390625 -25.3125 "/></g></g></g><g fill="#161b33" fill-opacity="1"><g transform="translate(625.296807, 405.75)"><g><path d="M 17.703125 -35.34375 C 19.222656 -37.675781 21.125 -39.507812 23.40625 -40.84375 C 25.6875 -42.1875 28.222656 -42.859375 31.015625 -42.859375 L 31.015625 -29.109375 L 27.4375 -29.109375 C 24.195312 -29.109375 21.765625 -28.410156 20.140625 -27.015625 C 18.515625 -25.617188 17.703125 -23.175781 17.703125 -19.6875 L 17.703125 0 L 4.71875 0 L 4.71875 -42.40625 L 17.703125 -42.40625 Z M 17.703125 -35.34375 "/></g></g></g><g fill="#161b33" fill-opacity="1"><g transform="translate(427.85895, 474.749996)"><g><path d="M 50.921875 -53.359375 L 50.921875 0 L 37.921875 0 L 37.921875 -21.96875 L 17.703125 -21.96875 L 17.703125 0 L 4.71875 0 L 4.71875 -53.359375 L 17.703125 -53.359375 L 17.703125 -32.453125 L 37.921875 -32.453125 L 37.921875 -53.359375 Z M 50.921875 -53.359375 "/></g></g></g><g fill="#161b33" fill-opacity="1"><g transform="translate(483.412094, 474.749996)"><g><path d="M 11.25 -46.8125 C 8.96875 -46.8125 7.101562 -47.484375 5.65625 -48.828125 C 4.21875 -50.171875 3.5 -51.832031 3.5 -53.8125 C 3.5 -55.832031 4.21875 -57.515625 5.65625 -58.859375 C 7.101562 -60.203125 8.96875 -60.875 11.25 -60.875 C 13.476562 -60.875 15.3125 -60.203125 16.75 -58.859375 C 18.195312 -57.515625 18.921875 -55.832031 18.921875 -53.8125 C 18.921875 -51.832031 18.195312 -50.171875 16.75 -48.828125 C 15.3125 -47.484375 13.476562 -46.8125 11.25 -46.8125 Z M 17.703125 -42.40625 L 17.703125 0 L 4.71875 0 L 4.71875 -42.40625 Z M 17.703125 -42.40625 "/></g></g></g><g fill="#161b33" fill-opacity="1"><g transform="translate(505.830943, 474.749996)"><g><path d="M 23.78125 -12.15625 L 32.984375 -42.40625 L 46.8125 -42.40625 L 31.765625 0 L 15.734375 0 L 0.6875 -42.40625 L 14.59375 -42.40625 Z M 23.78125 -12.15625 "/></g></g></g><g fill="#161b33" fill-opacity="1"><g transform="translate(553.404499, 474.749996)"><g><path d="M 44.6875 -21.890625 C 44.6875 -20.671875 44.609375 -19.40625 44.453125 -18.09375 L 15.046875 -18.09375 C 15.253906 -15.457031 16.101562 -13.441406 17.59375 -12.046875 C 19.09375 -10.648438 20.929688 -9.953125 23.109375 -9.953125 C 26.347656 -9.953125 28.601562 -11.320312 29.875 -14.0625 L 43.703125 -14.0625 C 42.992188 -11.269531 41.710938 -8.757812 39.859375 -6.53125 C 38.015625 -4.300781 35.695312 -2.550781 32.90625 -1.28125 C 30.125 -0.0195312 27.007812 0.609375 23.5625 0.609375 C 19.40625 0.609375 15.703125 -0.273438 12.453125 -2.046875 C 9.210938 -3.828125 6.679688 -6.363281 4.859375 -9.65625 C 3.035156 -12.945312 2.125 -16.796875 2.125 -21.203125 C 2.125 -25.609375 3.023438 -29.457031 4.828125 -32.75 C 6.628906 -36.050781 9.148438 -38.585938 12.390625 -40.359375 C 15.628906 -42.128906 19.351562 -43.015625 23.5625 -43.015625 C 27.664062 -43.015625 31.3125 -42.148438 34.5 -40.421875 C 37.695312 -38.703125 40.191406 -36.242188 41.984375 -33.046875 C 43.785156 -29.859375 44.6875 -26.140625 44.6875 -21.890625 Z M 31.390625 -25.3125 C 31.390625 -27.539062 30.628906 -29.3125 29.109375 -30.625 C 27.585938 -31.945312 25.6875 -32.609375 23.40625 -32.609375 C 21.226562 -32.609375 19.390625 -31.972656 17.890625 -30.703125 C 16.398438 -29.429688 15.476562 -27.632812 15.125 -25.3125 Z M 31.390625 -25.3125 "/></g></g></g></svg>